<mxfile host="app.diagrams.net" modified="2023-01-31T10:17:00.234Z" agent="5.0 (Windows NT 10.0; Win64; x64) AppleWebKit/537.36 (KHTML, like Gecko) Chrome/109.0.0.0 Safari/537.36" etag="5HIE8jqP8ygezLbz0OqT" version="20.8.13" type="github">
  <diagram id="C5RBs43oDa-KdzZeNtuy" name="Page-1">
    <mxGraphModel dx="1235" dy="684" grid="1" gridSize="10" guides="1" tooltips="1" connect="1" arrows="1" fold="1" page="1" pageScale="1" pageWidth="827" pageHeight="1169" math="0" shadow="0">
      <root>
        <mxCell id="WIyWlLk6GJQsqaUBKTNV-0" />
        <mxCell id="WIyWlLk6GJQsqaUBKTNV-1" parent="WIyWlLk6GJQsqaUBKTNV-0" />
        <mxCell id="Flow2nLgOVUcYQttC7nZ-0" value="Explore Devices" style="rounded=0;whiteSpace=wrap;html=1;fillColor=#dae8fc;strokeColor=#6c8ebf;" parent="WIyWlLk6GJQsqaUBKTNV-1" vertex="1">
          <mxGeometry x="34" y="270" width="120" height="60" as="geometry" />
        </mxCell>
        <mxCell id="Flow2nLgOVUcYQttC7nZ-2" value="&lt;div style=&quot;background-color: rgb(30, 30, 30); line-height: 19px;&quot;&gt;&lt;div style=&quot;line-height: 19px;&quot;&gt;&lt;div style=&quot;line-height: 19px;&quot;&gt;&lt;font face=&quot;Consolas, Courier New, monospace&quot; color=&quot;#dcdcaa&quot;&gt;&lt;span style=&quot;font-size: 14px;&quot;&gt;DeviceGallery.propsProvider.js&amp;nbsp;&amp;gt;&amp;nbsp;&lt;/span&gt;&lt;/font&gt;&lt;span style=&quot;color: rgb(220, 220, 170); font-family: Consolas, &amp;quot;Courier New&amp;quot;, monospace; font-size: 14px;&quot;&gt;pushDataLayerProductImpressionsBatches()&lt;/span&gt;&lt;/div&gt;&lt;/div&gt;&lt;/div&gt;" style="shape=process;whiteSpace=wrap;html=1;backgroundOutline=1;" parent="WIyWlLk6GJQsqaUBKTNV-1" vertex="1">
          <mxGeometry x="34" y="335" width="740" height="60" as="geometry" />
        </mxCell>
        <mxCell id="Flow2nLgOVUcYQttC7nZ-3" value="&lt;div style=&quot;background-color: rgb(30, 30, 30); line-height: 19px;&quot;&gt;&lt;div style=&quot;line-height: 19px;&quot;&gt;&lt;div style=&quot;line-height: 19px;&quot;&gt;&lt;font face=&quot;Consolas, Courier New, monospace&quot; color=&quot;#dcdcaa&quot;&gt;&lt;span style=&quot;font-size: 14px;&quot;&gt;&amp;nbsp;AccessoryList.propsProvider.js &amp;gt;&amp;nbsp;&lt;/span&gt;&lt;/font&gt;&lt;span style=&quot;color: rgb(220, 220, 170); font-family: Consolas, &amp;quot;Courier New&amp;quot;, monospace; font-size: 14px;&quot;&gt;pushDataLayerProductImpressionsBatches()&lt;/span&gt;&lt;/div&gt;&lt;/div&gt;&lt;/div&gt;" style="shape=process;whiteSpace=wrap;html=1;backgroundOutline=1;" parent="WIyWlLk6GJQsqaUBKTNV-1" vertex="1">
          <mxGeometry x="67" y="740" width="730" height="60" as="geometry" />
        </mxCell>
        <mxCell id="Flow2nLgOVUcYQttC7nZ-4" value="&lt;div style=&quot;background-color: rgb(30, 30, 30); line-height: 19px;&quot;&gt;&lt;div style=&quot;line-height: 19px;&quot;&gt;&lt;div style=&quot;line-height: 19px;&quot;&gt;&lt;font face=&quot;Consolas, Courier New, monospace&quot; color=&quot;#dcdcaa&quot;&gt;&lt;span style=&quot;font-size: 14px;&quot;&gt;&amp;nbsp;AccessoryGallery.propsProvider.js&amp;nbsp;&amp;gt;&amp;nbsp;&lt;/span&gt;&lt;/font&gt;&lt;span style=&quot;color: rgb(220, 220, 170); font-family: Consolas, &amp;quot;Courier New&amp;quot;, monospace; font-size: 14px;&quot;&gt;pushDataLayerProductImpressionsBatches()&lt;/span&gt;&lt;/div&gt;&lt;/div&gt;&lt;/div&gt;" style="shape=process;whiteSpace=wrap;html=1;backgroundOutline=1;" parent="WIyWlLk6GJQsqaUBKTNV-1" vertex="1">
          <mxGeometry x="52" y="1204.5" width="760" height="60" as="geometry" />
        </mxCell>
        <mxCell id="Flow2nLgOVUcYQttC7nZ-6" value="Accessory Gallery" style="whiteSpace=wrap;html=1;fillColor=#dae8fc;strokeColor=#6c8ebf;" parent="WIyWlLk6GJQsqaUBKTNV-1" vertex="1">
          <mxGeometry x="52" y="1130" width="120" height="60" as="geometry" />
        </mxCell>
        <mxCell id="Flow2nLgOVUcYQttC7nZ-7" value="Accessory List" style="whiteSpace=wrap;html=1;fillColor=#dae8fc;strokeColor=#6c8ebf;" parent="WIyWlLk6GJQsqaUBKTNV-1" vertex="1">
          <mxGeometry x="67" y="670" width="120" height="60" as="geometry" />
        </mxCell>
        <mxCell id="Flow2nLgOVUcYQttC7nZ-9" value="&lt;div style=&quot;color: rgb(212, 212, 212); background-color: rgb(30, 30, 30); font-family: Consolas, &amp;quot;Courier New&amp;quot;, monospace; font-size: 14px; line-height: 19px;&quot;&gt;&lt;span style=&quot;color: #dcdcaa;&quot;&gt;tagManagerUtils&lt;/span&gt;.&lt;span style=&quot;color: #dcdcaa;&quot;&gt;getProductImpressions()&lt;/span&gt;&lt;/div&gt;" style="ellipse;whiteSpace=wrap;html=1;fillColor=#fff2cc;strokeColor=#d6b656;" parent="WIyWlLk6GJQsqaUBKTNV-1" vertex="1">
          <mxGeometry x="270" y="80" width="430" height="80" as="geometry" />
        </mxCell>
        <mxCell id="Flow2nLgOVUcYQttC7nZ-10" value="&lt;div style=&quot;color: rgb(212, 212, 212); background-color: rgb(30, 30, 30); font-family: Consolas, &amp;quot;Courier New&amp;quot;, monospace; font-size: 14px; line-height: 19px;&quot;&gt;&lt;span style=&quot;color: #dcdcaa;&quot;&gt;tagManagerUtils&lt;/span&gt;.&lt;span style=&quot;color: #dcdcaa;&quot;&gt;getProductClick()&lt;/span&gt;&lt;/div&gt;" style="ellipse;whiteSpace=wrap;html=1;fillColor=#fff2cc;strokeColor=#d6b656;" parent="WIyWlLk6GJQsqaUBKTNV-1" vertex="1">
          <mxGeometry x="205" y="1410" width="430" height="80" as="geometry" />
        </mxCell>
        <mxCell id="Flow2nLgOVUcYQttC7nZ-11" value="&lt;div style=&quot;background-color: rgb(30, 30, 30); line-height: 19px;&quot;&gt;&lt;div style=&quot;line-height: 19px;&quot;&gt;&lt;div style=&quot;line-height: 19px;&quot;&gt;&lt;font face=&quot;Consolas, Courier New, monospace&quot; color=&quot;#dcdcaa&quot;&gt;&lt;span style=&quot;font-size: 14px;&quot;&gt;&amp;nbsp;accessoryGalleryApi.js&amp;nbsp;&amp;gt;&amp;nbsp;&lt;/span&gt;&lt;/font&gt;&lt;span style=&quot;color: rgb(220, 220, 170); font-family: Consolas, &amp;quot;Courier New&amp;quot;, monospace; font-size: 14px;&quot;&gt;selectAccessory()&lt;/span&gt;&lt;/div&gt;&lt;/div&gt;&lt;/div&gt;" style="shape=process;whiteSpace=wrap;html=1;backgroundOutline=1;" parent="WIyWlLk6GJQsqaUBKTNV-1" vertex="1">
          <mxGeometry x="54" y="1770" width="720" height="60" as="geometry" />
        </mxCell>
        <mxCell id="Flow2nLgOVUcYQttC7nZ-12" value="&lt;div style=&quot;background-color: rgb(30, 30, 30); line-height: 19px;&quot;&gt;&lt;div style=&quot;line-height: 19px;&quot;&gt;&lt;div style=&quot;line-height: 19px;&quot;&gt;&lt;font face=&quot;Consolas, Courier New, monospace&quot; color=&quot;#dcdcaa&quot;&gt;&lt;span style=&quot;font-size: 14px;&quot;&gt;&amp;nbsp;DeviceGallery.component.js &amp;gt;&amp;nbsp;&lt;/span&gt;&lt;/font&gt;&lt;span style=&quot;color: rgb(220, 220, 170); font-family: Consolas, &amp;quot;Courier New&amp;quot;, monospace; font-size: 14px;&quot;&gt;handleViewDeviceDetails&lt;/span&gt;&lt;span style=&quot;color: rgb(220, 220, 170); font-family: Consolas, &amp;quot;Courier New&amp;quot;, monospace; font-size: 14px;&quot;&gt;()&lt;/span&gt;&lt;br&gt;&lt;/div&gt;&lt;/div&gt;&lt;/div&gt;" style="shape=process;whiteSpace=wrap;html=1;backgroundOutline=1;" parent="WIyWlLk6GJQsqaUBKTNV-1" vertex="1">
          <mxGeometry x="60" y="1600" width="720" height="60" as="geometry" />
        </mxCell>
        <mxCell id="Flow2nLgOVUcYQttC7nZ-13" value="Device Gallery" style="rounded=0;whiteSpace=wrap;html=1;fillColor=#dae8fc;strokeColor=#6c8ebf;" parent="WIyWlLk6GJQsqaUBKTNV-1" vertex="1">
          <mxGeometry x="60" y="1530" width="120" height="60" as="geometry" />
        </mxCell>
        <mxCell id="Flow2nLgOVUcYQttC7nZ-14" value="Accessory Gallery Api" style="rounded=0;whiteSpace=wrap;html=1;fillColor=#dae8fc;strokeColor=#6c8ebf;" parent="WIyWlLk6GJQsqaUBKTNV-1" vertex="1">
          <mxGeometry x="54" y="1700" width="120" height="60" as="geometry" />
        </mxCell>
        <mxCell id="RJSyPKSbgOH2Nd9Ry6B4-1" value="Go to device list" style="rounded=1;whiteSpace=wrap;html=1;" vertex="1" parent="WIyWlLk6GJQsqaUBKTNV-1">
          <mxGeometry x="40" y="150" width="120" height="60" as="geometry" />
        </mxCell>
        <mxCell id="RJSyPKSbgOH2Nd9Ry6B4-3" value="" style="edgeStyle=orthogonalEdgeStyle;rounded=0;orthogonalLoop=1;jettySize=auto;html=1;" edge="1" parent="WIyWlLk6GJQsqaUBKTNV-1" source="RJSyPKSbgOH2Nd9Ry6B4-2" target="RJSyPKSbgOH2Nd9Ry6B4-1">
          <mxGeometry relative="1" as="geometry" />
        </mxCell>
        <mxCell id="RJSyPKSbgOH2Nd9Ry6B4-2" value="Start" style="ellipse;whiteSpace=wrap;html=1;" vertex="1" parent="WIyWlLk6GJQsqaUBKTNV-1">
          <mxGeometry x="40" y="25" width="120" height="80" as="geometry" />
        </mxCell>
        <mxCell id="RJSyPKSbgOH2Nd9Ry6B4-4" value="Go to Accessory List" style="rounded=1;whiteSpace=wrap;html=1;" vertex="1" parent="WIyWlLk6GJQsqaUBKTNV-1">
          <mxGeometry x="360" y="575" width="120" height="60" as="geometry" />
        </mxCell>
        <mxCell id="RJSyPKSbgOH2Nd9Ry6B4-5" value="" style="edgeStyle=orthogonalEdgeStyle;rounded=0;orthogonalLoop=1;jettySize=auto;html=1;" edge="1" parent="WIyWlLk6GJQsqaUBKTNV-1" source="RJSyPKSbgOH2Nd9Ry6B4-6" target="RJSyPKSbgOH2Nd9Ry6B4-4">
          <mxGeometry relative="1" as="geometry" />
        </mxCell>
        <mxCell id="RJSyPKSbgOH2Nd9Ry6B4-6" value="Start" style="ellipse;whiteSpace=wrap;html=1;" vertex="1" parent="WIyWlLk6GJQsqaUBKTNV-1">
          <mxGeometry x="360" y="450" width="120" height="80" as="geometry" />
        </mxCell>
        <mxCell id="RJSyPKSbgOH2Nd9Ry6B4-11" value="" style="edgeStyle=orthogonalEdgeStyle;rounded=0;orthogonalLoop=1;jettySize=auto;html=1;" edge="1" parent="WIyWlLk6GJQsqaUBKTNV-1" source="RJSyPKSbgOH2Nd9Ry6B4-7" target="RJSyPKSbgOH2Nd9Ry6B4-10">
          <mxGeometry relative="1" as="geometry" />
        </mxCell>
        <mxCell id="RJSyPKSbgOH2Nd9Ry6B4-7" value="Go to Accessory List" style="rounded=1;whiteSpace=wrap;html=1;" vertex="1" parent="WIyWlLk6GJQsqaUBKTNV-1">
          <mxGeometry x="360" y="985" width="120" height="60" as="geometry" />
        </mxCell>
        <mxCell id="RJSyPKSbgOH2Nd9Ry6B4-8" value="" style="edgeStyle=orthogonalEdgeStyle;rounded=0;orthogonalLoop=1;jettySize=auto;html=1;" edge="1" parent="WIyWlLk6GJQsqaUBKTNV-1" source="RJSyPKSbgOH2Nd9Ry6B4-9" target="RJSyPKSbgOH2Nd9Ry6B4-7">
          <mxGeometry relative="1" as="geometry" />
        </mxCell>
        <mxCell id="RJSyPKSbgOH2Nd9Ry6B4-9" value="Start" style="ellipse;whiteSpace=wrap;html=1;" vertex="1" parent="WIyWlLk6GJQsqaUBKTNV-1">
          <mxGeometry x="360" y="860" width="120" height="80" as="geometry" />
        </mxCell>
        <mxCell id="RJSyPKSbgOH2Nd9Ry6B4-10" value="Shop All Accessories" style="whiteSpace=wrap;html=1;rounded=1;" vertex="1" parent="WIyWlLk6GJQsqaUBKTNV-1">
          <mxGeometry x="360" y="1070" width="120" height="60" as="geometry" />
        </mxCell>
        <mxCell id="RJSyPKSbgOH2Nd9Ry6B4-12" value="" style="shape=image;verticalLabelPosition=bottom;labelBackgroundColor=default;verticalAlign=top;aspect=fixed;imageAspect=0;image=data:image/png,iVBORw0KGgoAAAANSUhEUgAAAgIAAAHICAYAAAA83oKDAAAAAXNSR0IArs4c6QAAAARnQU1BAACxjwv8YQUAAAAJcEhZcwAADsMAAA7DAcdvqGQAAGDrSURBVHhe7b1daCPreuf77GTnY28ys4Mx7Di0JcacnRnQmLlqq5sT0eC5aueuEYXZrevGgSgOQYLVF0MY5sILJMLxaCBNX7uDKUTfjftqBEY5tOV1boYeXyQbPMhuxidDY7IzOdlJJiv7PM/7UfWWPkufllT/36JWS/Wqqt73rXI9n1XPd37OEAAAAAASSZci8Bu/91fmEwAgDv/vf/p18wkAAJaPXzD/AgAAACCBQBEAAAAAEgwUAQAAACDBQBEAAAAAEszDKgKFf6YSrZoF870vv0L1yq/Tn//+r5jvy8fv/v4PeKw/oPquWQF68sf/7td5nv4Z/bH5/hCoc1X5Nfpd8x0AAFaZERQBLYxFcIfLPG7Yctzv0W9/71v6z//x7826BNNHedICNLoss+L0kPzJf/uWfvq979If/bvvmzUAALC6jO4R+Nk/0r//vb+i3/i9f6Cf0C/Sj2dsOf3u7/8qKwE/pz97/7/oD8060M0f/gd7Tpi//Af1GOi/XELFSY/jgc9142/oX158S/TDX47hrQIAgOVmhPcIGMucWBEo/w39Ca8RK/THP/yW/vT9z+l3XnyX6C9+poWPWK1PfpF+cvFXlDvhH5rvAaJMyD7s7/7yW/rRD027CLH/8Lf6M32fmv/pl+lHkXXD0f0yX0iUiJ9SvmG+9sSM7a+/pZ9wP36k1tntdNv27c/o/6JfpT/6re84bfyxY2w/tXMgdI7bbveb0fkRV/Qf/RaF+9z9Nfpzns8f6I30nPzfvxBdZ7Fzqb70mC/pw78hpbT96Hv8r51r2e4D0R/wPv+nO//B/sYftx6P/N4Q9Md6d/Rqofc1wtdURBkw4zLfOvv423/9j/Rn//y7Zr/9+xidq2GYfTvXez/E+wIAAMvKBDkC36fHImxZiAy23vgmLjdjEQbKk8BLx431R//858rL8O//gnWSH/5SGEcvaKH8k/8eXwkQIaSUE3OsP/3L79Bvv4gZwhBhyILpN37vZ/RnP+Ptnofejh9s/ir9mP6O28Tq5rb/8/taYPPYRAiqcbEV+YPf+p62Io0Qsm1qbHEwSoAoVcF8iRAVK9UcQxABqtriCLbv8bj+q8yFmev3/0g//d53AsH6Iz6Par7U+u/SHzghhUHjDvrgjpvb/oCVgGBOZDFKSejdMet5UUqAcPK/1PfueRKBzEqACHG1Dfej023/w+/SD3l8kT7GuO4G8/f0X265Lzx3/xZ5HQCAFWZ0RUBuwioGbW7OQy31b+kvf8b//PCXleXUy9X6k/866Ab9c/rL/2E+DuVX6N9uiiX6i/RjEycPPQMx4PH8qRJMf083f83/OMKSvvdP9I2yeP+WciJUeNy/+69/kS30n9On/2Y8ACffKtf8j/7F9+mP/4VYoqPnNeh9Tjsf4lv6xgrcv/4nM9e/QKn/Q31gof0PWplr/BP9T/7nBz+Qvhv6jpvH+cTkI4jAtdh9sGLQmRz5J/f/xP8XxYy3iRtS2v0l2mZL/6e3/9v0+2/pG1ZoRGkLlLvgvLkMv+6GYfv7w9/U3wEAYBWZIEcgroX195Qvy+/FyrbCY8bZ824f1TKFmPPPfq6E/Kz50Q8cl/oi0HfcUcteFm3dG4XBWuci9G1SqbH6lVfDKpQzS8ibwnX3P35OPzUfAQBgVZkgNOBgrEDNr1D93zgWYoC+Mcd2kQeMYpFZS/679ONJkrx2f41+J0bYw1qM2//auNKdUMZPfirjZKtbCZ7v04/dmHlEwETb/vC/i+v/F+l3HiDj/3d//5dihWICy1654PuhFQIJR3ShFAJRFGJgPQybv2Q8CHFDUpZxrzvmN7+jPD7xPVIAALB8TEcR4Jv+n/KNVruDJcHsH52bvCR6iTWmF0ki++lf/J1O5hqG42qPi2Sdq1i4dVuPYnVaK1WS8tyEu36wQBMBo8fN25m4uVjGf/If/07nGSiL+JeJ/uIfQ+Hf+Bv6z0EfO9pESJqYe8/+n/yDY+HyYlzs+vFBk1Bn3OFxHx+0x5JzEyTvDcL00R5HL8bql/yBYJ0OzfzkQntk9LsUbJv09Vv60yB/QLfpJEMT2lFjY4XC5C4EIak452aS686gwjs/+5b+ywjbAADAsrHw1Qe7MupnQvwM8ZXCSUxcxkcNZ4pJ9oyjGImiAQAAy8qUPAKzI7SsH/ZtcyBJhE8cDPWOAADAkrPwioCO8UrC12Rx815v3rPLn/8+W8UAGFSuRKzwAwAALD8LHxoAYNERZRIAAJaVJfAIAAAAAGBWQBEAAAAAEkxXaAAAAAAAyQEeAQAAACDBfOf/uf7/4BEAAAAAEsp3vvz076AIAAAAAAkFoQEAAAAgwUARAAAAABIMFAEAAAAgwXTlCPwSofgMAKvE/6b5l7QGACwP8AgAAAAACQaKAAAAAJBgoAgAAAAACQaKAAAAAJBgpqQIXNGb3V16/eGe6NMb2t19TWdfTNMCcfV2l3a/OqN7t7+T8OWMXvN+3nwiuv/wmsf9hve82Kh+vl30Xj4093T2lb1WZsvUr0kAABiRKSkCG5TaMR8VaUqvm49zR26ovRWRjc2s+aRJP1ozn8ZkncdpPip2UjwTyaC3QqGF2W5kWXzl6CGZ+jUJAAAjMtXQgLqJbaQoemtbMLbStNaluExCllIs/dceRVSChJKhg0aDGo0aeTwvJV8+H/DaZWON9r7mvn+9x5/mwNSvSQAAiM9c3iMg7s/iqfmyU6K63GDFre41Kecf0Z71HkhY4V1Ktyvrski+acqW63T0XG7Lsr5JqXKbqpVWpC1ynACParGEkbiD81Ql0z+zdhJ6jtt87Y0eW+6YqHhoRr5fo8Yr6b30r0L0MkfNwyqpkbv7lLmz2zDecYMOtvVnsd7zZq4UZp9q/W3B7N/8zvnec58bct7M8R3C8yPIOE4o5Zxb2XeFcpSuVMnnfteeNanIfVLbPb6g11WiglknhPsbPO7o2KLnOno9iGJi+2PO9aVqYJzt3DEHc29Q12w49jjXpKJjHqNzNXvwHgEAwCBmniwoN+qTzTpbhmIdNqjON/uKxEHX96iw36LmN2FM9OqjT9lnT/gGLzdqESR6m0ajTrnziuPu96l6nqO6tPkloorPt2K2R1/Jb11rVJaHsUj7jnsoPhVFGVLb8VhOT5xxt6j6jqis2uqssrBQ/cSrlaAhFmZmzDwn7UMdHlGC0s4VL/VyTH+N2mfbmUejWPB5O7L7EUFp2uIItlaFhaXPY7qsUpEVDtlH6/ZON5p1an/OOdX0H7dSXEwfGqJA2XAFC+2Ta1YYbFvDVTj5+tkK+x65RrYP1LqueQoUV7tNjZWavMoP0fS+JpXS8S46j/NUAgAAYBgzVgTu6eK8xQIgH8SMxXqzN//MC75hnl/wr4Qrap56VJCb5JcLal7yzd+zcWax3lp0Y2SGsu5KxhJWcfo2tSdOTpymO3jwuAfjjI3FU46VpXDcbLu+tG26vyKc7z+32cr0QmG2/oRyO7Kd7ke4TXyUUlYuh8JzGuwXzP54jC861TO2yq31rfofPae9xi19pNNiMMfK6r5u6+tJrgtWLvK98kUkfKW2GyF/4e6GWkH/BTk3RO3PVrnrd02uUXpLX8tIBAQALCIz9wioG6RjDanFveFTky7khvmpSf5+LhRm4v51t+HFurqXgwHjBlNDwhWROQ4UOZuvUCaqakUhsN6NV6PR4KtPKRGzfcpFe6oaVKaKVljw1AYAYIGYsSJgrKFqv8ew2Lp7mVbhgauP7dBKNNZcPFd6J5J0FbWi4yHhCL5JT+WRsWHjjom4t089yg1RgCRRseW60sX1fSnbST+I/I+mRVzpQTzdYC1oPlbFacs89aL77EAlR9ptp430n1XEJ0O8EZJx7x8Os+q1B0Fc/aH1btHKQq3D69IT5UVwwjTq3GQp9zi+r2Xt+ZEKG2Rjz5u5JvHkBQBghszcI5B5pWO6eeu+dS0zYVsSyPJUpKjb9UDFWUPXevyboSgXHguIUbebLkPH3RcnJKJi0jFyHLYPWNC1qWiPpWL7ervMK8kzMO5zyT049vQ2zNrzgorXqz56N1Rw2rr2yUv0vHmR8Wm3tyTNyXdJ8rTjiDv/vtN/olqMEI0I1tq+sx0vgftdchyc9ZInUTaxecmbcNuKVIskVqrfi1Jk500sePEiHKedc1Ol9LGTd9AXOyd2Oz6nQehnGFqRo6mEvgAAoDeoPrhQdGfbJwKViMeKyAMldi40QSLo+HODpwYAAIOYQ44AAGB0jCdhQiUAAACGAY/AXJGbe/huhCiSXFigGw8eATBd4BEAAAwCigAAKw4UAQDAIBAaAAAAABIMFAEAAAAgwXSFBgAAAACQHJAjkEAQMwYAAGBBaAAAAABIMFAEAAAAgAQDRQAAAABIMFAEAAAAgAQzJUVAvw5VFXxRxV5mW9Z1KZC35fGcSKEeXchmesWPrt7qAjaobw8AAGBSpqQISOlf81GRpnSSXpHbCymlbD4qdlI8S1OAFa3idYnqjQYdmWp6AAAAwLhMNTSQfsSCSeq2m+8gSymW/qp2/zTZSscsYwsAAAAMZi7vERBXdvHUfNlha9atNa/KrIZleLzjhq4NrwrRVKmlV1O2XFcWsLjZK5SjdKVKPu+r9qxJxUpLtRdu89TcLFGb21r7NapRUR233z4j66tEBbMvwR5P0acvwsCxDcKMO+hDXGS7jzlqvBq/PA/eIwAAAMAy82RBEdwnm3VqNBpqqbOwrdjYthKGbSr5uk2WUGA3KResr7Hgz6t4u9CqNCnl18i7rFLxtkD1cpZat3eqza/cUMEvUfa0qI5b2ydqf5bjXdEbVeEu3CcdOnF73tcJlXUbb08VX7cZJSDNAtv20SoBA8c2I+4/tym7OZUgAwAAADBrReCeLs5bLLjzKrlNljxb3FZoX3302boud5fcvbthi77grM9QLhDoTNCWpdKLqGWcLXumlK1HBTeG/qlJPv9XNP3YVeWA29QOkhqd36/v0ZEpiXv/TVN5F7qt9sFjG8r2gVIeYnsDRCHhY1RYWUFuAAAAgGkxc4+AEtaOxa+WCdzaE8ECPdKPxqR1/+c4NqWcNFgNqOBpAQAAAFNjxorAGqW3WlStnrH93E3mqccWtXHBu0jC4elJ+AgiW8Mnp1nKPZ7AElb7LAbhhbisPc5F+xIweGxDkbAIW/gj9+dROr7XAQAAABjCzD0CmVd1KlGV8sZ9HhF+2wdUL7cdd71pE+v3OE1Vz6xXMfoJrXe1T4/8w/BYu1/FEOKdfeHFWuQDxwYAAAAsAag+uGzgqQEAAABTZA45AmDqnDan9pZCAAAAyQaKwLKxfUC1ff30A5IGAQAATApCAwkEoQEAAAAWeAQAAACABANFAAAAAEgwCA0AMAEIswAAlh14BAAAAIAEA0UAAAAASDBQBAAAAIAEA0UAAAAASDBLqQjcf3hNu7tv6Iru6eyrXdp9i/fsxUXNXZz5MmWPpXZCON+TMd/zdkVv7EuXVIGn1z0KRwEAAFhKRUAq8LlkNzfMp1XHCFBT4Gimwm09TZFZ3knRpLPc77x1Kyd6nEEBJ1OpMVjUbzvnwq63bFBqx3xU8HgmKjkNAACryfKGBpRgklLA5vvKIxZunqpbNWo0GmaZsCLjULKUYlndKcAnYtTzJp6JQ6JaMGZenIJL3rFdX6fSdbHLy5B+tKZLUJvvAAAAoiynIrB9QI2v91icSCngBh09l0+WDkvRlhpWrm7Hve1+l8/8uyvlutbbBe/xH9TGXL3tcSyz/s0HOUZ3mxDZzvRDWcaR3+mxaPd2k/ydEtX7VR3ssJrdcsjaJa/X5ysts1bjtkXd/xk6sIqGM98h2vU+knt/4Hnrw90NRXvcjzXaK5UoGxRk4u9fN+hgmz9KKenGAY8IAABAJyuWLCiCs8Nq7hJgfbis0gmV9TZ+iajih0KxT5sI0ZPNenCs+rMmVRwlwa80KedLG1urVCXfCGdRAorXLNTNdg0jpNaeF8i7bNKFdfd/uaDmpUcFFpj3n9tEW+neYxElwLWauY/tQx02kD7mz3PBseplxzbm7fK3BdMHXo6JiqMI9nngFFnqVKa6UOGMNrWRCwAAALFZLUXACM7aWLX6tcBVdFmQvdru6eK8Ra1KPmJtt27v9O+YbLlsXPfaFd7+LGLsipqnWSqVeikoGfLKRM1vtLi7/6ZJVPZUP+5u+9vFoiRkze8U608ot9OimzvdR+9lb2Xo6qNPdFoMPQKH/P26PVjYBojHgJWHseZ6NMR7oJQYVrTy0s9FU1YAAGCJWTGPwLxhga4sfmeZUDCuPc4Zj4MIcaLcYy3CNzbZko8tpOMTxtjNEteDMnN0foLL2vMj7mONvNOT3kmSX9rURlIgAACMxGopAsoS9unEcc9HsW7jezqrVmPGnvshVn6LqtUh7uouMpTb5+3e97Fq1/eosO9T861P1a1CkAyowwbVSOjBIsl8LTeU8Ym3vfQot609Ef5H0yKhACdHQJQL/9DNCxiFMXIE+qCSEYPYPqP630egK2HfC+6PVw08KMMx/R8WbgAAgBVnxTwCkiBWo7Tjrg9u9ErAsgD2ZH2ebl6yZam2GZ/MKx37V+5qs7hJev1Q20mGe7BdVBhnnnrkn/rkPXVFmrjiO8ZmHx/cPqB6ua3j6LIctqnk69BG5pVY0OZY71JUPw5HLRZ2EH83i5sIOTcG9D+azMiLJ3kX4dMS/qFtKxIdx0xAVJjHCy9vKAzmAABA8kD1wUUkSP5z8xTAtAkSKScIh6D6IABg2UGOwMJxT2fv/GjyH5gu6tHR3YmVAAAAWAXgEVgg1GOFp/xhvzaXbHwwOfAIAACWHSgCAEwAFAEAwLKD0AAAAACQYKAIAAAAAAmmKzQAAAAAgOSAHAGwkCD2DgAA8wGhAQAAACDBQBEAAAAAEgwUAQAAACDBQBEAAAAAEsxSKgK6EI0U6rmns692uyvgybv6d+MVAFpIzCtwZ18ASFfgU8dRc2aKGE2EOSeqENASnwMAAEgIS6kIqLK1DtnNjsL1ICamAl/A9Gr5e8cNajQadLBtVgAAAFhIljc0sJNiMabr7XexfbDcQmh9j464//FL6k5G+hEfZyNFWfMdAABAclix9wiIWzpP1Uv5nKWSU7deCvo0N0vUrlSptV+jGhVVgR+xXL3Pr6lCBcqdF7u3FTd9lajwrEnFSksaKVuuB0I6KBQk7JScanZuXwQvLCss+/S4H2o94xQZcvcnfYsoM6o8sW++OO2mj7mtKlV7bBvpY8e8DEZCB0XyRyqCpMd983IyRQzvEQAAgPmwYsmCa7T3tbikayx2u/ErN1TwS5Q9LdLJZp1q+0TtzzoO36oUlfAST0K9TFR97+QdXFbphMqqrcHbU8VnEalzFWQ/ar1sx8pCxcb1P/lU3WIBatoaVglgrt5XKW1c52pxhGzmlayrUynismeUEkCsTJhtuB/tQyemz32ssnqj2o498t+dsUhmWEk4uWYFxW7XiKsEAAAASAKJemogrPHvUaHT7c5Wr7Vg1x7nKHvd1oJU4fxeue1FqN/TxXmLFYh8kBiXr/D32zv9O3G1s8KhkxqjbGxmyT/skeQ4gPvPbaf/zPoTyu206MYcTvpYswqFHPvyhlTTeprSrCTkx0oEzNCBKA8oiQwAACtLohSB6SNudmtpm8UKTRPnbzRy1FSKQiiI154f6d8+bWol4itjvc8EI8wb4uZAJj8AAIAoUAR6IK57evbExPr7IYmKLapWhwlxLYhr+671blBJjTXyrPU+AHlSomVCEgoJPVx6lIsdh9dhk3o5G4RDhqMfLxzFcwEAAGC5WDFFwAguSXAjFtJe1BIfiHLja4u5SLVYGfuZV3Uqkbjd9Xauta3fdRCul33q0EP0OXvpKx3b/AHbppMMVfiAf6P2yUpDvdymot3usE0lP8w76It5p4Jd8uc5Ks/paQQAAACLD6oPMiK087cFxMKnAp4aAACAZQKhAQAAACDBQBEAMyES1gAAALCwIDQAFhKEBgAAYD7AIwAAAAAkGCgCAAAAQIJBaGCOwN0NAABg0YBHAAAAAEgwUAQAAACABANFAAAAAEgwUAQAAACABANFIDa2jsE45XwBAACAxQRPDcTk6u0unWzWYxUj6geeGgAAALBowCMwAulHqNoHAABgtYAiAAAAACQYKAKxuKf2dZZSG+YrAAAAsCJAERjC/YfXtLtbISod0d66WQkAAACsCEgWjMU9nX01uTKAZEEAAACLBjwCsVij9FaLbu7MVwAAAGBFgCIAAAAAJBgoAgAAAECCgSIwAv7HK/MJAAAAWA2gCMQk86pG3mkRrxgGAACwUuCpgTmCpwYAAAAsGvAIAAAAAAkGigAAAACQYLpCAwAAAABIDsgRAAAAABaUeeSWITQAAAAAJBgoAgAAAECCgSIAAAAAJBgoAgAAAECCgSKwYNx/eE27u2/oSpU+3qXdtw/0WuMvZ/R6d5fefHL7NBkLM7ZlwMz/rixfnfGMgau3u/T6w4rOxKc3+lzLMpW/C/03Jn+/YIbM4D75EEARWDDWHqXNJ012c8N8mjPraYr0ZCdFk/Zk4NjcG+HUboaLglF8gvHFeE31+h4dNRrUOPbMigfEVUpkcRWTyHnruAkOauuDvpnabeJvNz7zE5gDx7Z9QA0+3/Vy1qx4SK7ojelj57yIMhb0P/I3OuQa7/n3HR7HLrNT9Gz/nDlX1/WE19cM7pMPARSBRURdTGuU3jLfH4wspfiq7hTgE9FrbPIHeUhUE8Fnl1cZ07jsyM0uT81n9XBsjSPaWzfNCw/332tSznfOzdd7fAZNm3Peavs+FQPhMKhtCPu14Fhqu1XyiHSM7WTRPBxKOJ5Qyq9RlwrKwrxItv+69opVFO4/VKLX+HGaqu/1+VYKUN+/7yyV7LXll4gq/mSCeQjZnfYM5nwG98k5A0Vg0RDLwNxoM68adPRc33LVHyjfEM8cjdzV1iOaetAmQugNnRlL5M0n+S7toRYctVJc7ThDB1ZgOX0KMfsaxXLvN7a7G2rpTz0Zd2zR7UILpdPF7H6Xz28+OBawK4Q6LWNZhoz//sMJ+TslKtuxdtB7bMOwY7WLHXP3OVH7lzGovketNHXuhwnZL21qm4/dyDVywP83356y6Lhum/0NaouP2u7yhu7Md6KLcOyDzk3QFr1OZLHnWl/7eapeEvmHdltnjjqsWHtuItcIz7U9h/HOXZT0o97XRYS+Y9NEr6HeFq79Ox9qcStPVB9FVf5+AwGeodw+Ufuz3p8IwValYuaOre93vvH4XZFfaZF3HF4LA5mxRZ1+WaD0+UXP67DnvVCuga6/cfEu2Otk2H1yOYAisExcVqlqNfJjj/x34Q1BBGugbbNm3Q7afKreFpTL0T+0mj7f3OUi5os8z23BdscU32qbJvwHpCw/+QPsIZjGGhvfPE+uS1S3241ghfsVawHXqcQz7lvFw6tS+tjsT1z2LODrQzwXd7ctyj57om4O7o3GCo3+YxuE3HzC7epla+XIesdSEwtO5kBuTnyDL+y3qPmN3fs9XZzzDfrlkBsXb1cuE1W9/kLGcvWRb/5mrJ0MahuEbEf7uUCItPjcpLrODWNDKWapbTltcp2c5/S14Fida8+P9H52iAWV3dZcJyIAXCtWzs1hqCT4lRsq8Losz/XJZp2v31AoDkRVMNXXgFjXB9tm/SAGjE2UAHWOg/ZugSvXXd6MP1C+J+aKmqdZyj02+xMh6Oeoqa6TPN28NMdSiqRHOTVOR4EN/s5b5triRTxPpVkLUlZgIteGod+9cCNFWaPAKgVQbXdHN5dpSse8nywDUASWCo9qVvDIBepYShFtlgVWK2jLUumF2Wa/EBGG6ibr3Jh2D/l7bKvNCKMpufCtQKw/a1Je+uIoJOOMTcXuWHHKx4nHd5Blyaf3pUMYfW/wEUt1OK7gsfQf2yCi8dg8W1ytW7sVnxcltLhNBJljoWResBC01tCXC2qyKPViCCLdb3NzlGP2UNZkHCKQenk+BrX1pENYutdY/3MT9ZIUT902vk6sgFExXaMsDuD+c5uP5YVCdf0J5XZadGOmOWzzqDCKcHVDAzy6YR4lTb+xaWEcjK0H4ulQAm6qlqpcf0VqB+eCEcXJhpDM9dftfTD3jEjeixsaEEUi3t9r5O+Gl1G8MfJ30Klw970XqvuI/E3eU3uT+/2Rz5coN0uaC9APKAKrAFu/lQpFYm1xU45CS8gsD+za0kJHrNoTfUMYe2zWahZzdvSbRTfaFRq4kA/b3Kfh7s6NzawjpDsYc2wSj62yELdWYM8Es50s76tD4IkwM1b0/TdNolEtdLH6Oi1xRm7KyuLsce0MauuLIyzjKppXb4vkR+LvpmGBiRsumWRs3jGfr+vi8JBAbEQJ0DkvrndBeXysYiAeDBb2LVE6Yypeig5laxCBcmqWWJ4Vi3jHtpp00XGc3vfCDUqJ4s6K8414Nlh9vpJQ5lb6Qe+T0waKwCqgYuyhq+rqPVuW+uNAREj5h4Pdvf0xVsosQgluXHrMsYWs0d7XWli6ln0gnMV9zhbWUMYMNaw9zin3cU8lZMyxSbiBghuRjsGGSAhDXKxHfDNOU7XqWj48Fy898j++4W3So1myAeIWNR8ZcZf2E/SD2qYLW2vXbFvap1DkXMU5p4reXh8d83YS1z75VL20Lu7poKzQoQJl0NhEOW0FSXm9keu/RulKfkJFWJC/+W4lwOIqvOJR0Zg+Rq7DPoiX6lIn3s2azFP+23jHyrCh/71Qro82Nd/fUOoxqwWb/Pmjcz6GIZ4Svk9OTxGbDVAEVoFtj0o7JsbOy8lmiXXX4YhWHcTmzfIQF2ynm0+7GG0Cznhjs3+AdhGBZF3T4hoU4aza3qWoFueRLWVFSKgh3GfsxwCtq15tI8lp5mY3aGy2/+KiVCEO/mxc8pH+S4Z32W4lN2rHZSu5F6rPzg1uO0feqc8WZhh3H0jHPO7y/oktJ2WBWaFk+2cWJXAGtU0dreC0WNip43g3lItzTg0qZGK3teeU505yL4K/jZgeoKH0CXvYvwEJ8wS/UUr24LFlXmmL3+6zdx6HEy4aqrjbMESR+MozHjA9JyrxldcFfXGO19mPPCuaNiwlYT99HZpt5JoOFKCOHAH7dz9r5G+Pj21V6MH3whb5fC2Lwi6KfZv/fmIleQoSwuV/+noFFwRUHwQgDizYXvNNuOAkY6lErY4Y9uKjlYVAmAMAZkjvUMoooPogAItC1yOOHS7bJcE+zhgnSRAAMD7ayzOZEjAv4BEAICbKA+DGniWBa1m8AeLiF5cseVTr8YgZAGAxmYdHAIoAAAAAsKAgNAAAAACAmQJFAAAAAEgwCA0AAB6cebg/AQC9gUcAAAAASDBQBAAAAIAEA0UAAAAASDBQBAAAAIAEA0VgwdBvo5L3d5tSs53vBjfvfh/4znZ5HW7wznH97nD13my17ehlebtQ+9d9CPsLVpWh1yQAYKmBIrBgSNUzl8lfYWvKaAaE1e7GRpUWdYjU5jbCIlK0w9K/zRZdsYvbPqhNYwqluHXyu4rluMqTLaxil1CR6TxWfMVp0LjD43UqcP3HFu5PL7360T3uQf3v39Z5LF6cfU7/mgQALBJQBBYRJVh1edQuVE340QvGqGpZphLWdNAV9KJCQgRTnm5e1qkUUT6EAW1fzqgi5WqDEr9SNtWUgB3UphAhViTa71GTcMctGxzOmdR3l6I7dr1UmTtxhbdbDz9WueHBY3stFQL9WnfVxAFju/9QUe8oD/ohJYUj5WYHjHtQ/we0Reqxd5YOHnRNAgCWGigCi4YIeqd8Z1iswrXaeliHxl2v2j23rr2ux6+EoJTE7XrPvNmva00PJUMHVog4/dXr+ykpA9rEw3BZpYoRxrowjvEyDGpT3ytU3arRwVOzIgbR2uO6nn/ssqI9GTQ2mfM+ysSAsel6+JXQYn/nRyzxccY9Nn2vSQDAKgBFYGnQAl2sxl6W5WtVy9tYc35pipb/PBBBWqfcua5znr8tdCgXfdrEopa65/0K/7i18F1X9/MjtrDJ1B4Xa71DiDs142cbDx8wNhG+fo6aqla7eBscATxs3IP6P6BN157Xy8AcFADASgFFYAW4/6ZJrf1CDBd2L4yCEQjeh0C71rUrvE6laxZWgeDu18ZWclWUnz6V9EwIRS+8HbFSYASfipUfEtWkTVzuLGyt4FNKQrAdK10sOLtj/tNiwLglx8Eqd6zYtVlI634MHveg/vdvs0qmWY49Vgri5kYAAJYdKALg4fnUVDXyy8riFaHEQuqySRciiPq1/ZlP1cuWEuLKipUSu8YD0G3NrtGTZ9ZHck8X5y3yjo0gZYWhXs6S/7GX5Z+h3L75OAsGjPvqo0/ZclkrdxJeYOHcOr+g+0+jjHtQ/we0bee6vU4AgJUFisAKoBL2TptBzPtNJEdgGOPkCMyAyxu6Mx/pS5va5qOiV9u/ci1+bcXa5MDuWL3OA/CehjZ0+3M42rvbPrP15YxOTrOUezxDX8mAcbdugxa6/2xaIp6OIeMe1P8BbTpXIUdPYnqY7NMICCcAsJyg6NDSIG7kIrH955Clkq8T0a7e7lLx1K4r0I24lbsSA3shikCeqsTCZOLwgNnXpflqkGz0g+1BbVqY5FlYW+x6YVBbgLjS36XCMch3sZYN0W065lIEqdkueqxwfgczaGyDz1v/sXXu06Nar/PZMe5B/e/f1nEsZz5iYeY6W66PnUiIokMAPBxQBAAAE6KVHXkks0tBiwkUAQAeDoQGAABjI56o3QmVAADAwwKPAABD6eXet8QNH4BBwCMAwMMBRQAA8OBAEQDg4UBoAAAAAEgwUAQAAACABNMVGgAAAABAckCOAABzBvFwAMAigdAAAAAAkGCgCAAAAAAJBooAAAAAkGCgCAAAAAAJBorAgiGFYXZ339CVKgSzS7umhv6k6FfByn6nwJczem2qzYX9BQAAsIxAEVgwVElhh+zmhvm0QKynKdLLnRRN0kutTIii4i6v6exLr3ZX6TDKkm2LrTTJK4PD7V5/cAswD2oDAIDVA4rAIqIE6xqlt8z3KZB5JfXr45QljkuWUiz9OxWXcVh7fhStse+XeO+sbMj7+z+9oXwlTTXbdkxU/OqMVQDxcuSpulULtqtRMYbgFuWhSO1y3WxXp9x53tTSH9QGAACrCRSBRWP7gBqmFrwI76C+u7jjWQBeOdZxKPREgLEF/Um77FW7EZbWjR9Z5+K28+IKUh1O6LVthg4aptCO098AqU/P24wrQK/eV4nKnlJa7j+3KWs+K7Zz5F3e0B33pn2dpdKLULXJPPWodXtnvvXjjm4uPSoEdfPX6MmzLLU/y+gGtQEAwGoCRWCZuKxS8bagrVW2mqniO27yFlXfsfw0lmyJquSLIF7foyNZd+zpn7mIEuBVKX0s2+jFKh7ijj/ZtJZxg+rPmlSZh5uc+3RyGgpj8Ti0zi8CJeT+wwn51Kb2F/GYtKj5TdBCZ+98out28NvebFBqx6dmoKRckV9pGQViUBsAAKwmUASWCo9qr4wFvP6EcjsiEPVXwXtpLfM12vt6eH34+2+a1Nqv9fjdPV2cswCs5AOPQH4UgSheAlYexqlP73oDFLyv2laV8qYfFcrxLOiwQeZVjdJBHytEz1jZ2UpHvRNd8NyUStQ+NJ6O3SalylmTizGoDQAAVhMoAqAPUmc/9BSoxSohs+LTGyo63gCLzm/Qy9FjonaQnCghCtt2RE+oHU9oWy+JWg4ofdui9CNzzEFtAACwgkARWFY++VRl6/iJxOnHZO1xjrKnJ0F2foh2u1erPXIK4jBWjoB27UfyAbq4ojcSygg8Hw4mqTCqREjuhFj2/R9vlBBI8bpEXg/vRc82MzY8TQAAWBWgCCwVPhWVy5qXQ6JaZ5JeL4zg2j30VY6BcrHbxD+xfo/TVPXMPnmxAi7zSucZWJe8LDPNnhfFJpKoZ3Ef5zuhlO+EHOzYZHmXonrMpyLcxxHzknPhzOOgNsVGirL8D/IGAACrAqoPLgsqse+GClN9BBCMjngZ8tR8Vg+f6BgRVB8EACwS8AgAEBPtLZhMCQAAgEUDigAAMbEvPoISAABYJRAaAGDOIDQAAFgk4BEAAAAAEgwUAQAAACDBIDQAwAqAcAMAYFzgEQAAAAASDBQBAAAAIMFAEQAAAAASDBQBAAAAIMFAEVgw9NvrpEiOKZjz1pTLkVcMDyieM2uu3jqFdlRfdO2BsL+TIfvXNRB0bYFVKuqzymMDACw/UAQWjLVHafNJs5C18NfTFOllUBZ4fDY2pZRPSKT0r1tcSBarHC0JA8cGAAAPDBSBRUQJVikFbL4vJFlKsfTvVFwmYivNo96g1I75Loj3QSotNhrq9b5qebWEZZd6jQ0AABYAvEdgWRCBWCUqPGtSsdJSq7JlW/xGwggVopc5ah5WSbXulKiuSuiKO7pIvqxTeCxUdQVDcetXKEfpStW0h22CuLSLp+YLEx5vCGLBH/rkHTslg8dF7UsUgV5VF/uNTdY3KVVuU5XnyjuuER3K72y7riBYvTSbOeOWMZ9shuMMv99F9ilE5kNVhzRzb9mvzU1pwXsEAADjAo/AMnFZpaLUyBer2C8RVXwWeZYWVd8RlZXVXKcSsXD/JOszdOBY03UWZCdOjLrFSgCxwJa22r4ftCklgFiQme1q+2r1/Nk+UP0qSkhAxdldBo3NpyrPVb2cJf/whFJ+jcV9m9pfuOkTt22FY2v0VDJ6wdud56gu20TmnxUPVgLSZh4bx55WxJbRcwEASBxQBJYKtlytcFl/QrkdI9gM3kvxAAhrtPe1tcZN0qGJr+fZmm3d3qlfKdhqtVa7xLJ12xU1T7NUejGmIGPhLQJxYm+AIfNKC9j6syblIzkCg8bm9H+/QHvr+qNiI0XZ0yJvM2qSI++zZOZY5UlE5z/C5Q05swwAAAsLFIEV5/5DharE1qmyfMVqjiauLRO6DDBb9qcndMYCeOyxre/RkdomR02lRLxW+xufDOX2ifxDo5Qctqnkx/UyAADAwwJFYFkR9zbl6Ilr6fbg7rZlEtWEK/JNfHswktTWouY32s0uuQRursBQTJa/PF44db6wFW4+jjc2Fx1aqO236MYx3wOvAo8j1ri/nNHJdaiQNBpHUQ/EEPQjmDOaLwAAGAIUgaXCxMqV1UlUU8mAg8m8KBk3uGx3QqmyZ1oGsUZ7JYmB59V2eRNrfwiskAwWr0k5Xwva8cbWvU/JhbBhjMg+36WoFmfc63tU2KrqsEWwxPcy2Ccv2p+jGRAAADAP8NQAAJOinhi4oYKTdBgkW8ZKGNRPP0jS5rh5FXhqAAAwLvAIADApdzfRxwbpntrXFOtlUKIw7E6oBAAAwCTAIwDAFFAeADefYI7vEBDgEQAAjAsUAQBWACgCAIBxQWgAAAAASDBQBAAAAIAE0xUaAAAAAEByQI4AAAkGuQUAAIQGAAAAgAQDRQAAAABIMFAEAAAAgAQDRQAAAABIMFAEFgxdEEfq5Jta+0Ht/dVGvWr3qzMetbx3f5def5i0AI+zH1UNcdJSwzGQmgNT6bvwAP0HACQSKAILhq1EZ4nzvvqhiCBRQnZx2diMVvlLPxpWV3EYUkrZfFSkKa1KA2sBG1YJnJbgnjb9+g8AANMFisAispNiMbBG6S3zPSlspXnUnQJwMpRCsZGiqJqRpZLfoEZDlhqlK/npKAPre3TE+zx6PqkSE9K7/wAAMD3wHoGlQsIFeapemq87Jap/vcfCs7vojaeq2enytr5ZF+AUxJFQRL5ia+d5VAtK6XYcS2HbB/ej+bRGdGiPq7fZkOOc54Lf2f03n9VjCU7dT2IBfkR7E1nGMicnlHL3Ix6Td6nec2nGRl3917872dT9d7fRc68/a/rPly5hXA2qF3ZvO1vwHgEAADwCS4MRJlssxJUly4sjlDKvrIXLi1+i9jsJBWToQL4fe1r42HZbFY8FYP62EG53TFQ0OQlXb91j1VicixUdKgEiwO12ta0q5Z1cBv+wSTnbtu/TCVvba88L5F026cLGub9cUPPSo8IUreexEYv78obu+KMoHCLc7djqz5pU6dV/Viiap1nKPdb91/Nfp1KXN2PQeWOlxLuhgl3P80yHkh8CAADzA4rAsmAEZ61PaVudZGji3mJhGsE2iKuPbLOfFsPtDvn7dZtFVy9adKN2eEc3HQI885QVDWe7bNkzXgUtILXFnyGvTNT8Rv/q/psmkfO7Yaw9P2JBOak3YBj3dHHeolYlH8yJeEtatzLwaP/pU5P8/cLw/gw6b7IP/q9o5195b9rURlIgAGCOQBFYBb6cUUW5zY1l6Zdix5TFFR1YqrIYa1UJ90BJKFK7XJ/YZb32OEdU8dniFYFLgTX94NzdUEvlZQhu/oBZjBBX/T+/UAqPKFHe07hqzAAkTOMea+bKDgAARIEisCysP6HcjnazdyGCzMkqv3ofxpwVjuvbRTL1/Z6u6Hs6e9eOCMQwji/JfG4/5Lc+ZZ89CcIUfVnfo8K+T823PlW3YljTDtrjMYNH6CRGf8hC/aUoQJKg2aJqtc8TFtL/LQkPXFHzukReHMVo0HmT88LK1ptP5vtISMhBlDSEEgAAk4FkwaWiI/kvSDozcWiTjJYtlyhduaFckPjHW7oJcE6yYGQ9k2XLXwl9SaCTUIFD0NbZj4792QS6npj9jpoUN91kQTeBUjwA7j6jcylE+tqz/93bCOFv+p03pnOe3bYh6HPX2f/RQLIgAACKAOiBFmw3LzsFIDlPFYzJtPYDpjKXUAQAAAgNgB5IQqD5aLj/3GZr1cbRx4UVDAkjjJAkCHohHoZdKFQAgKkAjwDoTafLOvKOgdEJQhBOGAE8PPAIAACgCACQYKAIAAAQGgAAAAASDBQBAAAAIMEgNAAAAAsIwjZgXsAjAAAAACQYKAIAAABAgoEiAAAAACQYKAIAAABAgoEisGDo4jpSSEZe87tLu06d/1mjjj3H48VCigIlsrCOfnvgaylWJC93mkbBJTWXu6rIUXidLQ/yUio1HwuA9GX3KylO5ZwnAJYUKAILxtqjtPmkyW5O9lLf+aMVmJ4V9YwgsrX+9Y10Qsbc50IqPRGkyqP5qAirS47NOu/DfFS4r4yexbkZhCg3sz7GDJHKnS7pR3HKRAGwmEARWETUDVpK4prvKwFbTl6Tcm6t/5hV9voiwsSrUvp4ivtcMJSAkXLF5vvkZCnF0j+qcM7g3CSBrTTPUafCBsDygfcILAtisVWJCs+aVKy01KqwLLBY4RWilzlqHlZJtTrlbIP3/CuiNQN0eV+9P4WpBSDbuOWEO7931iKQkrve5459KUyZXOL+K2HTo2SujM27oYLtl/t9wLi7+hRBXLZuuWEzbrVvM0cO4Vx2zJdbFrjXtrZ2QkdbnHNzJ8cht/aC7jNFShz3Q/abpyrFL1vcF9X33udGro8K5ShdqZLP/a6Z8+CeA7eMdVh6ud+40+RHzovBzKM+XoFy50VT1jkss6zPt5TY5r5Ik3tu7HzYYllBm8xpk1LlNlW7/m6E6HUSaeu4xqPbzR68RwDMC3gElonLKhVvC9pi80tEFZ9vY5YWVd8RlZVFV2fxwDfLT0aoibAxll6db4hF45JVSsB5jupBW0y7U90g23yD1tvJIjf/tedH/JmPzRaSCATdZoTL+h6Vy0RVT1zPI8ame477ntrXg1yyGTowfZNFxn0icVzux5H6zmMV4WPa7Q1e5kSUi2A7FnwVFf8Vq9nxPhx7WtgESoBrUddYWOWd8Ejvc5N5UaLsaTOci09NJWy9oUrAlBlybloVFqR+jTxzHmTuWrd3qi3zyo6ZFz437Xeuu7/XuM15sfNntw2UITleUZXAlvV16dd75ypXfXH3J2u1EtB8Fp632laV8kHox6eqvc4jfzey3YnZn95n7rxicjG47V30Gp+nEgDAPIEisFSwVWtvmOtPKLfTpraTQOa9tNbRGu19LcJZhCVbVC/Cm+za4xxlL2/ojm90F+ctZ5v4XH2UUsLlbst+CFpR4JvqMVFxpDh0r3F3l0qOIjd5E+/mRTwVVnj1R89Ji4V4rO3UPDJ3N9TaLzjzkaHcPlH7czi67nPDH1kAF/Z9ahqFQeY1/vnQ+5mWC3/guQnGFr2WBFGc7FxJmKZl58TQc9zDYAXN/k5dr9ftoC/hdadDZ3qO5VrwqOAI6sxTVjSC7bjfJdMPlSdh/m6+XFDzkpUVpQDJIh6FFt2oAcj+dRsSAcGqA0UAzJ/tA2V9hRbdOOjYrCtsXe4/VHjvocUZ29uhXNF6m2BRSogW7v6hERrKIzJ+WWaLCCxfWdFX1Dz1KDdvb0Ano5ybL2dUqVA4X2xtTy+XYU64XgmzWCXEejvKVNHnfKGTSwEYHygCy8onn2/VOXoy0Co3Vo3jWr16z1bbfo4FmLao/I+m7dObrvh+YAlzmxsHFuHVioQlXFxLbRCdFr31brAlXw1j7V0E42YL86X0w7pyo9zd8h5UMpdwRX7H2FSynGNpasx8VXt4KljonVy7QsOJp0sy3+lJ2A/57WmWco9j2OrbHgvdJvlvT6hd9kZQLIzHYyaZ98O8LQbxhDhPM6hrS38cjsxZh/egF7JPevbEnMd+iFLo69CPQtz6PmWHbSfegcuqCf30R3lLRMnpul76Yb1RSXzsFSwjUASWCl+7bZVFSlSL4RbOvGLr7rqot+GlKMLMuNkzr2rknZq2dymqS9zWoOPXYVvNtajZalS5BmafsriPC8q2FLjXzfPvklfg/H7XTYpTLnLros3TzUvul9qTpc+4xXo9TjuuXV6MYIz0f/eEUixkIygBXKW82c66f9V8OetlUWOTPkrc2VkfjE3yDtx+qFyCHkmRPVmjJ894hKxoxVIcZsGgczMImUMWwPbcSCJfxyz3x4RFgvPqWtvBedP5LcNj8xJ20HkZers8VbfibJehA5UzEIaCQuEtSYR2HS+SA2LDC0PRynCo3AKw2OCpgWVBJaQ5mfVgvvSY/yAR00l0G4cgaXNK8f5lRs2FJIZOOKcPjkqoZaV1gr9XPDUA5gU8AgDEQbnBXfRTC5O/8EmHLcZJ2gSLiPEkTKgEADBPoAgAEIftA6q5ruzY7ud+2DhykdrlerxserAE2MdWoQSA5QGhAQAAWEAQGgDzAh4BAAAAIMFAEQAAAAASTFdoAAAAAADJATkCAAAwIYjng2UGoQEAAAAgwUARAAAAABIMFAEAAAAgwUARAAAAABIMFIEFQ9d3l8In5s1zcyh9Ku/Mn0eltOmPTb/OVRUMUoVzTBGgIch4V7bGvFtAaCrXjj5XblGpZeMh/qYAWCagCCwYqjyuw+Tvsp83/QXH9Mcm5WfNR0VYElff/I1AVMusFZ35CcyBY5OKjI0G1d1qkQ9GWMGvc1608mmWiGA2wtq2dSp3nZUSzbaR/cnilGde/r8pAGYLFIFFZCfFIs6WMp09mVdzfDf6DMaWfrSm69ub7wH7NSUUZVF1AmZSu/+B6BhbWIt/QZBqjVL+2e8sKc2wMFdVG1X/dSlsqyjcf6hQ81k9GJsqM/1eC3ulAKliPqZNFqdKYbZst9OlpH1X+Zjz3xQAywQUgUVDLDpTjlYEtC1qoyyeHpaTvYF2WkSBBSY3ZBaAV44VGbjF1c3abNMpJN22jnY51psP3dtqSzVP1Usi/9Bu61h0fcZm0dvHc+9rpA69qZu/vkdHA5SZzFMWR5c3dGe+E12E9ebdsfcdt1i3b+isxzwOHXeHFeues2Ae+dzac9hpPcdBKUPDGHBOheg11NuDYr0RQ0Mr6nwc0Z7x0ESQ6yAQ4BnK7RO1P+v9ifXeqlTM3PE1/s43Fryp0ngcV2HNUsoa/kOuOwCSDhSBJSHzokTZ02Z4c/5yQc1Lj3Kmap226s3il6j9zrnJX1bphMpBG1V8vR91s+Z1x102W9hmltpW1MLyK03K+dIWWl9rz4/09x3iG7bdto8wmDNXH322onOBEGlx/1Md/VcMHLdP1fMc1aXNmceB4xYlwLVi5dwchkqCX7mhAq/LslV8slln6z4UigPh31uhLdZ1rOqFA8YmSkDxuqTHppZugStKQN6Mf3rC9Iqap1nKPTb7E6Ht56jpydjydPPSHOtLm9pkr/cw5OAqM61K3sxJnprPygtx3QGwDEARWBb4Jl7Y96lpbtz33zSJyl5ws7aWmlq8KrUi1q9HBXvjVsIgjlXl3Gx5KZ5GBVS2bG+02t0aS3gNQQvUKSoOHcIy6kbu1/9B485SqaQtS1pPU5pFU3uI9+L+c5uPFZ4nWn9CuZ0W3ZiTE7Y55ygObmiARxcvAa7f2LQwDsbWA/F05G8LgWU9HcSrJWWYHaEtipNnlEylNPXyPphSvx0KrBsayJ3nVzchFIApA0VgiRD3tv9Rbvj3dHFOoRX15YwqFaKSsnD1DXTSVLGrt0XyI3Fo07BMOP13lYBBLOO4Vdjjuh16gPowydi84zqVrotTFK6iBIjlXo94F8RzEyhporSysG+dX9B9TMVLs0ZPnmWpdRuqwgCA/kARWCa2Pb4ZN+lKwgJbhdCKuruhlpMxf/W+yt8n4Z7a12xh2exqVjRO2HqMx/gegtFzBKbN9MetY94mFCN88qnqhHSmgQp7bKWHWOqDxiZx+laQlNcbyceoUbqS78phsN6o+LkN4pnoVgIsrgAXj4rG9LEazWvojSjKrfhPB5gcDngQQFKBIrBUiKXTpqK4Tl84Fq4oCDs+FY3L92Sz1J2p3QubxHbIguSySnn5rGKufNN/yZaYjbl6N5Qb4XE0yWegIF77kIJ9VGYw7u0Dqpf5nKl1vBy2qeRP4QmNPmEPK5TzFVYF7W9U2GDw2DKvtMVv99k7WTBDB8Zd74Yi7ON5USXIhiGKxFeXSaLUc3L/4UStC2P64fE6+5GvpKnmJPpJXoO6TmWR69ZRgKI5Ar2VjJ6YJ07gQQBJBdUHAQATIkK/SHRsnuBYOnqHKUYB1QfBMgOPAABgbPQjh8urBGgPymRKAADLDjwCAAAwIfAIgGUGHgEAAAAgwUARAAAAABIMFAEAAAAgwSBHAIAJQGwYALDswCMAAAAAJBgoAgAAAECCgSIAAAAAJBgoAgAAAECCgSKwYOg3ncl71+W1p7sxy8s+BKZ/Tj34SVBvqFP70u+oRwEYAACYD1AEFgxbwMUSu4LaDFBKyciKiFYQ4lei02xsRov7pB9N4XWvtqhSzwI6AAAABCgCi8hOijZIl7VdXKQsbYMapjLcVFCV5DYotWO+T4BSYt6lqH4cqw4jAAAkFrxHYJn4ckavvSq1zFcij2qNA8qo9TdUkM+yOvJdV4aTsq8asw1/EmFZoRylK1XT7u7PPY4mWzaFWcTSlhKwwn60BK4qfxshSyX/iJ58w23nOaoHisNoFd/0vknta2/drIyD6isFY542eI8AAGDZgUdgWVDCuUk5n63wBi9+SdVQH06GDuT3ZpHa+CdO/L3FSoBUjpO22r6v29b36Ej9lo8ggt5sGwjs7QOzr2gP1p4f8fo6ldii98w+Gw0tuNeeF8i7bNKF1OgXvlxQ89KjAiq+AQDAgwJFYEm4/6ZJrf3CaNawwiT1qVj5rrLYW7d3po1hQW/Lx0qcPtI2VTLklYma32glRMZDZS+2la6VjBG9AQAAAIYCRWDFuf9QoSqVqG6s+k4rfp6sPc4RVXz1RMTFOVHuMbwBAADw0EARWBLU0wSnTZP9fkVvumL4bWort/s9nVXDtrtb/qSS8IQr8rti+P1Rx7xu8x5HQSc5tj/32Gp9jwr7PjXf+lTdGs27oZL/dl/TmQ0tTIx+THFajz8CAMCyAkVgWdg+UDH8onLxF4nKTo6AErAtqnrSlqeblzWyufKZF/y706IJDZxQqjxCFv22RyWqUt6EFeyz/Voo6zAD2X07jxnKMamSN8eMCu/MU4/8U5+8p7NI3XOwjw6qpEYzbxGhb55OuLyhWQVDAABgGcBTA8tK55MCy8KMs/hHQT2JEHmSYXTw1AAAYNmBRwDMkXs6e+dTdoQkwZkgSpR4NCZUAgAAYBWAR2BZWTKPgLxCuHjKH5z3DqwC8AgAAJYdKAIATAAUAQDAsoPQAAAAAJBgoAgAAAAACaYrNAAAAACA5IAcAQDAQoM8DABmC0IDAAAAQIKBIgAAAAAkGCgCAAAAQIKBIgAAAAAkGCgCC4Yu6PNGleo9+ypazGdWyFv/9DEdbNEeWWL3QSr6DakQaF7vawsYacxY1fH6bG/68+aT+T4Jpg+yr3C+J2PoeZtm/+eKHk+/fqtrRxVz0tUco+cVALAMQBFYMFTpX4fs5ob5NGe2D6jRaFC9HNQ4nCFrtPd1g48XVk2MjQjYUUsJr6cpMss7KZp0lhfmvDFKKZmDAilsbEavj/QjVG4AYNmAIrCIKMGk6/rPg8wrEcJzqlmwvkdHrGAcPR9RYBjF5GDbfJ+YLKVYVncK8IkYdN6m3v8FYivNozZlnQEASwfeI7BEBIV7DN6xFixqPbnFfMSdm6ebl9IuLtsiSVV+jReWAFaFi6rUks87pZ6V+FSp3ttCtFCQu50QbCvHalLumKh4aI7oFBly+2/7HkW2P6GUf0R762aVGUv1Uj5nqRS0dY7LoI5Hqo3cY4xU/tjseyoFkvr1n5F5rBLltqpUHTgv3USvBbNf6jgvhmy5bhQvty9MxzmP7tNeJ+61ZK6HSsvZ5+zBewQAmC3wCCwR2nI3i1+i9jvtEs+8KFH2tMniy/DlgpqXHuWUQMnQgd2Gl3q5TSc2jmus88bxiA55u51ZaizI/CCG7FPxXYrqqq1G3ulJEPPX/a9TaSTLsV/YwIxL+i4CzfZHCe4MeeUs+R9D9/jVx4cqfzwk7HHJSoAocWYsvjmnA2EF4uTaGXPDKBfmvKhwjigxpt1VAprP6sF6OW95E0JQSkBkn90Kk1ICpHRzsE8AwCoARWCJ0AlpJqlOLL/LG7qTBhYAhX2fmkYY33/TJAqEnggAsw0vYs21btVWEyAWc7hPsSLbn634Yuu0ZK3MDOX2W3Qz6eHGYO15gZUQqxxdUfPUo0Js4WWUjIm9AXFgy9seZyNFWXtOO85bJKFRchxYgcgPS8yMcEc3rBy6c5B5yqrJdZuPJPPjnrdu/EO+dsQz1MNrBABYbqAILAtsBVYqRCXfWGx+iUVuiNzUtQV8TxfnRLnH+nZ9/6HCFmdo6U0j+e/qrXGbm33W9k3DQiFKiK+9H5+a3N9cl4W72FhPgl1cC916ecpEVa0ozPppBO+4TqXrIp4KAGAFgSKwLNzdUIvYEjTx5av3HbHgbY9v1GwBS1hgqxDEoe9u+VcqmUu4Ir/SGUEelXtqX7Pdb7PixU0dxJU7UG02RDEjIlZ0FAmZ0LlPb961qfRiFDXAeDzmlHk/PlpZEOUu9MjwWkmAVJa+iyTzGcVIcU9n73zKPnvCe9Gem+r7QeOVY9UoXcmPpHRYL9byPTYJQHKAIrAsiKDnG3nRuIpPNksdMec1evKsTUWvSTlH6On8gaJxL59QquxsZd8VIIl9ytXMn82jePYGLqEEstsrwcgC4aVHLRYIap13Q7mIl4EFiifHkjbui28tWevq1slq4mqW32gBYUMNkvxnt7du70FtjAmL2HmJCO/1J5TjrXz+/xOboDd3hvR/HOx5M4vE7ctu2EOuFTLnkxdtxYeCXG/H52GrFsT6M6+0xR/ut9e7FTJ0ILkpcu5iKkn2qQxXUQEALBZ4agCsMGGCHJLbHgpRhDqe4BgRPDUAwGyBRwCsLp98qnYkyIH5IU8iiCdkEiUAADB74BEAq4c8n6+ep+94bh8sJfAIADBboAgAABYaKAIAzBaEBgAAAIAEA0UAAAAASDAIDQAAlhaEDQCYHHgEAAAAgAQDRQAAAABIMFAEAAAAgAQDRQAAAABIMFAEFgz9jn95z7t5N/+EhW/U/uZdPEde6BO8494ir5qd8B37D8y0z42g3r6n6jvomgQLW92v5zntQP0mrFGwNGMDIOFAEVgwbJEWS1DlD3Rgi/l0Lr2K5UyHWZybjc1oWej0o9V5HfIqjw2AVQKKwCKyk6INWqP0lvm+bKzv0VGjMeNCP7Ymvy7DS/u1HnX7Z8Aszo0qEy1lgs33RWTcc7oMYwMg4eA9AsuElJ+VksGGbNlU1VPv1r+hghWCzveND6+pQgXKnRdV+V/eKvL+fXHfFk/15862zuN5tniMrP+YoxoVg21tm7u/4PcKseCblDsmKtp9ivB+ZcS26rPUB9CE24obvkL0MkfNQ9O+U6L613ssYDTiss/fFsJ9qWN1FLtRYyGq8ZwQ97H5tEZ0KKWBBU+tD7Z256TjWAMx8xUd93jImPqeN5mrKlHhWZOKUiZaWu21wPTrv6zvN241h2ZfQr/9dY2t47x1zuWswXsEAJgceASWBhaI79osDLQVLEtc66xVKdLNS2s9E1XfG+c538RPrllQmP01Gp1KQPR4EQFwWmShYtqOPfLfSSxY6trLujqVelqAPhXfpczxauSdnpicARbcSnEx++M2OnRd/C2qviMqqzbeN1XJ/2SaepIhr5wl/2O4h6uPPgs3LxBQ/uEJpczYavs+nZj4tQjEk8266QfPFwvbygPFtvueN+GySidU1v30S0QVX83XsP73G/fa86NgG5n/tNmf0PecKiWAlTt7jXA/osEAAMAyAEVgaRB3NAtEb4ykK7a8rRBfe5yj7HVbCW1aT1OaBUq+RxKfFpzl/pX72NL0rGKwfUCNWFYzW7Ul+7sM5fZbdHPHHz81WUVgJSGI84vF2qa20yfvpd1ujfa+Hm5xrz0vsKLRNMLsipqn0XLE7tgyTz1q3UpH7univMUCOB/kHIiVrNtiIPPAAnFSb0BAv/OmcMaj3PZihQ/vf+9xM6L4mW16zX8v7r9pUmu/0P8aAQAsBVAElghtmTXYDqzoG/bEWes2zi7mphYCbwZa2jMkiPHbZdLywaJoGItXFI39XOANGIy44N1+8BKEHJaBcfp/RW9MSENvU2M1AwCQFKAILCHKjStu2IiFaC24ezqrujHbKFfvq0TPnnRY79rKlqS79me9R2UtOu7hqSNhCbbSc2LxbqQoe1qcuhKSeVEiOvfpjYRUXvQThhJyYSH4VNqN16WqwxwjY6zqWShTvc9bJ6P03xn3F752WIFImYcg7j+cUJgZ0h/1FIXjdXkTyRUYhuR+iPI5u6c8AADxgCKwNEgCnHXd8iKxWetmX9+jwr4OG+zu5unmZYdFx0LWblekWphbEHEH71L+PEdl27Z9wIpB23HXxxFw9uaeVwlu/mHndraPvKjYskkqE9e25BmY36tFPX8+IetPKKeCDjl60uFdCN3neWo+qwcu+MwrnYOQt/3g5cG8JP3O2wCG9b/nuCPXD18HtzknH2DAOeVrRPIM9DUiuQejeBLskxfDQxAAgNmCpwbACiNCTAs8V4hKFrwk1MVNtnwIup+EmJyFG7dKSNVPcow7Sjw1AMDkwCMAVpdPPlux0SRBsAgY79aESgAAYDpAEQCrhzzWpgSNPP4IQbN42CRVnBsAFgGEBgAASwtCAwBMDjwCAAAAQIKBIgAAAAAkmK7QAAAAAACSA3IEAAA9QfwdgGSA0AAAAACQYKAIAAAAAAkGigAAAACQYKAIAAAAAAkGisCCIe+Y1xXZTLGXrlLDtgiMXl5LmV3LDKvfLTLyDv2pVbEzbyWUOQzPxWSo/qkiSvrVupFzNhbOftQ5f01nKNwDABgTKAILhirt6pDdNLVhDfcfKlTdCmv3L3LhnC7sq3/NEl8giuCbk7BbT1PkDOykKHoGRmdjM2s+adKP9DnTioaruGklr/N7tzKyQamgOqDAfe6orggAAHGBIrCIKOFjy7RGubttdSkHAdsHSjmwJXUXCxbmXpXSx1qBaTRqlK7kp+K9yLya9nvrdW3+TqVsIrbSfEY7BTizk6X2uz4ll79cUJOVPin12+wxT0qh2EhxbwEAYHzwHoElQdzLxVPzJcAz1dt0uV2pFy9CrOQf0Z6xEMXqrFCOhW6VfLXGbiOIpV0064WwTY7X3CxRm7drSdNOiepf77EwM6gSss6WLOC1AhLdZ7asy972KqsbrHvRptdVosKzJhUr6mjBdgPHLR4GVi569o+JbjvC2AZhxh2Od3zs+Gt0Qu0Xcs70ebx5qfct7f6jIzogPubH3FRLEscB7xEAIBnAI7AkaKu3wdahFpLaqrYCfY32vtZWtqe+R2mxwCNjiYt1eRK45G0VOL3Uy22njcivNCnnS1udSsSKhLVKlTCUyn7htlooiiA7oVSwvk6584py6ffyZCiL+7qtreHLKhVFKZDt/BJRxVfucD1uGZcoOHa/Ztzre3Qk34+7R62UABaxtn8ytqKK02v6ju0ByDxNU/V9dy7IxXmacjKv2znyTpsd4QEAAJgOUASSwH4tsF4lXt26vdNflOAOY/Z5tsbDNlE4ysazoMMU7c9ajF599J02B3FlX7ao6tl9ipeiRTfhLgfAFru1eNefUG6nTe2xcwLuqX3NisOL0IJee5yj7OUN2a70G9tQZhF+2faodH0SzYH45LN6YvMTMpTrEx4AAIBJgSKQYFTiIdvD9cBqnkK0WdzsZn92EaEZVUA095/bJnaedNZo72Wamt+E8yPKlnhJ8kZJkxCH/xE+AQDA9IEikGDEXR8K4ivyTXx+GJmnHrWM6z6CZNyz8Kr0eBpAWeSnjtX75YwqFYpY7QHKGs7Rk8DjIEl2cT0Lglj5rYi7/ep9lVr7ORNKmYBZPaK5LXkcJ9RUX66oeeqGQmSpjRAe0I8X6kcWAQBgMFAEVgJz41dJetY1P/xxu8yLEgvnohJsu7snlCr3yjDowfaBjrmr7fSiBWOGDlR8Px+sDx59k3j+cToMG6gnCMKkRrZ3w/0dEtUiyXtiMXvkH5p2u08jlFXSorWejfDLvKpT6dqOjS3q6xLV55xsNxoZ8spELUn4vG6Sv+MqQoIoQ25+xyDM0wlOKAQAAPqBpwbAw6Oy/2+oECQ/gklRTySc5+I/DdEDPDUAQDKARwCAVcK8tGlSJQAAkBygCACwSthHKqEEAABigtAAAKAnCA0AkAzgEQAAAAASDBQBAAAAIMEgNADACgA3PgBgXOARAAAAABIMFAEAAAAgwUARAAAAABIMFAEAAAAgwUARWDDk1bD6XfqmRPDbzjIz0dLBr913z8+qIM6Cc/VW5sLUHxgD2T6YR/NmPpnD8FwAAMDqAkVgwVh7lDafNNlNXZHeokoHb9WCqnRHz5fl/XG2MFIfJWZRkAqK5qNiJ0XRMzAGRrnQ4x5eDAoAAOYJFIFFRAkfKaVrvjtI6eBO5SBg+0ApBwfb5vvC4ZTWNVUKp+G9yLySfU6zYFGWUjzFnUrZeLAC5DUpF4w7R00PXgYAwOKA9wgsCeK+Lp6aLwEe1ZQAlHBBnqpSwlYJ27C8r7i3KyS17qvkqzV2G0GsdCldbAnb5HjNzRK1ebuWNO2UokVsJAwh5X8N3rFVQKL7zJbrxmsh608oFfRN97n5zLSrCoTmWEy4P/ldheglC9DDjr6423T2j4nOmTvuzja3n0Mw4w77NxhVBfC2QA1TAll9r7Ribx8XvEcAADAu8AgsCdrqbVBtXwstZV0Ggm2N9r6W7zUWd920WJgTCx69vVvTPkMHaj96qZfbkXr3fsVasnUqESsS1npXwrAdWve8hEJbhL1dX6fceaW3K/zLBTUvs5R7bJQEVYbYblcjOnSt5hZV3xGVzT6DvtgCO8fdo1aCnsIQioyt+NUZ97C7TeZ0VrgeHDmuKAVyvPbnBQyLAAASCRSBJLBfC6zPjc0stW7v9BcluMOYvViqYZsoHGVjveswhRVeVx99p81BCXcW2p7dp3gpWnQT7NJpU+5y4x341CSf/yuafuwqj0Kb2o4C4b201r5WegZb0/fUvs5S6YW1/3mrxznKXt7QHasXzdNo20iMFX65U/N8sskKnPEMAADAogBFIMGoxEO2r+uB1Zw1LRMgLnqzP7uEQtPJEWiE4QsFKyvuNl3tS4pSvCpFunlpEztFSSFKP4oRhgAAgDkARSDBiNuattLG0r4iv2Ij9IPJPPVYuPmO694gGfeXVaqM+jTARoqyp8UpPvYoHowWVd+HPbx6X6XWfo4ytEGpnRY1v9F9lJh9d+7FAEZ8RFN5IsijnFWGPvlUvXS+M/oxxeQ99gkAWAygCKwEkohnXerW/T78MbXMi5ISwNodf0Kpcq8Mgx5sH+iYu9pOL1qIZejAPA1g18d6Dl9i/cce+Yfh/nZNPH8gRiirpEVWQPLOdplXdSpd27HtUvG6RHXlll+jvVLYR4nZT8UT0g81Ngrn6pAiSYuCfToBeQMAgIcATw0A8ODoJy0koXO03IMQPDUAABgXeAQAeEDkSQLx5EyiBAAAwCTAIwDACgCPAABgXOARAAAAABIMFAEAAAAgwUARAAAAABJMV44AAAAAAJIDkgUBACDhINk02SA0AAAAACQYKAIAAABAgoEiAAAAACQYKAIAAABAgoEisGDoSnRSqOde1bDffTu0ZM/i8eWMXu/u0utRqxD2Qb2GVxUT0sWVJt6v6Z8USgrne/nQryeefd/1cfSCCokPwIpcr2BxgSKwYNhKdJbs5ob5tFioG9KclBSp6e8ycS1/KZdsPip2UrSQsyzVFeNUYZwxmVcNajTqVNoxKx6Q6V93WuFeaAVnWa5XsLRAEVhE1B+61NQ335cNKb3baNDR8wkFtstWmmdkg1JTE0ZZSvHdtFPxWia0gI6WNAaryvJfr2BxwXsElgVxD1aJCs+aVKy01KpsuW6ErVg1FaKXOWoeVkm17pSo/vUeC0/t2i2eykrBM/Xwxc3epFS5TVXen3dcIzoskh+0yz7zVL00m9n9ST88cwwH2xf3WF5nRb2ObYP+m7HltqpU7bdtX0w/KRzvJEj/m0/tXAh2Pga39Rub2mazRO0Kt+3XqEZFNT/B+MTqP9R7E/R6XZY4XGvg7Ruv+GjusZzzrOlz3vhjpC8dbWJp5811JYTXlkXv9+blKFUSB/el+5rU/ahQjtLcx8gcD7nuhMg+g2NFr3PBbtM5Zk2WSv4R7a2br70YeL12njs7tmF/b/36Px/wHoFkA4/AMnFZpeJtga1AtgT9ElHFd2KFLaq+IypLm7hxWTT6n8zNhcWP2oaXOt+IioG72acq769ezpJ/eEIpv8a3pTa1v+gbePNZPdiuxje9vLhkjbUv2yjBZNrtzbivG1ndyJuU8/XvG40a3+zzoUuWx1a1/Tz2yH/3cC5xPRe6n7V9n06cnAT/kMdgxhy0DRmbX7mhAp+v7GmRTjbrvB1R+zNvp5QAYkFgtuPftA9f09mXDB3Id54HJRBsuygBgjkHqj3CgPNm8Cu2n+E1Iqw9Pwq20f13r61xMErAVniNNFwloO81yVcyKwFSllnagjkect2JUJe5DfbJCnMlOG98nZ/n9Dw6fzd6zPpaFUGutx2iBFj6Xq/m3JlFxhZeP/3+3ob1H4DZAkVgqWDrIRAGTyi3o28iFu+ltSDWaO9rsVDuqX3NFs4Lsw2z9jhH2csbulPfnLb9gnMDvKObS48KjkWYecpC57o9vnC+u2GL2D1GhnJWICqcsW2knD4OQ4/VCplpkC2Xg37KuFu3YU+yZU9Zb4IoPUoQDRlbuE10Tu8/tyP70+e0RTfxBt6D4ectHJsOPQXzL0qJSQjcVRZt9NoamS8X1OS+BOc0YNg1ybCgt14HyQ9x578393Rx3mIFIh+MQSz9cDs+XslcHyrePuHYFP2uV1GAwuTKrn70/Hsb1n8AZgsUAQASzxW9OfQdq1gs1WWDhWzgkTFLlxIye+4/VHSYyvRBeTBisRj9B8kEisCy8snnG06OngRWRS/E6mtR9X3o5L16L7HqXGiF9kSS8lyXOFs573zKPnsSWN0qaWkUD4FYTacndGYtsS9ndHKapdzj0HodD2OBzSS7Xo/bezrkhjzm2GQOW64LXs4pW9E5G4MfyTMiDD9vPfnCFjILIklGE+4/nFBXfsKoKO9GNKyiGfea1PS+7sw+q+NcAx2ekQm5u22ZxFbhivyuHIReTNJ/xnhzpvW4LkgeUASWCp+KxnWoYssx3OGZV3UqXRcDl2Pxmq2VoZaGuNt1nFtvp2O9Nh6r2PZUjDlv9qtvQtYtqhPE/EPdpmLlEuM9TlPV0+t2vSqlj2PGY+dM6KLV8fahyXHjjm37QMfH1bF4OWyzVWiSDwXeb2HfOec21m/d+JJkeGnOgVKEYpy3XqjjsCAy/c/f5pwcjwHndCCdfeHFKGvjXZOGnted2aezXpa4jwRmXkjegO2n5GiYhjGQfUkuiN7XCaXK8Xwrk/RfKYz8D0IJYFzw1MCyoBLSbqhgs9TBTJBENknaGio8AVgYRFnTSuu41y2eGkg28AgAAMCSIk8bWM8VlFcwLlAEAABgSbGPfUIJAJOA0AAAACQchAaSDTwCAAAAQIKBIgAAAAAkGIQGAAAPDlzTADwc8AgAAAAACQaKAAAAAJBgoAgAAAAACQaKAAAAAJBgoAgsGPpNYW/oyr7jPaglb9/5Lkuf96Gbd9DHfkf5IOSVxmZfYZ8mo//YZo869hyPFzLn86Ywx5xSIaaHPG8AgNkDRWDBUNXVHLKbpiScKuIi5UmnXCJWhFAvgaHqtjvspMj2ZFz6j21Z0IJwNIE95/M2A5b/vAEABgFFYBFRQleXRx2J7QP1utGh1fJio0vTdgqCiRh3bKvM1M+bUT5iVKeMDc4bACsL3iOwdFzRGylv6rtlbsVS1WViRXiXIm26ol7x1HwJ2mU/xe668/s1asQqCWu2j/37AUgYokpUeNakoqnfni3bIioytgrRyxw1D6ukWndKVDdCLjo2j2pOdUZxaefdevCmr50VBrsqDoq1LSV+Dd5xg7zPHftSdM91f+Z03ty+d5wb2V9zs0TtSvc86uqWZr1lGuc2JniPAAAPBzwCK8EA9zPf4E+k3jtbnGJ1NhpW2GToQL4f8xYiEGz7nG78XVxWqXhb0H3wpT68z6LT0qLqO6Ky6qOu2+5/MoKSWFiZvqva/sZdrpSA81wwrnpZKrbHQAnSNgtdvZ0sYqnr4i587B2tGOi2uEpAP2Zw3ox3od94/UqTcmps4TwqJYWVgLQdl933Q10LAIC5AkVg1ZFYPwvZfL9EtbExAmlqwoKtebuv9SeU22lT2+mv99K6ubXwPNi+p/Y1W8kvwuOvPc5R9vKG7lgVuDhvOdvE5+qjT9lyeUIBPwVmdN7CsWk3f/tznywDNY8AgCQARWDlMQK7USaq6uz16WWng9kxz/OWodw+kX+oj6M9ImGIBQCw2kARSAzakhaXccQK3EgZK3pUJFY9o0fJPvlUpRw9GWiVi0Xbour78PhX76vU2s+xANPWrv/RtH160xXfb92aEXNbGIdnkfjUo1YkLOEyxIqeCdM+bz3oG4aIh368EAomAMsKkgWXhl5JYoMSyEzbXTTxLZIgZogkpcVOEDPHnEZCWVeimpv0pxPqbl72yqp3k+2YyNicOZH1L28o/zGn++oej9tqz5p0QuUgWbAzyVByAoJjR/raneDXzXzPW1eCpGDa5Pf9kiQj+1LEGZvBJCiGCZ6jg2RBAB4OKALg4VHC9YYKTsY/mCM95l8pBpKIOYJSSK7CNCJQBAB4OBAaACDp3N1EHxskScSkWC8OEoVhd0IlAADwsMAjAB4eeAQenK7QwBzfISDAIwDAwwFFAADw4EARAODhQGgAAAAASDBQBAAAAIAE0xUaAAAAAEByQI4AAENA/BoAsMogNAAAAAAkGCgCAAAAQIKBIgAAAAAkGCgCAAAAQIKBIrBg6Epub+hKFdSZUXW/DvRrYuWYo2D699UZf5oc1Qe1L3lv/S69/jDPCn8AAJBcoAgsGGuP0uaTJs773meFUkrmoIgIG5tZ80mTfjReFbsIUhVPSiWPrOQAAEBygCKwiOykaMPUvp8HmVdSg37U9/zrOvmNjtK4E7GV5n1tUGrHfJ8ApcS8S1H92DNrAAAA9ALvEVgWpDBPlajwrElFU28+Uv/d1IS3uDX0owVlnDrzbm19t969u94hOJ57rM7iNB3bhn0Ul3+TUuU2VXv1fwi6zj7Fr5FvUX0lqk1Q0AjvEQAArDLwCCwTl1Uq3hbYemdL3C8RVXzt8g6EnVj2uq19+JrOvnAbC+aTaxbytq3hCNL1PTqSdZ1Ws1lfL2e1oDfbBkJ7+0B9V+0uSgloUs63x6pRupKnN59MO/lUPc/pvrj9BwAA8GBAEVgqPKpZ63v9CeV22tRmYX//uc3WtRdavKqtRTd38jlNaVYg8rtGMZglUtd+v+BY7BnK7RO1P9vEvyyVSsbrIP0i3f84rD0/YsViRG8AAACAoUARWHkydKCs8zJRVRLndh0LHQAAQNKBIrCsfPKpSjl6whayPGnQct3s0nbpUc7kCGh0cp+480MLfTDqCYbrdvzHAzdSlD09CT0PEpY4zVLucbw8gEHoxyrn4NUAAICEgWTBZaErgc+LJMDpZLogRS9MqutIIowkBXa2CW67eldAnpUK9SVI7osey2CTBjv2GSYtSrLgCaWCZL/O74MZOVlw6Njig2RBAMAqA0VgWVCKwA0VJsh+B+MBRQAAsMogNAAAAAAkGCgCAAAAQIJBaACAISA0AABYZeARAAAAABIMFAEAAAAgwSA0sCDA/QwAAOAhgEcAAAAASDBQBAAAAIAEA0UAAAAASDBQBAAAAIAEA0VgKPJOfKnah4I3AAAAVg88NRAXKWLzLjVW0Zo44KkBAAAADwE8AnGRErvmIwAAALAqQBEAAAAAEgwUgbispyl9eUN35isAAACwCkARiE2GDho5akri4Nsrsw4AAABYbpAsGBt5eqBJucYBqwTTB8mCAAAAHgJ4BOLypU3tnRRtmK8h5vHCr87o3qwBAAAAlgUoAhOzQakd/gf5AwAAAJYQKAITs0ZPnmWJenoLAAAAgMUGikBc7m6oZT4GfDmj17u7lD/PzexFQwAAAMAsQbLgUCQHoEg+ZankH9Heulk9ZZAsCAAA4CGAIrAgQBEAAAAwf4j+f+fO4ylbKrkLAAAAAElFTkSuQmCC;" vertex="1" parent="WIyWlLk6GJQsqaUBKTNV-1">
          <mxGeometry x="812" y="240" width="514" height="456" as="geometry" />
        </mxCell>
        <mxCell id="RJSyPKSbgOH2Nd9Ry6B4-13" value="" style="shape=image;verticalLabelPosition=bottom;labelBackgroundColor=default;verticalAlign=top;aspect=fixed;imageAspect=0;image=data:image/png,iVBORw0KGgoAAAANSUhEUgAAAhIAAAH/CAYAAAACDzR+AAAAAXNSR0IArs4c6QAAAARnQU1BAACxjwv8YQUAAAAJcEhZcwAADsMAAA7DAcdvqGQAAGAcSURBVHhe7d1PaGPbntj73+3udKeb9L3BmHdTjyqLGG5n4Jg3KquKF1HgNypnVghhbnlcuCGKoZHg1CCEkIEPWAQcBbqosasxG3NmqRo9QaE8quTiDUI9D9IXKsh1SOU+CnPvTb/u9N/71m+ttbfWlvV3S7Il+/s57FOStvfW/iet3/qttbV+8GtDAAAAMvgN/y8AAMDYLmUk/tG/+IV/BFy///4f/qF/BACYR2QkAABAZgQSAAAgMwIJAACQGYEEAADI7HoDiZ3ft53pmjv+eV+/IycH/1D+y7/8Hf988fzhv/yR2dcfycmmf+EKuff+h246+Afyh/71xOY/kP9i5o18fP3fDz9v3Rb/PAIA0sYIJFwhkBRIdvp9+Xd+7uzo+/6u/LPf/Vv5j//+L/1rt9ig4MvPS6Z/9Xv25T/+97+0d+P8yc/t02v0l/J/fv61/OgPfjdDEAIAmEfjZyT+4m/k35hC6R/9i7+Sn8lvyk971XCn6A//5d83QcSv5T999z/kj/xruMxmHR78pvzsvZ4bP/3bP/dzh2j8mfwT8/f/5AoCNQ1qNKD5yYOrCEIBALM2QdPGn8sHreH+7g/kJ92p8e5ac3dNuTv4+MfBfF+Ldn5PfvoHPxD5+V9LseFfGsG/+1fBe43UnOCzLf/q96V5ablOOr7TRBCss2vfUmn7YN6/1v2IdR2fS80e/njGy9pjEr9mggX1kwd+nj2W/jiZIO9PjuzsEaWzTL2aHIYfy846Rs0y/NH/9TfySxOE/nOaOABg4U0QSPye3P+x+efnfzskU/B70tTC7+d/1akpV/9M/tjPVT/54a9tluPf/OmvRX7894JC+jflJ+afn/3XEWvWhhbKP/3x38qf+Pf6k5//QP7ZkxFrvz8222lr9H8h/+kvzHKPOwHPj+79ffmp/E8zTzMxZt7/7gt3s2+//NO/cPv1/m87aXsNFoJ5dt9Goet88lsi8Tp10syCzxroe6gk86DHcvM35H/RF3/1d6njOtxfSrGq69F9ukyDiPBY/qN/8cuugC5udtKM0S+kMGoQ0/hr+fgXekz/3kyzWQCA2Rs/kPjd35J/bWunvy0/0WaOoenzv5Wfm0JDfvzbfWutP/vP6cAi7dfy8//mHw71O/J/3NOa/2/KT30t+qca7IwqqdH/pZz/yvyj2RZ9qn737+SDTf3/uRR84f6H//Q35Udm+z7+P75J4OhvbYH8k3/8e/Lv/rFmDsbv1+HWOQ/9QVyg+Ms//au+geJPHsRBRHeAMUyP4wsAWEgT9JEwU1dmobe41qu1/DglP0pzwwTCbbTTFPpX/MWve9bap+0nPwqaQEbV+Dv5f/XfH/7G9Gr4cZZjgJ+9D7IzY/rZLxkrDgBuggmaNgJxQWb9jpz8b64dP80FFCOn+BM/kB//r/7hUHFN97fkpyO21/e0+Q/kn4/QbPPHF39n/v8DWf+ncd+QTlOMKyh/Q1ZswOT7MMT+26/ll/5h97w/+q/adDFu/4G4v8qE+x2Kmx/+4LcHNAv9uRS0qeXHvz32LZ02YLqi4AwAMDvTCSRMgfInJkDQ/gH//T/8rqx//puggPi9oAOj63T4yz/9n6OlwoOmglH90b91tzkmnRF1SnXgHCButnnyW/Ij7dMxrNnm6H/YwMjtt1nO3zWhfQX++N//T9fP4oluw2+L/Kl2MPQafyb/MdnGrnlmnXFfi57bf/RXQWbHTL7jqu63bkuv/Y47TNpmnngf7bz43Py2DYDi93TNTxr4aRap00zUM5NktlePty47ejDhm00+//WYfToAAPNm7kf/1M6T//oPJEM7/Dh8p0H5G/k3IzXXYBKdTpzDm5w0gAEAzK8pZSRmp1Oz53cHboSd37eZkZ+953dBAOAmmPuMhOMyBuuf/yLzjya5WrB/0uWXf/rX8vHe3yMjMXPuPP74P49+qygZCQCYbwsSSOC2IpAAgPk2900bAABgfhFIAACAzC41bQAAAIyKjAQAAMiMQAIAAGT2g1/84hc0bQAAgEzoIwEAADKjaQMAAGRGIAEAADIjkAAAAJld6iPxq1/9yj8CMMwPf/hD/wgAbicyEgAAIDMCCQAAkBmBBAAAyIxAAgAAZDalQOJMXmxuyvM3FyIfX8jm5nN5/dXPmiNnLzdl85vXchFu7yS+vpbnZj0vPopcvHlu9vuFWfN8s9v58nq20h5/c7x00mN2ib12+szrRf/ens9eFuOaBIBFN6VA4o6sbPiHVk5yy/7hldMCpHehcede3j9ycneX/KOMls1++ofWxoo5ErfDoIAkDBjCwGDtWUMajROppK6VWZmnaxIAbq6pNm3YgvnOiqSL6zmzmpOlS4XMJPKyYqKHpbupkOKWupDX32xK+VNFThoaNLhpd93PHmZ9d7y/H8FCXJMAsMCu5HcktIZaPvZPNkwh8+2WLGmzQKkphWhftuKaoqagX624+TazUJbIz8pXT2T/sWYQ9PWmrFTbUjtopeal3idRknpjV9b8s/60ECxKTfz2+Vcn0XO//dPe3L4VDkXKe37Pt+vSeKZbr9t3IPK0IM29mtg9D9epxy5exigddgpkzR4U/bGy/Drt6593/Pr93wXPe67zjp43//4Bew7uvzfzzmVn4PF2x/n8aRgw+GN/qo/zUgmvCSucb8T73fN6GfV8Twe/IwHgtpt5Z0stnI7unSS105NHTTnQduvlLdnZbknzQ6eF++xdJPlHD0yhoAXHkaxEca32RApvD4Lmikhqbwuu1htVRA4iU4zEqfO6KUq0MIqXvbpCJdR3v4eKpKyFo13O7MvxUbDfLam9EqnaeScm5KlJpM0GtsAXU4D6fTbHpL3nmndscBAfKzOdVEesm9t1toPj6At+c9724/VoQOLn2SDvy7m0MjXvLMnWt7oePXfdfBCx2nmvxqWAzAURYgKd6zrfAHBbzTiQuJD3b1vSOigm7eVaM259/mLnrj0xQcDb9+av1Jk0j0uyowXS1/fSPDWFZiluZ9faaEvO3WKGCRQqvjCx/RTa0p64I50vzIZmDUYxeL8HC/bNFIkFE2x19luk9DSe57ZXC/eL79uSr5Y6BejyAyls6HJuOzrLjM4GddVqV2ZgMN2OqbPXQknqcZak22lNipsu6JxmkwgAYDQzz0i4VLWvScZTXChogSdNea9BwMemRNuFTmGo6etwGTMtVkExYL9vKNtP5PRcRgmXpkavk8OcCTrn/44ZALiJZhxILElutSW1Wr9b9Eyt+mnONm+cvWtL5UkcYOQkZ2qaozUFdNOOlOla/Gg0hb454HbCcQzb7xF9fS1HxyUpDAmgtABv+eYd62MkNVOLL6zrdohE7/ycjy/SfSXUp7bbRvNeB8G8tYel9Dq72KAhXja2XpLKRiTlad5earMrkRwNuhbWd+Wk2pbyWOdOm0Omdb4B4PaaeUZi7Zlryy/6FL9Oqd8JWC9I7qAoZdkJ0uhrsmv7PnSaBkb/jQYNTkoS7Y273HQN3e++giYd2xl1hDb/uCCN38v2bXDLrT3TfhZl97r2vTjs9EJYerwjJds0oO91LjvBvEvrNFP6vJmgIdg/95sc2txi9vuTf7/Ucj5Qs81UJrjx58fN84W67SwZ7398C6+us26vkWSdPQr/pcf7Ul/V7Rn19yL8nTtXnUEBgBuG0T/nihao2t7ffdcCZiHpiDpBvxju2gBw211BHwlgzvhfJJ00iAAAkJG4YvFvHfSinTN35LxERmKRkJEAcNsRSAATIJAAcNvRtAEAADIjkAAAAJnRtHELkY4HAEwLGQkAAJAZgQQAAMiMQAIAAGRGIAEAADKbUiDhxkqw4y18fBGMk3CL+V9P1LEk9KeYpznmx9lLN+aEG98CAIDrM6VAwg+AlMhJ7rb/MqOOYOofWhsr5ihNgQnUyp/cEOv7j/lxZwDA9Zpq00burinY7qxI3j9HXlZM9GCH3J6m1RzjQwAA5sKV/I6EpuLLx/7JhqlNhwMlaVPIXmf0idJhQ3bXzQNtGijVpOVelnz1xNbAtZngQHTo8ZpEZl31R00pH7Ts/J3PRWneq0jbzGtt16UuZfu+/daZer0msuPXpeL3s/psixq4b4P4/U62YVS63LuCNJ4NHVy8L35HAgAwLTPvbKkF/9G9E2k0GnY6MYX1Qdy2bwvTtlQiN0+nToHflELyet0EDkXb30C1DpqyEtWldFqT8ucdOanmpfX5i50XHZzLTlSR/HHZvm99W6T9vb7fmbwomXn+fXSdshf0WzDrOpKqm2eWl4PIzfNBRM4U+PE2xkHEwH2bkYvv25K/N5VGEgAAJjbjQOJC3r9tmYK/aDsH6lQ0Nf640D97F5naffXySJdfzqW1vRO8viaFJCAwknl5qTxJ18zz1ZL5a1WSnbAPwcemROa/st+OTTsKZ1vaSafQ4O+Xt2S/sWvXc/GhabMbl7MGg/dtqPVdG3yMnI3QgMa8x4EJdugbAQCYFzPPSNjCPsg42GmCtPxETECQ2o7GpMN1X+G+2eCmYcKIA+7WAADMjRkHEkuSW21Jrfba1N8vW3tYMjV634QQ0g6bx0edW0hNbfzoOC+F+xPUxO06y0nzyKiW7hfS25IYvG9DabPOprs9dBzacXPkrAcAADM284zE2rMTqUhNij79nyo813flpNoOmhv8PK19H+akVvKv2z4KE2YP7DpLEu113mvzmxGCgO5tMVOcERi4bwAA3AKM/rlouGsDADBHrqCPBKbuuDm1X8kEAGASBBKLZn1X6tvu7hM6XQIArhtNG7cQTRsAgGkhIwEAADIjkAAAAJldatoAAAAYFX0kbiH6SAAApoWmDQAAkBmBBAAAyIxAAgAAZEYgAQAAMlvIQOLizXPZ3HwhZ3Ihr7/ZlM2Xo/xgtP9bO7jW8x6jeYqcvdR5ut7R2O3o995fX8tzP4hXZ3unw20nv2wJALh+CxlI6FDaofy9O/7RIEuy9W1DGo26lPwrM7Wck9RWbqzIKFs51McXUv5UkZNGQ/YfTzCsOgAAU7C4TRu2YF6S3Kp/PgVrzzTQ2JXs42p2y8uKiR66A5+JrebMngMAcP0WM5BY35XGt1u2MNXCP10zD5swzPTNa/PKEL4Zou/fh/PN1LNJIf6bZPk12W3sy9ayeRhsb0KHAzd/r00fAAAsqhvW2VKDiKLUVuvSaGh2wUzdBXgvy1uyr3972KPRQwOEUk1yh359vZoU7N80pRCN+H4TuPi+PWJTDgAAs3ezAomv76V5WpL6s+k1Tlx8aEpruy676/6Fbsdl2Sydy06cfRiVZilMUNJ3vd18xuNAqvSNAADMjRuWkbgGJsg4qbalPEoTyiR81qRqQgnu1gAAzIubFUgsP5DCRiRHUyxol+4XJH981PN20djS432pr9akONJtqF7GPhLacbP1+Yt/BgDA9bphGQm9xbMuuYNi0jGy0/nxTF7Y18oSSUtqJX3sf0/CF+qbe5HIqQkIwuU0E3CY83/vpl4ZgbVnJ1L5VDbzp/d7EQAAzDtG/1w0GvS8K0hjgn4gjP4JAJgW+kgsouMmWQ8AwFwgkFg067tS346k3KeJBQCAq0TTxi1E0wYAYFrISAAAgMwIJAAAQGY0bWDh0DQDAPODjAQAAMiMQAIAAGRGIAEAADIjkAAAAJkRSAzlxuiwP/5kx+Tw43NcCX3vq3y/gB+2XAcVu3jzfEpjiFzI6286Y5aMO2AZAGD+EEgMdUdWNvxDKye5Zf9wUWgANO4w58tmP/1Da2PFHInpKB02pNFoyO66fwEAsLAIJEaUu7tkYooVyfvnt0NeVkz0oEOXAwDQC78jMYGzl5vSfFgX2dOhyVVJ6o1dseNy+lE661KW8rGdaWvithauzQalmrTcy5Kvnsj+YxOoWNqcEa9P5aUS7cuW6DLnshOv364jeG6bDYpSO7VPRDYqcvJtTqLUurztejJ6qO5DvH3Je42UcfHbGaxrOLeN508ny0bwOxIAMD/ISEwo2juSlcil6nUwraNwIK3jsgk03LzGYUmiV6/lwgYATSn4ZRqNuuQOir6/gCucxaf+dV7JrmgYH0SsmkLdLmemb7dkyYQYu/69bWARz4sLfrMtR5+C1xujBhEAADgEEhPKV6tJ4bv2sCStz1/cE2UK71Jc817fdYX7l3Npbe8EBfaaFLZF2t9rZ86mROEyo/r6XpqnJamPnBnwtB/EaU2KmTp0+iBl3PcEANwoBBK3mg8GGlWRGndSAADGRyAxNRfy+lUkpYdDaujaYfP4qJMB0OaF47wU7vvOnKdNeW/naXNFd/+GtrTjebVOHwtZfiCFja5mlZBd77kEuZIuS7L1bUNOqnmXGRmJuy128+XkN4UCABYXgcSEWgdF/7sIRWk+OhneiXB5S/YPc1Ir+d9TKNUkd+j7Jph5VU0O2HnaKfFEKvGtp2beznYrmBf2n9BAwPW1iH+jIXW7p102knI8Ly787e9i+NfMVHxbkGrS6RMAgOG4a2MCesfD0b3wjgsMxl0bAHDTkJEAAACZEUjgykV7rimFjp0AsPho2sDCoWkDAOYHGQkAAJAZgQQAAMjsUtMGAADAqOgjcUPRjwAAcBVo2gAAAJkRSAAAgMwIJAAAQGYEEgAAIDMCiTl18eZ5eoAtAADmEHdtzKOvr+V56Vx2GrsyZFDyvrhrAwBwFchIzKuNFbnjHwIAMK8IJAAAQGYEEvPoy7m0VnOy5J8CADCvCCTmypm80A6W7wrSeJa1dwQAAFeHzpbz6OOLiYMJOlsCAK4CGYl5dGdF8p/acuGfAgAwrwgkAABAZgQSAAAgMwKJeXXalPdf/WMAAOYUgcQ8Wt6SalWkVuInsgEA8427Nm4o7toAAFwFMhIAACAzAgkAAJAZTRsAAMDK0ixORgIAAGRGIAEAADIjkAAAAJkRSAAAgMwIJG41N2z58zcXbsTRzefy+pp+TfPs5aZsfvNaLsJtmsj87NsisMdfh7A304uP/sXb7Otreb75wlxFN9GFvP4mPt/T+VxcvHnOj+ddgel/T04HgcStdkdWNvxDKye5Zf/wit25l/ePnNzdJf8oq0H7Fn6RTu/LdG7YwCnYvxG+4NeeNaTROJFK6phdjzCo0akT2KTPW/pLdNC8ftyXcbzM6MtNQM+NLQhmbdC+LcnWt3q+61Lyr1yfznm7dOxtMBdvf/ozagOXZN7gayFetnuZzVkGiv4zGG6XXteTXl/T/56cDgIJuItRhy73z6/Nas58xXUHAJPptW9nL4vSfHRivkj1y1Snfdm6pgBq2uyX5Z5IPdk3Mz1b83Pnn25/WerBuWnI7no876Bz3qKKyMFBUrgMmjdYXiqRfy+7XPEGZWS69y2aswyLBjtFOX/aK4A1wUCtKQW//Sc6ZEDNB2AmwDh4W5AT3S871SWX7JtbZ9/P93bn2qpvR3I0YcE+0Ib51pnFMZ/B9+SkCCRuNVczsV/Uy1uy39iVuMjR6PnFm6BGENaiUjWFzjwtBJ6bZWxNyLx25msAnSg8XUsKo/Olx/u+wAu2KeBqE+NkDvrt24W0P9kHvWXdt+7l4iyAfT2o+YTP9bFZ1+s+zQrdNfPh+38m0UFLSoed85jSZ9+Gcce+s1y8z5fOiV+/7oPd9lQmxJ37YYX0l88t/+gyvUb2H/sa2PIDKWy05PyLezpo3sjsciLt7ztHpR3s+6BzE89LXSd2is+9v/b3IpHTmhTj+ckx6qpFx+cmdY2YY/3Rn8MRz13Kxoopfobrt29W1zXUs4Yd/83QbVyTXVOgd3/WHf38dgKApfsFyZ+eiz2lyznJmWN4kFyHRxL5fXOPK1KNr4UhZlujL8hOtS3Nntd8r+9CvQZ6fMY1u+Gvk2Hfk9eFQAJ9RQdxjcDUGKQmUfyBsAVzHO2byH61M69lllmJ6lIyH/Ty5x1Tk8hL67N+/PVDcmTmxcudSOHtqLXGaTIfwIqreV76klSZ9s18LXxXk9xhZ7mRswBmXbW4Bn5YkuhVJ3Apf6r4WpersZUOh2ROvralLSUp2C+X4Isq/kIfsG+D2C+vZLlO7U9f79QUtQbpjoF+ua09qUj+uOkLUeNj037Bl4Z88a09M8f3uNy/kIp9fS/N03hfuwyaN4hdLi+F+3HhEknNnOfuc6NcU5CfTG2/HcxrHdRE/LXQqfW6QlPXI+Y4JLVpe53oZyNdi9ZzU4yDDHONNO+dmHW1pLZ3Ljvm/ZJCdSDz9zrwn14DJfNZrmyZq3+4vvumAUIpfZ0nwVvM/o3/3vh2tPcbxcWHprS2Cz5A1mOp3x/uM1zUc+TfSwPR/KMH9nEYACefc39t6aSZr1kXxHdMABReG06/78Ilya36ANgHkLrcxfdtyd8bJQS8PgQS6CtfrfqCSy/wsKaWjqbLx8G87R2/TF4qT4LC1H5JB19sm0Wpmeej1hpdYTalJoikQK2L7Om2hLWADPtmaNtlpOtK1cJHUZJ6HHRoE8yAAiKsKQ8XFFyJAfs2SKrPRdkUryZg8cdLz4st9Hw6OfliNsd4xxSicW3s7F0kpaejFCx+u4OC4lKwp/thC7RemZdB83rpKmyj8Brrf25SWRrzfq3wvG13Cii9LuJgs78vcm4Cn52gUF57aM7bp7YvgDrz8tXSiPulwqaNgjRLwzJaTr99c4X5gMJXC+mSCXSm9TmNmeuveJDrnAt7HceBlwmyP5n37ZH9cN8ZXc0mYdOGCSVG+7ymPzdjZYP0c9AdsA/4LtTrxX4mzePc6rm8N+dLg6N56QvRD4EExnb20hQmqbZGP2OYsCbmp1nXCAZzhZatVX/nvlCy7ltSa3/YHP/LpgeXyo1T4OaLZrV+ufbXTVO+QSHfLdu+mS/RPRMEJLXQ3h308huXC0wtDF0t/kyax+NmCFzqtjsT4L7Uy7bGf/naGTSvn6CwHbUANLXFgwNJ9T+49v5Fw4za3DPJvplr66TalvKE136KBrG2z08QGPrslmu+0OtEs4RNW+iOFrg56WBtkDi49dOYmRbNzrXfdQUsfb4Ll+7m7Oyzd+dSeLIi5x/OpP0pLyvznZAgkMC4XB+DJNVmvniOTM12qK52zXG5WtJoNapxddrlM+5baH3XfCnoF1uYWYgLd5f+798LoCNbU8maFDT9HXdKS8m4b7a5pPNFZtug3UPLNsGYut3+t1VbM0xlD9ZLUhHzpf/ySNpj1aQ7NK2bMNv8vF+gMGjetH05N+ewcxeQnqtRzqnVM+ukHefCjn/mOnkVJSn6qfDNNkMLpAH7ZoPb46OBn8EkQzV2Zu4y+5nvDiJi4TG016jjtrHrOuxDs2Su4+KMaRD36UiO4r5Zg74LzfUhnyPzqSnImvk7eduU85HvptMmE614XP1tywQSGJOpATwtScv3MdBUZqE6Sp3FRPWmdhP3TXDT1V/w5usjnaY0k71LwBbUWfct/gDHkxZo/svPpvjjNKb2UO9do+9mazG22SWYRvhy1vZt19Tgl9HOffbLctC+xduvKVZxTTTmb+yXcWr7tT26kKSK9Yu+k3I266+4be70bViSB4/M+kzA0ul3MEj3cTTvp73zfQ0wLtTi7bOTr/0Omjd1GiCZgr/s3+foXmWkc2r5Jp94WXdOXa06l3w2RsxADdWv2Sb+DGgzVfw3PkgftG9m2/cPc0FKvnc/lrVnvrlh6Oc7fd3F16YLAlzHYe2nkhyr+P1MsG4zH/HrtinL75tuo/brSK4DXXcQQHX1kRi5L9NE9LOXk5bZR2fId+FxJG0b8JuKwWpkjsBonWT1fbQJulNxuTqM/gnMIe05f3TvpFOYaI37Uhv+/LPBRhAMAJihXk1BY2L0T+BG6HGLalfKeTH421FH6mQJIDufZZowiMiKjAQwj2wGImx7106Bi5KN0JS1S1fnq0FWBcDcy5KRIJAAAAAWTRsAAOBKEUgAAIDMLjVtAAAAjIo+EgBunSztwAB6o2kDAABkRiABAAAyI5AAAACZEUgAAIDMCCRuNfezqnYgHP2N9kuja/pBdYYMfqTjQsSD97hROnUAGr/sFEYB1PW7bQi2FzfUsGsSwLwhkLjVdPhi/9CafCyHeDz9WDJs9QTu3EuPwJm7G/zksi1sukbPi/WdF49+GE/h/EHzHBcsxaMUqsujVobBV/z38dQJhLrfy0yjBl4D9jt5v0sB4IB9S9bnpx7bcXm/B23/gHnd72Wmzjqnf00CmC0CCbiC+c6KXB4wW4c3bkhj3JEbN3TY23hI2ymxQ2GnCxlbsL1akZPDy4M4D5p39lKH+Tb71XCTDkl85Av3QfMsUwgW3+aklCrsnFKwXHLMvr6WAx39Mn69ocNFR0Hhr2NoBMuNMKzx4H3Tob53zHZfPpv9980U+nawn3ieDgN9lM4E9N3vQds/YN5GJTgmDdld9697/a9JAPOGQOJWc4GC/RLXcfzDUePCWmOP2qltbvDzy8f+RbW+mxSia88alwds8uvt1ECHW3q87wuhYHvj1/sEOYPmaYYj2otr426EyjjLMWieK3DbUqmUZMW/MtSyqVGf1uTAByMXb44ksoFWdoP2TY95v2Ck/75pgBZJOckYRFI7DTMBGfY7swHXJIC5RCCB3jQgMDXF3jVbEzxIPalN1rf9jAVhC+JDkbINhI5kxdSaU8FJn3lao29Xq31H4Iz2OsFVJ1Bak11Twy+8LdrXNVuQDgJaUivFy822P0D/fXOFd92cVbsdmu0ICvDB+z1o+wfMM8FV0b5upiF9cADMNwIJjOlMmsd5qTzJWE/0AUpcOF8H2zQQp/IPc7awiwv+vvM+vrDBU+8hsX0TkA+sGoclE1TEBaf2FShK89GJmadNBqawTgpODTI6y51Uxbzf5T4P09J/v10fjzg4rK9qIe+3Y+B+D9r+AfP8NeAmc0zEvF+PrBeAxUAggVvmQt6/bUnp0Ne4TaGmWZfonRZk/ea9k9evIpFjX2M3gUHt1GcgetWm1wuS9F742JRooyJVWxBrwFGX0mlT3vfIPCzdL8ywT8CA/f76XpqnJan7JpG1Z6Zw34ik+dEEGGPs96Dt7z9vSR48oicEsMgIJDAmbU9vSfND3Ob/PN1HYpgMfSRmof19pxj88rnlHzmX5/0wnXHQWvSG71zZo6+C6wdRkAdxU8DpuXzxD+VrW9r+Ybez72rS2i64gn5G+u+32a4kuPki5yZgcIHP6Ps9aPv7z3N9NUoPR91rfzcIzSHA3GDQLvSkAULRfMGnbNddR76vr+V5yRQM/rWTe0dyINU+6e8uGkjsRbYwmrh5w68rRe8G0EJu0DxbGJUlmZu8rgbNi2lTQFHOn8b74J5rbd3qWqb7WHb2veu94uM7zIB9k0HnbdC+da0zXz3pcT6793vQ9g+Y1/Ve410L8bEuSX2CjpgM2gVMD4EEgIViAzO9pfZSgDc6AglgemjaALAYNBO2uTlxEAFgushIAHOmZ7NSbNTmDwxERgKYHgIJALcOgQQwPTRtAACAzAgkAABAZjRtADccaXwAs0RGAgAAZEYgAQAAMiOQAAAAmRFIAACAzAgkbjUdD2FTnr+5cOMfbMZDX0/I/wKhXe8UnL2MB2kKthcAMBcIJG41HcnTP7RykotHrJwjd+6lh5nO3Z3kx5FdMOKGxQ6mlzqM+OX5qaDFBlvxvNGDLv2lys5yL8w7dAyaBwCLgEACrmC+syLp4noCy1uy32iMNhroqFZzsnQp8MliTXaTYbHdVN8Wyd+7Y+bpyJJlaVdPkmGzC2+LbshzzbLstaUS+eWigjRLIxT8JvgoHuSkHr/foUg5HgJ70DwAWBAEErfakmx964dwtoV/Z1hmbU548TGsnQeFptbMTQ3eNjn4+bawNXq9Fgrnp9bpm0N6Lbv0eN+PLxFsb0ILf7NM1gLYvO/RcUl2bNDzRc5P48dqSR48ykv7e7PmL+fS2t6RrThjs/xAChttaQ/JSlx835Z8tdQZ7nq9IKXTc/NOg+cBwKIgkEBf0d6RrPgaeH07kqMwzX9clubDuCZdkuiVK8jXnulrJ1LpkTnQIKL8qSIncQ08CVxMwFI6l53k9brI3tWk+c++q4kkhblmPCJpJkHMmUQHLWl9NkW7ZmyOm0EwFUnttCXnQ0r9pbs5ab19nwQ5F2+OJBIXgAyaBwCLgkACfeWr1aQGvvaw5ArU2EZFSnFmYH1XGkOHdT6T5nFeKpUef/exaQrQSMpJRqI8RoHqshTD37+HVDZCmXVVKtLei7ejKSvVvGv2WN6SarXd2cZ3KyZYysuKtogMYo5NfbUmRb/cgRSkFPdFGTQPABYEgQTmgw6PnWQkdNrvNCPMxIW8roXZCM/374gzJrnPraRzp21iiec9y8n56WiFvsvSuGn/vkh7Y0Xi+GPQPABYBAQSGIEpdF9FUnqYKnLHtCaF7ZbUvuvRYGGbDco9+1QMl7GPhG2aCLMRl+kdFdoUk2ReEnGnzK4gxN/V0f/2VG3CqUnuaa/sSa95ft+4mwPAHCOQQF+tg6JL428WpfnopKuTYy9xwVc0hbT2sXAp+zhAWHt2IpVPZb/OoIDULID2s0iaFMw007sXXGCU6ujohbdjFj/vBE0m8b7pVJTzp6PelRJ2WHV9TjrHcdA8tSS5Vf2XfhMA5hejf6In7Rh5dO9kurdwYnya5dgTqQd31IyL0T8BzBIZCWAu+WzFhEEEAMwagQQwl+IfziKIADDfaNoAbjiaNgDMEhkJAACQGYEEAADI7FLTBgAAwKjoIwFgbPS7ABCjaQMAAGRGIAEAADIjkAAAAJkRSAAAgMwIJG419zPMdrRKO3Llc3ntB4fSsTb6j2I5Y19fy/NgxEvdFjeIV7C9k7Drd4OJuUG6btDomjd53wDMJQKJW+2OrGz4h1ZOcsv+4Ry5cy/vHzm5uxMOJLZs9tM/tDZWzJGIhaN86tQJrhbCwH0DgOkjkIArmO+sSLq4njOrOVm6FPhMIi8rpoRdupsqduXspRsyvWHHudBpX7bmMLgarPe+AcAs8DsS6EmbE5oP6yJ7ZYnsK6XOKJTaDPKuIHUpS/nYzpTSYUN21106vXjQci8a+Wo8FLk2SzRlpdqWmp/fmWdoSr5Uk86SwfsNpBmEotSkIiffbplgYxJuXRpI9Bo+vd++6esHUpDcQU2ijYrUHzWlbP4u2T87FLg7iip53e7zuezE+xk8vxOu0y6VPh56fuJj7+SlEl1d0MPvSACIkZFAX9HekaxErmZe347kKOybcFw2gYavtR+WJHqlfRhMLfjxflCbr5uCMAra6COpvS3Iic6LKiLxPFuANqXg30vnXU92ZEm2KrpdRdusof0MQoP2rXVggqSoLqXTmpQ/78hJNS+tz1/MHBOcvGqbQj5ertEzSOmlZYIIMQGaLhMefw1cyp9M4GTXdyKVDQ3kFjFzAuAmIJBAX/lqNSmc1h6WfMHomZp3ad0/Xt+VRpwNsJ024/4Fms1oSzvpY2BqzRX/d7Yt3827+NCU1vZOxoLQFP7fmgJ14myEt7wl+z5QkL2uPhKD9i3ZfrOPT8I8ypLkVltSK2XoJLpdt1kepf1EUse/S/v7CTugAkBGBBKYojN5sRfZZo641l7ycxbPmuyafTipitS+07xD9n1be+aWqcqBC0JednI0WSzdL0j+tCZFG9AUpbZaHznLAQDTRiCBEWh63hSiD4f0WPhqaui+o5+6eHPk2/cHs50Cj5u+mcAU2Km+EsP4uyzs7aHT9+Wz35KM+xayTSPabPOpHWxrnNUw+1Ebbb/PvqtJLglozPRseE+SDncL7ayOF4Dbh0ACfbV8XwGt9WoHxDjN3tfyluxsuzS+Llf8XLDt90Ot79o+AGX7Xtov47oyGb6QDaay1F1BnXXfutepfUGS5p1wnUU5fzrafq89qUjbNrsE08hZDn/ny+m59G8oAYDRcdcGsGD0jo2je913vGhn1dE6XNq7T7TT6wT9SrhrA0CMjASwUC6k/ck/jH05l9YoPyamAcfm5sRBBACEyEgAi8ZmIML+FFf7GxKKjASAGIEEgLERSACI0bQBAAAyI5AAAACZ0bQB4ErQHALcTGQkAABAZgQSAAAgMwIJAACQGYEEAADIjEDiVnPjQNjhre0Q2cGQ2TeZ/4XHFx/dz0Vvbr4wR2IynfX4QcQmHOFzFPpT2dPYdnUd2w/gZiCQuNX8AE6JEX5meShXEGkhPbeWzX76h9bGijkSk7EjmAby99waXQHtB9ay03QK/mnrt/0AMAyBBCR3d8nEFCuS989vBzckeHcBOhEbkCxJbtU/j23XkyG/T6ptKU8pmFh7puvclXEGER+o3/YDwAD8jgT60+aOvcg/ESkdNtxQ4t1jPWxU7CBQoqNKHnRGgHDCcSC0KaUs8Rrz1WAEy673Usn8QdtRE9l51JSyf1+3zBf7PhL/nbLrEKmPVPD67dQAQIcQn4AdafPzTrAezdjokOG9j6XbN/f+qe23f3cuO7r94TL+2KcG4Op3vAxtDikfu8c9l50hfkcCuJnISKA3Wxi1TRDgatI6JYXa8pbs+9d0qq/WJPpoaveP983zE6lsuMLLzY+DCC1Aj2QlWd+JFN4euD4ZWjAG73VSzdtafCeI0ADALxdVpL0X9OU4rcmRVJN5chCZMGBNSmYd0btOvf/sXWSCjNL0au+ZuRp/+/sL89gEDDY48PvWqIvsabbi8vZffGhKa7vgtj8+/oclOy9lwHnToEaHH49fPzEB2IH2jwGACRBIoCdX8Fb7jCjpOmnG7f5aw3UF4wBf30vztCW1UrxcUWrm+fkXP7/bp7YJPUzh9307HQAsP5DCRrhcSXbirIYtYF3GYenxjpSOm2ZL1Zk0j4O/G2pNdrWwnTAbMdTHpkTmv3JyLDVb05a2CZLS238h79+KVJ4M357+503X0ZLWQdG/16bNHrU+9zsBADAaAgmM7eylT/v7mm19288YRlPpfpl4srVlHxzEQUbxICf1iVPua1LYjuTI3pFiCuy4Nn/tLqT9yfdLUcFxdFOcwXHb39ROqxqESUEe9AzqxqHNTOF7mWnWwRKAG49AAj2tPSyZ2qs2E3RzBWHSq//razmK29ytMHUf0DslTmu9U+kfI6mthgVqpx+DdoZMbYf+7WlJCnEzywBrTyoibyN58ao9Um2+w2dcZnAL5NnLotSkIiXdfu3gelzue4eLbn/73Zlt1sg9HS2w6n/e9LyYYK322mZ6xqZNJuaY2FuFASBAZ0v0ZTsKBp0nk057qc58JalU26bGXO10nEx1IAw6W6ZeVyXf+dF1QKyd+peteF73dnSvz3dAdDO7+PWagnu8ToVT7mwZdkDtXmfqWBqpDpB9tr97GRUs1/e89TjOYUfMgeJzN8ExobMlcDMRSOD6acH4auVSAdp8FNzVkcm01oNpHEsCCeBmomkD1047VKZ9kXNTa076EWTlm0FG72SJXjTDoZ1jCcgA9EJGAnPgcso99RsT40qaUMLfsMB1IyMB3EwEEgCuBIEEcDPRtAEAADIjkAAAAJldatoAAAAYFX0kAOCWo/8KJkHTBgAAyIxAAgAAZEYgAQAAMiOQAAAAmRFI3GpulEs7oqMd3fG5vP7qZ82cvvdVvt9ozl7ezhEu3c9gvzBnRX9ldDojn+qx3PxGRxsNrrNFob+Oao/HHLDbsmlHie2cJ2B+EEjcandkZcM/tHKSW7Sfk9YAyBZWl9mCTIcD91O/4brHkW2d8xk0hXS49lAyTPwE7tzL+0dOOHbKLM5Nfy44mu17zJAOwe8fWhsr5pMLzA8CCbgv+Dsrkv7aX2xacytLXRqNRjKNNFx2X64wKn+qyMnU1jlnbAG1JLlV/3waVnNmjemAdfrn5jbIy4qJHroDPmAe8DsS6ElrjM2HdZG9skT2lZLUG7uypg81C/CuYIqCspSP7UwpHfrCIBkwy0kPvqU183h9yg+qJbrMuezE67frCJ7bQjwY1GvDFObf5iRKrcvbNgXUszW7/bawMo+76byje53tCp/33e9L25SmhWPxIN7rzn7b7fDHqCM4ll3HKzmOxuVlO4OQpeeNcG7u6Ps0pRAMYma3+W0hGL59AF3vXpTavqzstvc8N3p9NGWl2paaOZalw/g8hOegc6zcdeC3vc9+l75PnxcnPo7u/QqHImWzb5a/fuJrsOC3RaX23R+PWDxPj+mBFCR3ULv8uTHS10k4r3vguvRys8bvSGASZCTQV7R3JCuRqzHWtyM5Ctu4j8umwPU1ysOSRK9ey4X98tXCKq5p1s0XatGnlF0QIeYLN55Xsisaxn/BrgY1WFt4rMmuf29boMTzfOG09sys32yjps3HbZvvud9fzqU1IKW89Hi/s312vyPbjr32zD0v2cIrnh8XEOaY2OCks5zsufZvW2tPsh8nUjE1+tJhEERoQeyXOzGFXTls3ul1bpa3ZGe7Jc0P8V9dyPu3prB+OkIQMWWDz00ktc87Zp/y/jzosWtLW5uFzD7s+33Wqb5qCuuwuaLHfos9L/Hxi5ftBFP6fuVXK/4463YdBU1QbltSx1FftkGEmILery+qSHuv03TVMkFEfJ2nPjdmuWK8PrtOE8DEfVF0yPvwGr/CIAKYFIEE+spXq8kX7trDkrQ+f3FPlCm8S3HtbH3XFe5a2G7vBF/Sa1LYFml/b75IPzYlCpcZ1df30jw1tbMemYXBfKBhCpHC2+JY7fC99vvi+7Z7oR8tXHx7/6bNlPjCbxA9JlqQjbicPY6mKGt/MkHJk87xWLpfkPzpuSRnp9e5MQ/XnlRE3r53haEeVxnjfOh6zPGcNBvhDDo3wb6lriWlwWh8rFxGxh0Tr89+D2berxL/nV6vLTlPDmRw3WnTnz/Gei3kq6VOQb/8QAobwXLb9eQ4aT+R+HNz9i6ywU68/Taj8antzoeu386jIyUWD4EEbrgl2fpWa39BjTID2zYdFtYppoDzaX9Xm9Ra9Ig0lW6XiSdXW3bBQU2KttBxGZlOE1FGWuCJq8VffGiKPHpw5dmItPHOzdlLE2gFx6tugtRF07lG/BQHO0m2pSBNe87nu3MuECKQwAgu5PUrU1A+HJIVsLWqIDX89bUcHeelcN98VdoaXVPe23naXBH3QYjFNXEzrxa0g9vaXlezSiioKQ7SnVFIsisfX3T1QwgF+71ekorZjiQVHfpqtt3UbLUznLp4c9S1b9rZMKzper4W2itTcvZdTXJhoZNkZLQzZEtq33W2Q/+2tV3o1JD7MgX3U1Nov3sh0UFOdsYJTHzGZRZ3PgzN9liaiZHO3ST22nIPh3MdSFPZi17sOktSGJJ10aCy5ZuuLG2WOB2+nGYnIt901Z/L1tRTmZEh/Lm5jbctYz4QSKCv1oFLO2uNuPnoZHhaW2tVhzmplXzqtqSFoW+PNvOqVfHzinL+1LVbW779vjMvrNFrrdX1tXDbYqawP4BdNmgesAW9Bir+uZ/CToWa4ndpZDPv1YrUq+n7VXrvt26H2eZPQWraTLZgTW2/ea/Phc6+Wb4A34uX84WJPV7h62by+6bb2A5f18kHMWvP0tth+1KM2vSzXpDScWRq9qMEHrMw+Nz0545hcm5sR8jR7zOyzTrJeQ1r+53ztmn794zQN2F91/VL8du/udeWygjLaT8a7TPRacrqFP7aJyZ+TSftAzNyM5IGpOafVNMjcIW4awM9aYe+8M4GXK1Lxz/pyBp2FMyi0+l1Ov0dFpkeC+3QOekxvW4anLmgN+vnlbs2MAkyEsDccWn8FO3IOoUfDLPNLlk6vWIuuUzGZEEEMCkCCWDuLMlWJUzFm2nE9Hlfvh29eJCT+kh3M2ARxLcdE0TgOtG0AQC3HE0bmAQZCQAAkBmBBAAAyIymDQBYMDRFYJ6QkQAAAJkRSAAAgMwIJAAAQGYEEgAAIDMCiVvNDctsf+/f/mDRFYw4qD/1HL/nTE1/39yvCOo4GX68iF4DeHWz+3tTh4YOx82Y0rWj5yocS2XhXMNnCrhmBBK3mo5K6R9ak/8E85XrW/BMf9/sUOKBZCRKX3gkv0IZFySzdGUF7qB904HMdHTSMYZNn6Fk4Kvu4+KDV7f9XQW7Lew7+5YODrsHGPPLptbnps6oqDfgMwWMiUACkru7lIwgOHM64uUV/qTv1PdtY8UUFW5Y6rS8VCI/5Hfkft56FkNuX4/ufQuG0J4TOshZ8fOOnFwaEdQEAzUd7Mxt/4mOQFuLAw0TJO2J1HW/7KSjqsbD4GsA5cawcPN0Cgf3KnWW0xFcX6WDlyv9TAHXjEDiVnM1SjsKpC3g/VgOtsbVo+YW1/S6a2RBDVC/0F98DGuxnbS+zrtcg3PCean5+l5m/a8vLevfYy8SOa1J0c/r1Cj77FvCLz9K80RsfVca8VDkzwYEQ8sPpGBqpe3vO0VLOxgmOtz3fvuttevnb173OI7D9rurFh2es+Q4mnP70Z/D4NyNzAZTw/U9p6rrGuqdwYmvo+FNQ3o+Gj2HUtfroBMALN0vSP70XNyA25o9iKQcH7uPkdROXQYhHtysOmrAu5qz18Xw6w64eQgkcJn5AtzZbknzQ+fL/exdJPlHD9yXpc8qxDW1+mpNoqCQiPZMDTCetx3JkS8k7Je91vpSqV/HzfOTqfW2wxqeKTBrUnfzktrfmuz652K+8E/iZXsWJlfs63tpnualcD8uhEwBZWrL6e13Bu1366Bmh/vWeZ3jOGi/NYhI16L13BTjgtIcx+a9E7OultT2zmXHvF+nUB3E/H3JF/o6lHlltEG/+u6bBhGlmuT8vul0OSjTIMINd96YYmF88aEpre2CX58r9OtSdvv2asUcT/deXz63kus9aTIxUycYMgGIf21TsxrzcN0B14RAAj2tPamIvH3vC7UzaR6XZCf5so9rim4qH6dr3/lqKfni18JklGaM8Mt60xQyrVQBV+p8UWu6eKTCbxhfIE+tAOgqbKOuNHif7R+439t1V7M17tzLS+vzsL3+Iuen4Xkye/nQBByf2v48duaF52i4sGmjIM3SaB0I++2bK8w7+3aJzbQcyYp5z75/k8XHF2700+Scu+xN2QepNujqkf1wI2x2B8Bh04aYoOKmdqgFhiOQQG+anpemvNcC42NToqQWZ8KIl2Xz3GcI9At428/IytRQDw4k1Q6/eG3LQWGbaksfYBH32zbbtOR8WEwzyb5ppuUwZwKzKRbO2jRn+0ME2Q2bOeoEeWvPNFiIpPlx1MDNWy+YsKIt7RGCK+AmIpBAH0uy9TRnmzfO3rWl8qRTi2t/MsVmfMeCKTCOjt3DzL6cm/p8p3f72Xem9uoeDpc5Q5Ghj8S0TX2/XZt/3JRka9yvgiapafDNNivDOkkM2DfbT+E47tTYx/qunFTbUr7Uh8OftzH6dtjMSHcQkQgDAM3ouEduG8vpfh39aKA98t0ZcR8WMhi4OQgk0J+paeUOilKWnaCGrQFGSVrmdZeyPpfCpZ7yvcRfoEWpmS/raE8f+zbn9ZKtCcZtzkf3KqaGNyLbnyNor77OwGBcU99vbfOv23NmX9NjvVqfwh0y/Zpt4iausilI47/xzR6D9k372NiMg1+nmXp1ttQmBdfcEDal+Nsru4KouBmleGDClbgTqj0mZxLpa2Gfhvj9Lm1HWdrVk05HSe3X4a9Td92GAVSwvr5BSi/xHT9kMHBzMPongIWiQUPxbUFO/B00C6dXM8uYGP0T84SMBIDFoHd7bG4ucBDhMzgTBhHAvCEjAQALhowE5gkZCQAAkBmBBAAAyIxAAgAAZHapjwQAAMCo6GwJLAg62AGYRzRtAACAzAgkAABAZgQSAAAgMwIJAACQGYHEreZ+stcOYKS//58aHGnO2O3zg3xNyv/Usq7LDfbESIwAkBWBxK3mR1JMjDoU8ixoUJMhkNEAY4whpa1ls5/+obWxYo7EpOLRTXuPZAkANxWBBCR3d8nEFCsyymDg12Z9VxqNhhvieSrckNBLd1MhRUYaBBXl/OmJVFKBGQDcfPyOBPo6e7kp5WP/xMhXT2T/8ZJ9/eiee6zC53aI54OWfV3Fy7jCtikr1bbU/PxwfeH7OCU/QqLW9ItSO9XX8lKJ9mXLZk10fWWJ9GFouy6NZ2LnyWEQeIw1dLNft13XOGM0um1tPuocm2nidyQAzCMyEujJFu5iCtJGw071bT9jiKXH+8kyjUZdcgeRKZZjkdR0CGidF1VE/Ly1Z+5vSzZQiJeNC/wl2fo2nh9ak139u0Pz6kbFrVMnW/CvSamal+hd553P3kUmcCmNEEQAAMZBIIEezqR5bAr1JxmKXd8p0k2aMWhLO+n3YNZZ2TKhgWH7KYTzpmvp8Y6Ujps+iNH9KcnOyFkCH6SMlY0AgNuJQAJTdCYv9iIpHfrswKUswlVak8J2JEf2jpSmRNsFshEAMAMEEuhB7+ZoSfODu/tA+z1092Foff7iHnx80Zn3tS1t34lRXbw5utyHoS/3nud+tSPTTqKn59JrsbUnFZG3kbx41R4zu6J9JDZl8+X0bgp1t5lO6fZVAJgjBBLoYUm2KtqHoWgLv+LbglSCPhJaQOePy6754tWK1Kv+fo/lLdnZbkmt5Jo2ip/NciPfxWDe82lJor24WST+bQdfqNtmknjdwW2i9j0jKdu/MVNY+C8/kIJZKjL/fzDT21rjWz9dp9CWP25h0BDfHdL+nltDAdws3LWBkXTfqbEYZnsXxXjcnSCpO0nGxF0bAOYRGQncXB8jqZ2O08lyNjQI04zKJEEEAMwrAgncPP4nsDf32lKJRvndiNlyt7cSRAC4mWjaABYETRsA5hEZCQAAkBmBBAAAyIymDQAI0IQEjIeMBAAAyIxAAgAAZEYgAQAAMiOQAAAAmRFI3GpuHIvndoRMHf47GMNiVvyPRdn3TMRjVeg0+jbYgbCGDKzlflUyHrfDC4c677m8355vXptHk7PbYNcVHO+JDDtv093+K6X702+7/bWjY5i4QdC6ziuAa0EgcavpiJv+oZWT3EwHt+pnSba+vcJhx9d37S9NnsSDjY3MFdDjjuB55176fXJ3J/3J7nk5b0qDmisIQNWy2U//0NpYMUcCwHUjkIAr2HQ4bv98ppa3ZN8U4lc1iJb7eepxfybbBzbfbplHU7KaM+vqDgAm0/+8zWD754Ybpj4eTRXA9eN3JNCbppFLNWn5p7JRkRMtmOzrTSlE+7IV14I1Hf1qxc6XN8+leJAsJflqZ+RNTfGXj+1DKfUcwEprt0eyEq7bCJdT8bKa3j6QHSm8Ldvhu7WQqcTLhtsfb7s+Dujyxc870ngWhBm6L3uRe7xdT+bZvw32y3Hv9+CDmfe2ELzHeKOOunVLZ9sn0Wf7lR7H5r2KtA8GH5dLuq8Fv97u8+KUpB4HbuG2GKlz3rXO5DoJrqUlez3o8PHBOq8AvyMBjIeMBHrzmQNtAtCpvlqTSFP65vWd7ZY0P3Rasc/eRZJ/9MAWSEuP95NltKkidxAl7dguO3AilTFr5fGgV3aKTEH4qtOG3jooy/lTN++kKlL7zr9bvP2HYzaW9Gn2cPvltl0LRLc9ruBferwjpdOmvI/T+1/fS/O6Rh0d0mwTHWgQqNtu9kX8OR3i7Lua5JJ9NpMPTtx50eYoDaji+WEQISYA8K/redvzTSA+iAjXeTngckGEjpg6fkYJwFUikEAfrkNf3ClRa57t713xvfakIvL2vS/Mz6R5HBSaWoAky2ltsi3tCdvPXcc6v06txZ6eyxc/T2vHcS136X5B8p/avTvqzdSalEwQEwdXFx+aItXSyIWfC1KmkI0YQb5a9e+zJLnVzjlNn7d0h1Dt4xHtmdeHdGwNXXzfNu8VHIPlB1LYaMm5OXF6fFrBebvktCZFm5lixFRgERBIoKezlyYI0BS2rzHWt/0MpYWC+Br4x6b5u4IvMEzwsRcFNfYpdJ40tdcDm/b36zQ12yvpyzEmDWLEZl8u5P1bkcL9a8hGTMJnMuIpzBAkWaaHTRdozPpuEG1yOcxJrcRdGcAiIJBADxfS/mRqr/d8n3hTmB+l2sKXZOtpztbAz961pfLE1zu/tsXUQ21nOHXx5kg6LeQZfTmXVnBXgqbZu3sqxHSe+CaW2eiqxYdsk08kzZeR1FZ3xsouuIzLFd35MAkbbJjgMMwI2Q6kLtMQ0s6QraBZSz6a43JaksK6C7ryx0eD99e810m1LeWxghafRVvE216BBUYggR40UCiZgqDoaqClcyl0t7mvFyRn5pclKDR9/4layaXHi58LQX+I+LciirZjpE2Vm79xt1LGzSjaFBIv7wvW9ZJZRyRlO39Tju5V0lmO47J9Xaey1Ds16ThVr539bKrcPPYFTNxUYjtPxsv7tP2geco268THpavwX3tYkug4ktLD62vRH7b944vPWzxpv4Wwz4K7VuLzmfy2QxwIxMvtmYAz8stp/xWbcYiX6f3bGpoJ0b45xZGDLH9XTCrQATBr3LUBTEvSwZDOgddFA6n0HTTj464NYDxkJICpMDX3V1G6gyGujt4Jsrk5cRABYHxkJIAJJb+n0PW7DVhMZCSA8RBIAECAQAIYD00bAAAgMwIJAACQ2aWmDQAAgFHRRwIARkDfCaA3mjYAAEBmBBIAACAzAgkAAJAZgQQAAMiMQOJWc4Nl2QGT7CBXk45Aqeu7+lEs9Zclk8GiPDt41USDVV23aZ8bw/+MtA6U5gb3mt9hunud0276N8lgXwu0b8BNQyBxq/nREhOd4bqRFo+q2T31GrVyOmZwbpbNOvxDa2PFvMsNcZP3DZhzBBKQ3N0lU26tSNdA4Qtj7VlDGjMecVOHtG409H3qUjJHqhLp40Zn2PIZmf65ycuKKWGX7qaK3bmT7Zwuxr4BNw2/I4E+LuT1N0WpnfqnpviMh8fWlPLRvZOkEO08/yIvNptSOBQp70V2XmogK00/l2rScs+6Brnqer+Nih/FUV8/EHlakOaeXzaeF64v+XtHMwgHsiOFt2W/Ti3892XL1+p1m+1AWypcVpsR3hWkLuVkfumwIbvr7rFZ0uzjkawE69L3So866fal+cgck/vv5XlNZOdRU8oHbs/z1c6x6z4m6fcaxB8vSe93NrpP/c+bHqvmw7rIXlnc3M610Hf79fW++63vF69L9Vlf1zlVqfNmpI7ljPE7EkBvZCTQ28dIaqumMLG18HFqh5GUX63ISVx7Pz5K2vbPvqtJzhQ0yTq7g4jw/VIFSEtqr0Sqdt6JKTprEn00Ly9vyb6+dlhyf9aldVCW86dufSdVkdp3rtVcC34NfOL3OjGF3UHYRHFcNgWnm6frjl69NlvY39LjHSmdNuV93Ifh63tpnpZkJy7gTmtS/rzj1hdVRA4i335vCtTSuez47dDjJXvX1bbf/7ypaM8EGn4769uRHNnjNWT7++73muwmy+i5afv1GQPOqQ0iTIgXL1ff9jMAXCsCCfSm6XRToI7fac3U/CtxELAmhe2WnH+xT+TOvbwpkDYvd4L0BW99wBDcpafxOpdk69sRa+2mVh3/3dL9guQ/tU1AcCHv37ZMkFFM+jkUTY259dlvpDI14VK8/vXdrqCmlzUpmUCl+cEVhhcfmibqKQWBV7Bvyw+ksNGWthbSH5um+DYFeNLnQmvpft5Q7jgM37ZR9T9vKh/sjzY72CzA0O3vs982cIyX6XH8ezqT5rHZxif9rxEA14NAAr3FNcNGQZr2C3/yuwaSfgYPm64Q+WZwTX92On0ckmlAEDMKDVRcjVsDFZHC/RGLd21CCLej0WkyWQgZtv/izYFrkvHLnFQXtXcOAEUggSFcGrreVUNNapAfX6TarFO+vpaj45IUurMHWsvX9Pnpudi12NpqnC6fDW1WkUcPTI17SXKrLanVphzEmMBrZzuS5kttEtrpX5hqk5EU5IHO91kfvWVxfL5WP4tgrN956zbO9gf7/eVzS2Q157MfZxL5PhSD6V0srU7W583z/tddL/YW2lneZQPcXgQS6Kn7dkdtm46bCdaeVHyzh5n3akXqqRqlKaRLfrlSUwpR3Lcinc7WNLgcxvM0TV+XXNDcMFIB6QuHTe0geFqTYvdy8TaaSbc/7pS39sz1s7B/76dshXna2sOSRMeRlB52ZzeC9P+eSD1ujtCsj/bB0OaeeP61ZWn6nbcBhm5/7/1OXT/acbUa9Ifoe07NNVLRfhbuGil+3hkvk+HvfBnehAJgXNy1AUyLFoJaYIYdU+1dCNohcdTOqtfh8p0oE5u7/XYdeu2dNBnv8uCuDaA3MhLAVJiC6lWU6pSI+eCya5MFEQD6I5AAJqS3JWpBpbevUlDNn7iTL+cGmA2aNgBgBDRtAL2RkQAAAJkRSAAAgMxo2gBw7Wg2ABYXGQkAAJAZgQQAAMiMQAIAAGRGIAEAADIjkLjV9KeR/UBGdoyDHiN8xmMf2CkcUnyGg0bNM/3p5/iYTYH9MSt7DINzMQm/fTp2iPtFx3GHgb+ssx5/zruHgQdwqxFI3Go6oqJ/aOUklxprwRRue+1gyO15Hi/iMveLk/E0eoFqC84rKizv3EsPPJW7O+GvLy6bc+gfWhsr5iwrF6ikAj8NEruf9whmlu6m1ij5e26NAKAIJOAKLz86YsrXtrQvBRcxHbHTBBfxSJZzRoOB8qeKnNgAqCEn1baUp5E90REvp/1zy3ZI7e6gbhJ5WTFlfXcAoK/npSZRn5FOz96ZoPGwIvL2/eXjZAMSHYLdPwcAj9+RwGV25MaatPzTWL7qBz2yo1xG7sXtujSexXkKrfU2ZcUU2rUDt3SyjKGFe9G/rpJ5+n41kcJqTWrHbl7psJEMW26WtCM31k790w0TIPgAJr3Okh95U7ejezTLzmu57zal+bAuslcWtxd+uSH7rRmOcs/tM7qWHX3fBvH7LZ39zc7v/2FBmu9ysq/nTM/jqxW/bjP/m7aUvn0g7785EKlMcSTQEfA7EsDiIiOBy3ytuxFVTA1WC1lXq48DAlnf9bX8SzkMI5La24LLBJjl5SAyRZQTD57kprrkgnlyagpaMUGJzjssSfQqzh74wnTVz9MpLlRNQVj8vNN5/VCkrE0SPTMpWuNvyfkX9yza06DCLVffjuRI0/l+v+1+aYDk1xvv99ozfX4ile7MgQ0imlJImoB034q2n4LVd9+uwZ0HUvh01KMvTFPajx6Y47okDx6JND9c2xYCWDAEEpiyvFQqvqC37fWmUI8LLd8G7ybNBgTzNGCJMxvazHJ6LrbM//pemqfBvMDZu0jkuNxZp2ZJPrVHKqTz1WpS4157WJLWZx9hZPHlXFrbO0ENfk0K2yLt7+Mt6bNvQ82i+cis82lOat+FfUBMsPYqSvpnLN0v9G7eAIAeCCRwRc7khSnoNa0f19pLfs4kOuvzkxa63QGM9UXOT13fgVtvvSSVT81ONsgGa5ql8QGZNtGcNuV9d9YCAHogkMDVsM0NnYL84s2R758wxPIDKWz4pocuesdDtNfrbgzNCLRSte6zl2WJUlmDmKuNlx52Mh62k+KImQ1LswzHQXPB19dydJyXwv1J8wjarGMK9qnfYqvNF205etW2z37xoSmtoClHp5Pq6M0b7vZQd8spgNuHQAJjiwsO28kxbloYdrvk8pbsaOFecrXe4ufC5b4GPWl63/U5sO+jky9Ytc+F9m8ox6+bKb51ce3Zial1d5o97B0cQfNIK1lfUZqPTtKdH7XGLjUpptbpC3Xz99rpM66928JT+1Yc5pJ90xp97vBqOyuOa+nxjuROtWvo/yf/99tWKpBSGky1wj4sA8R3h3SacgDcJty1gVtH7744ute5mwST0jtCyiIj341yGXdtAIuLjASAzNyPfk0WRABYbAQSADJzt8QSRAC3GU0bAK4dTRvA4iIjAQAAMiOQAAAAmV1q2gAAABgVfSQAjI0+DQBiNG0AAIDMCCQAAEBmBBIAACAzAgkAAJAZgcStpmMk+EGpPr6Qzc3nnREsY/Z1PxjVZjjS5qxGppxzX1/L8/iYZWGX7xxH+xPT9hgG5wIAFgiBxK12R1ZSI3DmJJcasdIUbnttqUTx8NK7kh4jcn7FI5T2DoLmhw6FHsrdnXwgMTf+hZ+GjcoKABMikIArvO6sSLpIM762pX0puIjp8N4muPh2yzyaU9t1HwA13HDj08ie6JDhZn1THTl0NWeOYXdQl40GUGUJ9ts8I8sBYJb4HQlcpun3Uk1a/mksX/VDb2tzx17kXtTC+lmcp9D0fFNWqm2pHbilk2UMLeSK/nWVzNP3q4kUVmtSO3bzSqnRJLUZpSi1U/90oyInPoBJr7MkdZ81sa9/3ulsm91mSeZrrb3s3ytcn/27dwVbAMfz420Jl0lvn9F1zML9vnw8O9s5mN9vCbZvID3+R7IS7cuWDf70eVmicP+mhN+RABAjI4HLfK27EVUkbws9V7tNCsb1Xfv8pHoph2FEUntbkBO/vBxESZPC0uP9pKbcaNQlF8yTUxNExDXpw5JEr+LsgS9MVzu17CQLYgp9GyzErx+KlPuk8s/emcBnu5AEGUf3TpLlTh415SCstR+XpfkwXmdnW9xIlydS6c4c2EChKYWkCUj3rSgvPvaYZ4/pjIQZJH1fDSoOzfudnssX9xcAMHUEEpiyvFQqvqBfNoWaKdracQfOVMdNU1MO52nAEmcPtJklLvy+vpfmaTAvYIMDU+gn69Qsyae2D0CMYJ5N99t1XMj7ty1pmYI+nqcZjdbnoKg1NfhSnG3QoGlYbf7LubS2d3wWQK1JYVuk/f2FXHxods0bR8bmIz3OpXPZaezL1h3/GgDMCIEEroh23Ixsk0Bcay/5OZPorM9PYaEb9JHoNL8oE+wk2YNe8xeUDdwiKb9akZO46USDnI0VIZ4AMCsEErgaNu2elxVfol28OTJF3giWH0hhI5KjHh0G9Y6HaG/cuzGWJLfaklptiretagbl+Khz6+zX13J0nJfC/SVZupsTOW76bTTBVI++J/2Ne4uty4TkHz3wwZRZ/lUUPFfab2KcdQLAYAQSGJv2MYibBJLmg2G3GS5vyc62KcBLvjnhc+FyX4OeNL3v+hzETRFxIah9LuzdGPHrZhrlDoW1ZydSkZoUg+Vsf4aBfKG+6Tp9RnvBctqn5DCX7NumCRZyh77D4/pusI3aEXI6mZh+dN8Kb+NjVZTmo6DTp+XvDqHfBIAp4a4N4Jaxd7Roh9gJ7uTgrg0AMTISwG1h7+TYnDiIAIAQGQkAYyMjASBGRgIAAGRGIAEAADIjkAAAAJnRRwIAgDHQRyiNjAQAAMiMQAIAAGRGIAEAADIjkAAAAJkRSNxqbgAnOz6FHeL7eWfgqQVy9lLHlRh38K4+/K8/6hgabkyRyddrt8+ODxIc72H8dtgxM7oH2Bo079bTYzyla0H5oe+Hj8UyQ+Hw+8PGtEGa/azE18PN+L6bRwQSt5ofwCmRk5wONDV39Avgij70dijuwBSG4NZRSkO5u+kfp44HQUsVVjoQmA5vfthjiK9B84YJC6V5LZiSbbwcELigsde2u0Jic7MskQ6lfp2FhG7/NAO89V071P1JNX0dYVyL8n23eAgk4Ao2HQrbP180a89ModrYlTX/fHJuuHM7BPi0rOZk6dIXmbqQ929zUjdBQfRutoW6DVj22lKJ9Hj56dn0jto02G18tSInPYIknVeWerLtdfPMZXd0ZNaytKsnLrja1r/xo69Oyhfiu+v+ORbeon/fzSMCiVtNh+j2X5K2ltspjLXm9+JjXMvTKagdao3L1AbD2mFSmw7T7maK0/haCDx/89qtz9TWznwtPEnzd9WU4/W599BaZmcI8mRbhqT4U7XXYPvtvplt6b3smuzGhZAWIt2DW/ntHCfVrcOduwI7ON6xr++luVqQtfWClI6bl2rg06MBS0tK8fDmXeKsSDylml+6zmkqE9A1L3Vcus5pap192GPVc0CxM4kORCpPkitUmscirbfvL533/L3Rckh2n7uuG702OsFJvO3d2Q2dZ1772H0N+c/LXiRyGgxT74+Xfb/g2KWedx/jHtfzeHRbzDUfnoPkvfttv9fzs+jW99pfJ53vhvhzFR4vM42x/f0+p/2vySHbHx7LUs18c8T6f99hMgQS6CvaO5IVX3utb0dyFBYEx2VpPvS1Wq1NvzIfZP0Al5pSSGq8dckdFJPCpXXQNOurS8l8yZY/79hUbevzF/fFtSdSt8uYKapIe899ebtsg1nG1B86NWn/BTAgxa9fTmHt9aTalnLwZROZbXHbeSIVqUk0RmAwTRcfmpJ7qHuzJgVzjJsz244vcn7qMi292ALcHyt33qLkC/3su5rkDuN5ZkqyGKYwKZ3LTrCc7AUFy6t09mP/8eXwYGRf29KOU9G2oDDX5mFF8qfnZs9MAVGpiJhrTQvx7qajfpYe75hrsSnvkyBBg5O8FO7r8q7QcddeLyawfSVStfsWX0MahJrnej1uVOTE7/dIWZ/4WvZTfXUa12QkZc3u2HWa/Tg+CgKiXttvXh7wWdT11fzn1n036LEx5+WrFuxFaT46SW1/MQw4+7Cf00/BsQoK90HXZN/t7/4OMttP5mH2CCTQV75aTWqvaw9LrtCPmS/KUlyzjmvuX86ltb0T1Hi1cBRpf++L72SeCQqSmqUpcr5vm/cqdWoHyw+ksNGS8+DtxnMh7U/p91i6X/CFjtPZtyXJrQbbOMxUU92ulh0X7nqMZ9a8YQviAVK1UM0AaQHhZmkfj2jPvN5dMHxsmr/T/gi9ltPj6rJIo2QiRqbbaYOXfdkKgyJfENfN9Wa3daQ+EmtSqoo0P/jt0/1JXb+DlZ7GmZMemaaxxTV8N5WPx7gm+zKfgUq8jfpZTH+mem3/4M9i8JlKHScNUkuyEwSKei3Lp3YnS9CTC9w629hlwDWpem6/CczT30G4CgQSwHWxBXHQZKMp8Vk1b9hOpP2CM1OImfcuJVmHdC08qRk+bLrtDNPItj9CvJxOnaYTl01qSFUO3HIj1FD7stsf17B9rVUD11RnWB9AmtroiQkQat8Nfz8NMMU3j5y9M8fAZoeu3tlLU1AGx1IDottt8DWJ+UIggRFomnqEL1ntwBSmT7++lqMkVdyfdmpshWnLj5HUTA2nkNTwtJPiOBkKXxsOChJNz7e2C52aVla+ljROH4l+tODKawdBX3i4AmRWzRta+9bMQqcNOmGzFZ1mj4s3R6bI7sFmY8wXepzZsee7PPRY2EBEU8xDa6iDuOxW/tEDXwt112TnudKasWv++PK50zI+0PKW7Kxq84apHX8KsmyT0OMSZL9S4mNgPhsHB/E2agBk9i3u22E/N+7h1Nh1hp+p3oZ/FnvRz2fY9Nnr3PTisiQ9A75Rr8kutoN0Eoxr01vYRwKzQiCBvlra5mzTiq79c2jqVtPLh7lODdt8iHN9OvelmALK9mGw72Ume2dB2BFqSbaelnzKWidfGMapz7Bzm68trz07kcqnsv973w47V3cohO3xHbYZQfubDNi3Qfs9iBboqeOsk2YJtDDVL3R/3oqfC1JJ7i7R9u/g7zfLIodBHxXtH5OcFzMl25FO1W9qu3W/FHYo3DfNQATr1HNaeJu+Jl2/i/i9NP3tlrH9Y0Y832sP9Zo1+5WkylW4zvjYjNJcYtjjGTT5+EyM65Phz5c2zyR9e9z1nXzezLxCcKtn3OmwqIGHCdzCdQ4WZLtsv4HwM9XH0M9iL9q04PpD2WXMuamt1kfqE9P9OU0+2wOvyQHM9msw7rY/7seBWWP0T/SknaCO7sVf1MAC0I523+Vkf64CxuuigZAWpCME8hgbo3+mkZEAcDNonwn/EMDVIZAAcDNoHw6yEcCVo2kDAIAx0LSRRkYCAABkRiABAAAyu9S0AQAAMCr6SNxQtOEBAK4CTRsAACAzAgkAAJAZgQQAAMiMQAIAAGRGIDFn4gF6JhpyGQCAK8JdG3NJR1wsyvnTxvARN/vgrg0AwFUgIzGXliS36h8CADDHCCQAAEBmBBJz6s69vLS/v/DPAACYTwQSc2rp8b5U5UA2N5/L66/+RQAA5gydLeeU3r1xYEKJ/cdL/pXx0NkSAHAVyEjMqS+fW5K7my2IAADgqhBIAACAzAgkAABAZgQSc+lC2p/8QwAA5hiBxJxxP5FdlNpqPfOvWgIAcFW4a+OG4q4NAMBVICMBAAAyI5AAAACZ0bRxhWhuAADcNGQkAABAZgQSAAAgMwIJAACQGYEEAADIjEBiBGcvN2Vz003P31z4VwEAAIHECNaeNaTRaEh9278AAAAsAgkAAJAZgQQAAMiMQAIAAGRGIAEAADIjkAAAAJkRSAAAgMwIJAAAQGYEEgAAIDMCCQAAkBmBxAjin8guH/sXAACA9YNfG/6x9atf/co/wrT98Ic/9I8AALgZyEgAAIDMCCQAAEBml5o2AAAARnWr+0jQZwEAgMnQtAEAADIjkAAAAJkRSAAAgMwIJAAAQGYLGUhcvHluf2ly8+WZfwUAAFyHBb5r40Jef1OU86cN2V33L42JuzYAAJjMAjdtLElu1T8EAADXgj4SAAAgs4UOJO7cy0v7+wv/DAAAXLWFDiSWHu9LVQ5kc/O5vP7qXwQAAFdmoX8iW+/eODChxP7jJf/KeOhsCQDAZBY6I/Hlc0tyd7MFEQAAYHJ0tgQAAJkRSAAAgMwWOJC4kPYn/xAAAFyLhQwk3E9kF6W2Ws/8q5YAAGByC33XxqS4awMAgMnQRwIAAGRGIAEAADJbqKYNmiIAAJgvZCQAAEBmBBIAACAzAgkAAJAZgQQAAMhsSoHEmbzY3GQ4bwAAbpnp3rXx8YVsvlqRk2+3ZBZjcnLXBgAA82W6TRt3ViTvHwIAgJuPPhIAACCz6QYSyznJnZ7LF/8UAADcbFPOSKzJbqMgTe14+fLMvwYAAG6qKf9Ett690ZRCY9eEFNNHZ0sAAObLdDMSX9vS3liRO/5ph7899JvXcuFfAQAAi++KOlvekZUN8w/9JwAAuFGuKJBYkgeP8iI9sxUAAGBRTTeQ+HIuLf8w8fW1PN/clOLbwsx+qAoAAFyPKXW21D4QZYkkL5VoX7aW/ctTRmdLAADmy5Tv2pgtAgkAAObLFfWRAAAANxGBBAAAyOxS0wYAAMCoFqqPBDAr9L8BgGxo2gAAAJkRSAAAgMwIJAAAQGYEEgAAILMpBRJudM/nby5EPr6Qzc3n8vqrn7VAzl5umm1/YfYG3fTY2POr/M+ev/gocvHmOccMAG6xKQUSfnTPRE5yI/5Mti2IXt6uYsgFLOE044JYg7seQ7i7ICC9LUmwMMiyOb/+oTWlwdhS29PjmnDHrTtIvZDX33S2X4MbAMDVmWrTRu7ukokpViTvny+atWcNaTR2Zc0/n6V89cS8l77f1b1nt6XH+/b9T6rmjG3X7eP9x6MOq5aXFRM9LN1NhRSZaZBgB3aLj8mz9BHRIKMsJfNfSDNhRWk+6hzL3XU/CwBwJaYUSCzJ1rf+S3x5S/ZTBWO6xugmUwOPRwU9aIkcl5N5WiPWQuP5m9e2uURr0me+pjq0tmzXGdTuw+f62KzrdZANSGqvflvs66PU3H1tOZXuN3o9T5bpsd5u9n26/i61znA7zZTa/p775pqcNvcikdOaFP28UTNA4faXj/2L1prsNvzgbOu70uge1dU2b42THTiT5nFJ6v1GhzX7d3CQk/qzgn/B+9iUyARAowc/AIBpm3lny7OXRamtutpuo1E3NUodIdQEGjbgSNeGdYoLhdZBU1Yi8/emACx/3rF/1/r8xc7LzKyrJv69DksSvfKFtt8Wfa2bFu5hTdlu7wh0uaN7nZryyaOmHARBRuugmBTScdPG0uMds79NeZ+k7rWAzUvhvh4TExSUzmXHr0+PpewFQVPPfdMC3z2XjUrf2n4vGkSU4/WZqb7tZ8yCBgQbK9IOApdOQGYC0VpNcoeXszZn7yLJ32u7YMlOi9k3BwAW2cwDictacj5KPLC944cjN4HHk2kl/k2tNy5EtQnm9FwGb8qFvH/bktLTPjXlvtxyYbCgmZcwEOrdtLEmpapI84MvRG2N2x8HfWz+KyeFpg7b3pZ2UnCOu2+DuAAm83HXLIXZr7GaGUwgdP4wPh51yR0c2KDg4s2Bbbrot67WwbkU4uN4mJNabXjmBwAwPTMPJNYemtpw0nRRlrYpQG9HO7ZmXuKC0U8jZAKW7hdE3r63haHWuEsPg2WCzI2bfPPCTbBRkVJyXWjnXQ04zyTSACwJyDR4akmtZB775pl8tdTJVEwcQAEAxjXjQOJCXr9qpwrU7vZs21nvU3v8WqRvh7/cbyKupbuUeMu+ltWS5FZFone+AcG8p+3TEUiyDGZepx+BLmcKvCy14+Ut2VnV5o0zaX4KClctJE1AlumuhLELWFeQx5kRbaZJ95EYYtw+EuuFdJPO1/fSPC1JYd03zSRT3DRmHpugTIPUlg+61MWHprS2C5eaQAAAszPjQGJJtp7mXA3S1ijdlCr810tSkU5HwMuBwRi0EN72NdbNopw/1YJnBL7gS3VK9J0e156ZdcQZlT2RStBHYu1JxRbudt6rFamH856dpPZLp7Bg7dVHIrb2UI9ZWSRsUtF+HNr3Ya+zvlE6cFr2uATNIr42H3ciDTu8uuNvzlulIuK3sej7qMyOCRi0WSK+TkpNKWg/Gj+3r/Vdqa92jrHtyzJC1gcAMD0zHv1T79jQAj1oL9dC2xTI9Wu65XFStvOlKVhHaabA4mD0TwDIZsYZiS9yfuofehfft6f2A0YAAOB6zTgjYdgMROSfqNLCZiMUGYmbiYwEAGQz+0ACWAAEEgCQzTX8jgQAALgpCCQAAEBml5o2AAAARkVGAgAAZPaDX/ziF2QkAABAJjRtAACAzGjaAAAAmRFIAACAzAgkAABAZgQSAAAgMwIJAACQGYEEAADISOT/BwD2ToQ6R2HOAAAAAElFTkSuQmCC;" vertex="1" parent="WIyWlLk6GJQsqaUBKTNV-1">
          <mxGeometry x="827" y="1360" width="530" height="511" as="geometry" />
        </mxCell>
        <mxCell id="RJSyPKSbgOH2Nd9Ry6B4-14" value="" style="shape=image;verticalLabelPosition=bottom;labelBackgroundColor=default;verticalAlign=top;aspect=fixed;imageAspect=0;image=data:image/png,iVBORw0KGgoAAAANSUhEUgAAAdAAAAGyCAYAAABUYZVRAAAAAXNSR0IArs4c6QAAAARnQU1BAACxjwv8YQUAAAAJcEhZcwAADsMAAA7DAcdvqGQAAGAESURBVHhe7b29axvP98d7Pre7za8waQyxBW5FylhOsQTcJWUQiyGugxvhRoJv/oJ8QWqMmhBudVHALCa3SzqDUZHIKY24nUFywE0w/OpbfO4587A7u5JWq9Wz9H6FJZLGuzsPq3nPOTOa88///u///ksbxv/8z/+YVwAAAMB8WFsBhUgCAABYJv+H+R8AAAAAEwABBQAAAHIAAQUAAAByAAEFAAAAcrAkAe3S5+NjOj7+SN//mo8AAACANWIpq3C7X46ptXdFn97smE8mB6twAQAALJOluXALz/OLJwAAALBsMAcKAAAA5GAJAvpEvfsS7e+atwAAAMAaslABffrxkY6P60TVT/T2mfkQAAAAWEOWsIjoib7/Z3oRxSIiAAAAy2QJLtwdKhx0qP9o3gIAAABrCBYRAQAAADmAgAIAAAA5WJqABj+75hUAAACwfixFQIsfmuRfVrCVHwAAgLUFAbUBAACAHGAOFAAAAMgBBBQAAADIwT//MuY1AAAAADKytnOgAAAA1oNNXbMCFy4AAACQAwgoAAAAkAMIKAAAAJADCCgAAACQg40WUB1/9DN1VQi1Yzr+sqTtA/9+p4/Hx/T5zs3TdKxM2QAAa033C/cf//nOPUmXPnM/9fHHk0kB49hoAd15XjCvNKW9XfNqwTwrUCwnh/s0bU5Sy3b3mcWVvxT2SIirFl8t6JpBEVZfqqxCn3o//aXUX9AIlYc00TfXdL/M0RfdYr/wP9X/UXk0g3+fQA1sBsso50XXGpJ/MyCKlTnxN7r+okNdT8qUyI/8nS6juY97ZBgU2baMjqg8A2mxe5s2H5o2mlHtNpgPfeiyJe4lR8b7aYa0QfKZ40O3mX0m7F+ae6tz09LSGGyb5HPpvg9JPl8qz+O2Lx3yHKiDr5P23I34vqj3yfua69i/3d0rqf8thec75hUYx+a7cJVYSQxS835plGifNS4pfFMxrGzy5Tgnal5f07U9PhRNovBEv24K1LzwExv6+/yvbb7sXX4l78ejOs60+921qVdrUpWv+GuCfY+7P3tUvagS3fwKO7fihyu+ToPq5ovf/VKh4KRJn968ojMpz7nTWXE9tC59av73LdfQFAzL/7O39MmUtXnCLVu70uVW99KdcuW+Sle2Pvg4e2HOTaVE1SA6J95uKXAd2HOaJwFVXEEI05J1V6bGgXPeQYPKGQR7FDtvPplrNfm5icrx6U1U+/6F/kwdmdtF6rPC5RjyNB6OqONDnwoP5rn5+4v6B5IjQ1paKk7bBPxc1oPoWcsEC+M5P9PBJ3r7zHw0lCKdmfJc1ThnYfudUTH1uWMO+e9H5Kt0UqD+b932T7/7VDhJlPqgwNfYpf1D8x5kYrMF9MVZ+HAVPzhfZhEZ7mS+O1aCa70MtR7kC8CjwO9mpP35zo4UR434nc5cfSnMF8fJU4S51iQd2KiyPfapo18NhzuN9oFHxRce+ZdWMB+pf0vkvSJqK0upTfTKUynpdCmod7hj5C+3+SSJCKH3skhHr/na5gs8Hhbwe4+OXhyRFxPeHXpblc6rTJ+/fKaKCKQVGa4PJR6mDrvfGkQ1f2S+FEnPQIge7AgT51/q93YGwp2T4isWmts+t2gSPdDqPHCKHVw4Al18V6VS+DysDk8/6kroz/jZzMTfHvVon7y9vnpuRCz2X+2PT5uUibxIZhBwMU48p8Wj01pPf4cdnv70iPY82lcDBx5AP0gdmERGDX7Us8Dfr/9mHewBYXsXEd02eDxuRndivXyNRu0iSHrUxwePNnthWkCNh1M1MgzOW7QfyGibv5TSwd99pjKnheddUNiZLxQrJCLIQ1xTT7/bVHglX5Yiefx3sS8biyqxVdr9yV/FFzIaNWUbheqQfP5beeO4nsL7GiHkTmPnJV/bsSZTEavv9RF/nXdoQLh4FF6T+r8MBoRbR/lp8SCHxZUtwJpj/YxGlzFyTT5R716n5Mq/DGDSOld+7sq2nvioXJrPFR1q+DYtX6Si7s+ArRYeIJn3EVwWvpcvbT8sj2owMaa9pyQ4j8o93m3KsNDX64WY0Mdw6zJxvd2X+2xxdZVYHL3gsjmDirS00Tht47fJq2YfIPV4ENB+fbUQYdrl5zTqr1x26UgGDndsde8dUfF5QQ+mwFRsr4Byxx9+MXf3qeR8iWKWpN+gTphWouo7c87JaWw0qTouFaLNnHfO7+974zsJhXHbjOooJsQOAK5et3UHEwq5WIwUWldircTduEXy91rU2htjuQ3FlIEHI5anHy0KlGuIeZa0JkfBo/WvQTgPM0y4Hh+0jd37k6xdzn+NqFFncX2fpYOLXFaPLB/+fdwCy5N/NdpPI+F2FFecJnLdqbaTcviuFyMF57mryKDQfY7CNLGAlmtdTObC5eegwUIVjPBuiAcmrC/tno65oHmg5T1UqP9qyH3S0kbiunD5SfCzDnB40F1P9QnNFi7b6UGDgoQVKuy88ah/3icv08ASZGGLBXQEatRLsfmObHMkiQ5CjiW58Sx6XspYZfJlZ8sucEfSIvLithNL0lgkco47b5VKqtUic63ccYQdeJkat53xblDlAnWsFTWAcYSLLf2KuB9ZqDvcUMlOTAS3FFrFWWHr7MEj/7V1f3G5nuXLv5rjzmTRpKPLkRFnDnRgEGbStNfEdPqJAaNCeROk3Ob9srlj4eH6jj2rxuJ0p1s04qkwtSXWtRn0yEAyNmBIS5sEGUwddqifqZH5WeXvYEGmHYaI2jwQd3zPGRjLgFMPSGWQNnq6BUwOBDSJfMmcjkTm0rKMH2UlW2wRy0TkmAPNiuoYNWIlhwsPzCHu3vb/a/5gYsQNzJ1cY4jLyM4FOvdSiy/GuEHFxdxxBYEPsca0cHE9cUeqXLfKVT3i3pmReUHuCL/JnG9RiVaP60jmg/Pmn174VD2M5mLzop67oa7YfOy8OeWu3AwAlAAE1ApXbIq1l2HOeJHELEw+xLNhrPdB4TNz8WpqYgGoZyOaJx8PC5dMBdkBzLyR9r1vUSucipgO65Fb1ABgnYCAJrEdoLI6jqm1V+WOZzxiuYVzj+YYurR9zsQXMvEh8zVq5Z/MgZXIexm3LpXw/z939P+Z93HGj7JlJK9WcNr7iaXAo3xSQpgQALFY2YoI3Uuuy5uPz3fa6kt2hGLVder/N/1f/9Grbm0HquY8xSqZUqyCS5nz5Req4wkoYGv8/8yS/6HIQowrqt4ny2aSR+LMIfMx4IqdGu7EldUuqzQlj9oq0vfTK3Izex4G2s18PoaJ50DTMD/b0EcW9zQPJP/XvBxglBfFJTEHmlhN2wnrUo4hQikraC8K6hrzFyJu3/f8nZGBYBoZp5jsLwcGp0wAorEAAABIQQZ3082hIxoLAACArUL/pG/5C9BWFVigAAAA5gosUAAAAACEQEABAACAHEBAAQAAgBxgDhSADWNT55sAWDVggQIAAAA5gIACAAAAOYCAAgAAADmAgAIAAAA52GgB1fvCygbvEtD2eHCzdrOfZurelBJ8OwyOrfcrVXvcqnNnsDm0ur7OQ5RfsKmMfSYBAGvDRguo3QTZUtrLHD5hBFH8SM0Mwj+pkGAOsUDHppO1oh1jdFp8Q/nhgqy36EoMAMINugfPiV3T3Qg8tqk3H6EgxDdHH0xPI63c0XWTA5/x5TbnJjcyTym3ridzJPI+NC1ZH+aweZ39MwkAWBab78JVgiRhq8x7FxMyadI9HlVsPYmpaN5Pjw6NFO9cpbMvU//9FVVjoi2kpHEHXpYo/mEYKKJKQjBEaCrkx6LMKPH5uk9XTkDsELnmjRcGglaBuq1gxMJOObFHJfpH+Lk+JHj0eMFIKZuy1lu0H/B9zEchY8stolwhOomfmVZuXU9RaLUmv7OCPjItGYZL6sS0b0jaMwkAWBs2W0ClMzNBrSXsVhSuKbJwhrphjVtVpUtAZ/OxChP0XyO4Ep5oIDitue5EoZpEaExoJCe/VoCGi/votKc/PSq5cR1feOS7wZNVwHAWmg+e+UCjgm8PDQDOZfoakP/eptlA0+0Bay01KDPft3Xp0+nYkFkp5VZ1Hg8jZRlX7qcfdRWy6+yV+cAwutwSY5Ko+s5eUcLBEXVUPNC0tDhPP1oUnJxGeR75TAIA1o0tXUSkhVBbBwlEPFW8P2NBBNUZWprzR8XOdDpy1YGH8Q5ZDBsNKkhAapWahUfqh8GDrXUo9RbFUAxdmTzYGHVtCRA9z4DNqeUOBw0T3N0dDKgBFVu+F/wsiCinpamTLUmhBQBsElsqoKN5UoGUHYthIowwD7VoFgRbOG6A6zqxJWY6e7HC2q+vJnZZKx6t+3TQOhRLyror6XxwbjK79TkFI8stgwYZEE0yaHCQOU2/T6di+Sa9z2lpzID1CQDYKCCgG0gkaNf06SVRT825iTXUcSLnV9hCM1H2Uxf2yMIp/rtzIxTK6nIssBhF8mulROR6bfXO0/q0DC33XUCNW1NOKfd5QHSrhTZ19bVa3BVQReZHrav+sU8duWZamrwWlNUL6xOATQYCmkAt5Ann97r0OTYHOo48c6DzROe/oOYvk4t69OKWqriqU12bO3T0ukR04oUCKO7YjvM+Qou0WmRlUQI2Z+tzAKfcMufollsWCx1W1YKodEu8SJ4senp9ZLwJei5Yv09L0+g6mtz6VIuaxok7AGAl2NLN5GUuTywwFxETbWHJnF7l0n52Sn2ZEx1YMDQMEdAyNYg76KnduOZat+atwVeR4dPS3LJFZRpE/k5csiZd3JFinbmI0JhyRHXCnDRD0Y19PnA/nU9xG2dfLJO1bBZ7z4zllnKK5WjbJ7Xc8byUam45UtJkXlTNo4+q+xRMfuL3mgxsJg/AYkA0FgBWCj0QIDVgMB9NCAQUgMUAFy4AK4JezTydeAIAFgcsULBghrlhLWkuZ5AVWKAALAYIKAAbBgQUgMUAFy4AAACQAwgoAAAAkIN//mXMawAAAABkBHOgACTAHCIAIAtw4QIAAAA5gIACAAAAOYCAAgAAADmAgAIAAAA52GgB1ZEtPlNXbfzthO1SQZDl8+UgW7Z9/GHitai86OgbUX6nQ20JpyLCyK4/zr02gE0uGwBgvdhoAVWhyRxKe0OiHi8bFVvSwY0pmZPdvZJ5pYmHF/us42LaIzUW6OqRWjYAAFggm+/CVYK0Q4UD834lKdE+q2ZS8KfioMCllmDY5r0g1u45UdONj5kaC3RFGVY2AABYMNv5O1ARkgbR6es2Veo6XHYUf1HcvXWi9x61z00w7TA+ZHIjdJ/FSMcJFfdrnTwq1BsmPUoT4nEzE/Ej0zDxIXU8TPNZXtS1RECHxTYdVTb5vE37tR41uK78iybRufydTU/G74zKLWVu7UXljN4/xq4pDMbTTAQyd2KQzhv8DhQAkIXtXUR026DKw6m2woIqUT1gqbB0qPGVqKastCuqEovinXxepDPHertiAWg5c3AdFk8JRSVpzZMgTFPiSSwA5rzmifp48bw4U/mqiOtWzSO6pJUtoAbX1VWtRMG5BOFuskz2qPeXk+447SAq2/VQcR4Gn3fj0ZWcE6t/FmwWz4Kpx+sLXw9g1tFSBgBsNFu8CpctJdspPzsi79AIgsF/LxansENv/2utP7MYycwfltl66jw8qr9SsJVkrUSZq9NpXWpflqj6LqcAsOiJkMwqPmTxgxamK7a+y7E50LSyOfk/OY2HG9vdp9Jlhc+ZdPETX7Nq6ljNA8frP8Ztn5xaBgCAlWCLBXRynn7U2RZla0hZWmKlxRe0rBM7bz5xGdiSvGzRdxau3GV79pY+qXM8aivx/aiul58ieWyhB+dGzM97VA2yWrUAALA4IKCCuCHJo6MxgZwfHzpmAYvQpcDM36Uji1061P6t3aEyV+rOhY7FrJqVn7nMnL9s9ZmX+crmol3AzZMO9R1zMbRiuRyZyv33O7XuIyG/vp4swLb+KdCc6gsAABy2WEDNXKCycoiaapFQOsV3VeOulPNatF/zTUoaO/S2KnN8ZXVe2cwlLgMrLuHht8kLtEDlK9vgNWWu17qbY9f8uk/NLOVmi/b0oKHdy+GR3aq1K5l7f+IzvAAAMGsQjQWsFmoFbp9OncVI4SKsTAuJ9GpiWcyVd94Yq3ABAFmACxesFo/9+M9X6Il695RpEwwR2uMpxRMAALICCxSsHMridOdLF/gbUAEWKAAgCxBQABJAQAEAWYALFwAAAMgBBBQAAADIAVy4YK2BuxUAsCxggQIAAAA5gIACAAAAOYCAAgAAADmAgAIAAAA52GgB1fu0SpgtE6orDN01HXrHm0nDd41Atq471pufR/kFAACw6my0gNqNxS1ZtoNbOCoWpsPhPs0ql1ro4xuxxzd/d8U6Hg80+2BD9p6NzvvoBBhPTwMAgPVm8124SpB2qHBg3s8AHZR6ljEqS7TPqpkU/GkQoayQz/8c7j5TuV6gpg0VdkFU+c93lk4R2zI1DpomhNg1Nfns8YInoluhXu3KnHdF3k3ZhBJLSwMAgPVnswX0xRldmzBlInqf3piAZeI2ZeHoOtZYJBbS8bPVdqddqyrdiIx1t8Y+c3HT+XAFSFuDw86VOJom5qWT35A88UA5H3URyg+e+UDz9KdHpZofCf8Lj/zbPj1ybnr3Jaq+i4YExVd+FMtzJI/Uv/Xp1NYr5/zodcmEEktLAwCA9Wd7FxHdNqjycKqto0DidQaOO7NDja9ENWM5ValBgQjYs7f0ST67GBIrU8TTb1DhQs7RhxVssQZbe9YSu6ar122qz82dyQOAhuRj0EIWC7dz8ysU76cfLQqoR72/YqFHQb/VNb4GRPe98G+HI8HCA2qH4q4DcWvhTUsDAID1Z3sFlHy20IzEPDsi71CERL8V/PfWEtyht/8dHx7r6XebOidRMOmIJ/p1w8JhAmrLUZ5ESMQqZdHNGp7r6Ued2q+vhv89X6vpBKuuE1ugVKCCBNT+0KRCmMc60WseJBwU4tbwADpYeO/cWNbHbdqvlcxcc1oaAACsP1ssoIukRNUgskzVMZfwXMbKC4WwwhYmW9M+vzaLgvT8rT4+vSTqhYuWxJVs0z7REVummcTOWuXqOKPCQ4cKz43spqUBAMCaAwEV7gJqsDV2JPOQOdl56VHpshVb8arR7tFGY8icaRYmmgN1RVCOJluYRrwHBLtLn8XlHFraDmaxUTR/KcjcsIjy6J/ZqIVL91Xyh1i/Q9NM2bA6FwCwjmyxgAZUUVYaH+dEzeTinWGYDv/4PFBzqMoVahcEibV1UdDWnrmuFYbiBz2Pal2ncixnNar7s5IW7bOwhq5eWzY5vu7TVcZVxu7PYsoyp+zUY1qaYnef5Z0wLwoAWEu2MxqLWvDTp9OZ/hQFTI5YtWU1ZxuukJ4QRGMBACwLuHDBUtDW6XTiCQAAywQCCpbCzptPap4W4gkAWFcQUBusNXDhAgCWBSxQAAAAIAcQUAAAACAH//zLmNcAAAAAyAjmQAFYUTC/C8BqAxcuAAAAkAMIKAAAAJADCCgAAACQAwgoAAAAkIONFlC9XZxEDzGRRExIr02n+4XLqja515vHTx/txLmO2nT+45CoM1uG7KfMdSJBAaLnDACwTWy0gO48L5hXmpkEcxYBsRFYVpTdPYlxEjF9DM5d2j80LxU6CHeEifKy4vUyU55xHZiXijCuKgBgW9h8F67q2CQmp3m/LRwUuNRJ4ZsOJcQmBFmMuzb1ak2qUpt+bZVlWqJ9Vs3kQA0AsB1s8e9AdSitxq15e1ilKxOvUlyglUv9seBfSNxMsbIqFJjPQk6aYbBqceWV6x31ms+iZhguLXEvhU1Pz0f7VZPo3N5Xn7Mr97nxwr+z188a2UTnk6gafKK3UwQRt3S/fKTeu0909Psj1akWz4NY7BI/1aDrUr+O17NbX/G6LtWcciWulzVt5L3EFdsgOn3dpoppO3Xey1/00W+T59SRqrdYvc8X/A4UgNVmSwXUiNZBJH4jMR1szXaa0klLwOlkJyqf//Si6znvVedN9l4iDhLMWjrmQeFz/1Z3+lFnL+9be/K3j841OGHC+KazFVAuz3965Et9DKur897Q+6iy3UeDhQipE8mcPcd9n0xzGZ0Wr39TfiuEqu4k06YNnLqksL4lh7qt+u+dIORzBgIKwGqznatw//6i9i0LkxW7BNLBHsucnhzcuXZu+/Ro0kbR/cmWz2UlOk8sofsed7vD6FBfXfCR+pyPU2tBMcVXfuy8Us0PRbH4wYb/KpJfI2r/1n/19LvNAhD93Th0KLFhIjQ5Tz9aFCh3MfPsiDzHjSt1UqrVhtynS+3LElWrSfFkVNt0qOGbejwW69zWl7jiddrgwqhRaU/Uu+d7vYtqZ+elR6VYmzpt8OwtfTIDkeK7KtHNL90Wki+qkr8g8QQArD74GUsStkDqyjq7VvEqr4Pq4JzfCMQ9qc6xh7GulCiG4lqhHls701oxIgJUD1iKnujXDZH3ckCKFoDcu+OUTYudFfbciBvbrUc+bH3JIELe16iu7+msrE5Ly4UaEDQokJW2Mkh5fTQo+ACArWU7BVQ6xsOAWsN+3vHYZ/swWmXa/cYWqH6pkUU0QyxSWfkanA/7KcMTff8qbsxIDKy7Vq9udfMhf8tWW5aOmi2l05OA2l8CahycTmRNagt7Bj9FsZa8KZc6eMBhrTYZOHSUyCcpknfC1uK3IQInq1tvG1Qf1jYOyoqWwc0QKz+eZixT516qTU+8DBb7Dr1971Pw8zMF9ULMUzAWcV+ziE//EyIAwKqyxYuIEouCwsU7eq7LLuop1apUqPfJc+YX9dykeeMsIop9zoSLWNRcYLS4RYgWuCTykbheNAc3BHNdd2FOFmY1B6qu83Aa5lejy0MmT/pe0RAkymu8ngcW9ojrXH0u2LREXVHJKUNaWuJezkKt8fPH5rpOu2TClmHS8xwwBwrAaoNoLHNHd96xxSdK+CgSjLzM6joghfiAIDu63bOujB4GBBSA1QZzoHNHFgqZl4anPz22gqb94T130OLunWDxEJgctUiKLdZJFg9pF/l04gkAWH1ggS6CAReu467MQegqnsI9CMYQttl0bTUNsEABWG0goACsKBBQAFYbuHABAACAHEBAAQAAgBzAhQsAAGCubOp0BCxQAAAAIAcQUAAAACAHEFAAAAAgBxBQAAAAIAcbLaB6RxjZ4F22VZtBdI4JUPde4P0yIfuzqvrYNmQ7PrOxu2yQMJON9KUuj+mzRGoJn7NpMM+oRJEZyF9aWgomj+q8/3znq4B1RzZRGRWgQNL0M6Kfy6yo89Tz4XxPQCY2WkB3nhfMK01pb7rN8xaP7jiHfhnczlGOWXSQOa+5koOFGBL1xrxURNF2ciNRY8xLRWJrRrczk2N8h7ZDb/8rEW2a5JtPItLSUlCxTfm8i4nOys88nskVYKhoSVlXrHw6nN8VVWPP+ngkkpRL4Tm2n8zK5rtwVccmIa3M+42AR4p+mzwnRJqNPZobscz8BhXcmKbTXnPFUB2DhKMz76enRPusmvGBmh70VO7jMU0n24h+HZnDMwkWhwqKnxxognFstoC+OIuCWvPoLNzY24weu8r1pkfL0QhTOsCP9P3OGU07I824ZRF322lXnk5zQ3glR7ADI1rlVoyuG7kFdQiu4NymGffd3x719JmDKCvAyVfyPQ8oaEi5uz9lY/pRgb61a8eeE5bbWByqrGFQ7cGyhue5I3Zzbpgmh7ViE2lZ2kbdJ2YF6zxry09bcKpsyipL7m1rXKQTWRRFOrs24dKc5yyMkTpSPOJ1GXsOcpC0/jN7A5L175Zdnke+htt2Yy3otGeSiT0HzvXk888/TF6ce7rp0XmR+zqt3LFryhFrV9PW4TXlSHe/Jy20ECU6TKIu3boaVW51DudreB804vtmKDx/dNLT8x4x+rlT8XPVntrO9wRkYnsXEd02qCKxLGWkLEGgY4GfO9T4SlRTI+krqlKDAn7w5ctQoWY4wr6q9ahivpzyBS7feKHVcVXLaOeoTcvjAbflAVYPtXHHSAxNnWY6bBaBWo2o4U/yBTIMLfcT9e7TXDciFlH+pNwqCLhxEaqyysb2Jt0OVKROJJ5peN7rtgmUzV9m19oVF6PE6JQvsXQsMUumSYV62emUhrdN8V2VSpftqC7u2hNHUZkJEpB9ZKQd6bxbtB+W7Yq8m/r087F5sO5dczQPdD2G8ICo/cqkc/sEX8cMLsY8k9q9aA5+7nrO9YJ6n04lADrfU56X5glR7w+n8rPQilny2ePXBnX7DEXPiND9woPSA/usiktc4saODxbQeZAQ+iJCRsRV4H1BnmWJJ2vz2CRyAuunlVu+iy2qhWlRHzTi+2YIzqNnqHniBuQfxQo9dxvG9gqoRNmwkUyeHZF3yCNo54Hy31sLwo7KRGT4y/Yu+qrtvPSodNunR35Af910nHOyoy2/WuaOwaIFlr8MF0QVGVVmtp6GlXsw5Fqc+KhdLE7doaSh66TD4pfpPFWPjHRMJ6dOfRTJsx2qYbBt+CV34KfcmbRtR8n1mr09zBzjDFyOKlTdKJR1ygMAJTJyiIehQ/1xVTkX4haJRPdx61gGNOHgw7WwU0h7JpWFaO8ngcZtezNRSD6fTt3wbzLPzCJTnmThlCH6Tunpm1jZYoyv/9BFz1b2/kmB2r+da8lAjf+p8qpDgrpHfUlauWPlVQMaK+Tp3ze3vyi+8sd/F1fqudsstlhANwTp3BKj7MnRcx+jOpmnH3W+emQJZLau1ehenxMeSry1KIauaWWBTx8yTDoTbSl1qX3pk7cEV5TqbGOdZAKxtN364GMZLrPuF+7oHa+BWH0zI/lMsiVZr1P0LIi1qf9yDNYSE9NWPyuuezQP8oxE0w0V6o2cthjk6Xef6J1HhZtfamAQLkp06lEfxlLOWe7837cUVuS52zQgoMJdwA+sR0epVqCMZHkU9y1yTnW/8YjyxOOvuR7lBj9N2t3n2ByoEI4SOU3F8jSoEWTMfewybvRsSVqQdgTMI9kG51F9NoSw3GyBvZd8DHfrPD7wFex8D+c0SJRNicZ9L7Q2NKa+GkMs4zTXnCzyuWxF+ZC/vSyR9zKDbfjC526HLYIvLe4YJwk0bkb8ma34FCQPh2yRDJuHNBaVdmPPEFv3qsMe2doO2mUfCoCqY/1ydjjPpHJ3Riuf1fdGv8yI9hCIkMS+CznK/f1rfLokU8BzeSbv+bl62OfvCg/+Dvj1T+NpUM9rZbiw5yz3uO9bhJQnIP/VmCd9yufOWtHTDl42kS0WUMftck4piz4iih94VH0fLZZRKy2NO7T4oUm+Hdl+3acr56cDen4uSmu6I0oerau5VHNNOdwHVc6l0A1qXFmJRUcykqYL15Vp3TVl6r9P/vRhRLnFargoOG4ePoygxPJ/3KJ9FqcYSrjE1abPswsUVH05n8uhyiZ5PIh/HpZNXFluPtRcada5rx06es0lZDHIJLhzQTr7+HMih25TtqjUXFfk1o7mC61LVVyAtv2s63J02s6bU/KVm5M/k7k49ycr9jmRwOD2b1Sb2gGTyQef501r5aQ9k3ZQYdJae9XEMzmCxDVljUHNCF5quUci5U4843xkWsh1G1Bv70h9V4qvCvyMsTTKmgH1vPrOQj8+7EAsZ7nHfd+iaZEytV9bC9q6feMLD8c/d+OxLuzxA/ntYzujsfCI9aOa+J/ebQhyMKT+wwVadn42J+FirhnMZ4JNQ0RGBpWO+1JEWgaS6AtSkAGcMyDKAaKxADArwhWMloRLMTfa3ZVnMRfYBgYXy6lFXyNXTQP9M5zpxHOTgQVqPgKLRVmc7rybLMTIbX1qy0JcV/Jb1kzzWmA7URZnYN4IPqzPBbCpFigCagMAAJgrcOECAAAAIAQCCgAAAOTgn38Z8xoAAAAAGcEcKABAsanzVADMC7hwAQAAgBxAQAEAAIAcQEABAACAHEBAAQAAgBxstIDqKAKyabLZaHlYhIwZo7e+yr5Rc15mXza9YbnaWFtt4p0xBqO74fdM6leXZx6RHxbVNgrZ7crW5wxQeVeblDvtBABYKhstoGEgXMP0e60umtFiMvuy6ZigEVEYplhQYHU4IqRiP84oZuEUaHEcPDIJsQwCZhHKbI7s7sXrV0UCAQAslc134aqNonVczUVQ/CBxBhe0t+YcyqY6ZolxaN6HxIIvB9RaMQtI1zsfKmix7G+q37sbYC+0bSTMFd9/pvvyqhiRyYEOAGBZbLaAinVkwlpJ52k7M2WtxNyNcUsvac2EVoy45dhS6ToWWehKMy479XnSmnHTEulyr88/Bs/VVl88tl/MrTqibBZ9fkY3rEIHLVaCozr/dKHJZAGllFuI1/Nw16q1fqdyWY5sGxNn042XKYd9NnK0m02z58QtYLmf2ybR+9j1+P72Gvb8nTefzGb7TjsBAJbKVi4i0gFr21GH/fcXtW998kynFFozxqLpfXU6Xe5oW1QL06ge6OsYi+N6WGBfm2aO5kGDAqdjDept8lSUfB2AWtJUhynv2drwL+y5WQNLz4EwwK+O25mpA08ptwiECkgepg8Ktoiniu3J6VNZciPbpkhn9vNDJy82KkyOdhP086PbbhKCep9OxYLmum7tXbGljyDGAKwyWymg0jGengTUNh3e0+82Uc0PO/DYnJ/foM5tnx5NmoQ/OrWduepgs7gEjaVjBegy3jGWajUjjNodO4tOUwvwDAXXdeGyhGZbMDSq3F1qX5aoWh0dt1Os7vLDaWhlL4fFtlspfAadZwwAsLJsp4AyxVc+BT9FBJ7o1w2R99J0WH+/U71OVFWWBR9qTm06ul8qFMTmEE3CmiJ1R/c9xxU6nGnK7V+wBXdfWepq001rNwDAbNlaAaUXPnfQbeqK+/bgNLLUHvvUcVagdr+xBapf5uSJevfOKlkW6JYbSDqV/JbN5HOg2en+DMyCljTSyl0k76RDjW9pVqzM9TWpUC9nW0k7DbJoKuZlEKZptzQ61Dc3UgKtX06J+SnTon6iAwBQbK+Acgd99LpHFb9N3jvHCSvCehhQxbjtWntVGjKrOYj9PaS7IEUtLGEheO9Th4VApft98ib4yYfM15I9d06CmInEHKidJ7Tu7nKdhxn2b5R7N73cxQ/awrTXHN75F+lM5qBlEVUml/EIRraNwbj0bZtnyf9orJjFF4DpQUCRfL6G/ay115x4nnQ4diV2j3rLej4A2EIQjQWATUAGCedEzSl+poNoLABMxhZboABsAmah05TiCQCYHFigAAAFLFAAJgMWKAAAAJADCCgAAACQAwgoAAAAkAPMgYKVAXNwAIB1AhYoAAAAkAMIKAAAAJADCCgAAACQAwgoAAAAkIONFlC9T6vssWr2J51mP9W5YvIXC/acHxWMWV1L71KzzIgmAACwqWy0gO48L5hXmjCyxhJQYj6xgGthnTQaye5efNPzwvMZxJa0G7Ij4gcAACg234V7uE+7YbSKVUVCd13PNni0Cje2S/sziPahxP/rPl1dZIpLAwAAW8H2/g7073f66LuxPn29Gbf6vE+ndmPu2HtxiboxHM05/EpEpk4eFeoNk+5ebzCmaKl2RZ/esFyqKBrmihK82QkTpkKExShRNfhER7857cajq1BwxVItU/u1ueYY9LUlaPinKA5qFmYQ8SMN/A4UALBObOciIiVqbfICtvqu+QiqLE1ZKNKZ/L05rmo9ajnzix0WT7rQac2TQKc9e0uf1N/yHUQgzbmh0L04M9eK52DnzSf+/ErFi/TNNa+vteDtvDkl/7ZNv2zsRwkKfuvTaQbxBAAAMBu2UkCffrepc3I6mfWlsMGS9SEWYufh0aQxLJBnL/RLmYeMpc0UCcxM1P6txVvKQzU/s1WoxXlC6xMAAECM7bRAc/L0o04NqtKVsSKTVuMi2XnpEdUDtcL41w2R9xLWJwAALJKtFFC1OveybVaTdunzwBxlj3rKPcoWZyNKe3zgV2pxjtClYGCOcjTqnvc9vuIk6MVPvT9Dznr2lk5PAmp/CahxMJk1rRYFHX+k79YFPDUmqPOMfoYDAADrwHZaoC/O1BxlRbliK0Q1Zw5UCVOHGr6klan/vkl27WnxHf/dZcW4cFu0X5tgVeoLn23XBpWN+9f+NlOLmXYHk72283MXuSfVy+aecdErvvIpuAzIfzWPJT0O9icsarGTqbeYWJrVvrd9mpfTGgAAVg1EYxGSK2/XhTmvip0EtbI3tjJ4crAKFwCwTmAOdG15ou9fAypNsHhoLsjgQyzoKcUTAADWDQjoGqK26jsuU+Ogmel3n3PF/ExnpptAAADAGgAXLlgZ4MIFAKwTsEABAACAHEBAAQAAgBz88y9jXgMAAAAgI5gDBQBMBeauwbYCFy4AAACQAwgoAAAAkAMIKAAAAJADCCgAAACQg40WUL1R+2cV8kvF8XQ2aZ8XepcguaeD3Yxdjsx5kAgnYyKmmG307Mb0Gjdm6YjzTX4+35n302DyINeK6ns6ltFu+TD5S0Sh0c+APjLXsarHUXWXoU2HoqPkqOdDtfksI/AAADZaQFUIMYfS3q55tWBenC0wfugOvf2vxCuNoshkRjrZSUOSPStQrJYP92naWl6ZdstJ8YPU/xVVJULNTMjbpiZKTgi3FYKoAzAzNt+Fqzp0HVdzEejOc0HRUcw+tBPvh2sE/eyFeT81JdpnjUsK31QsuN3yYYRtxfcBLjzn3O3uRyH7AAAzYbMFVITCdG4ibK7QuG4219WmPo+5DLX7TKebwNHh4bjcjCtTfT6JFeeeN3AuWwyPw92/udyEI12BplwS7/M2ilmq76fTYvdQ7kBb9iKdXX/SAb2d+o4w157EDTuq3ZJuTve9vOa6+z60Xka125CyJa/pnue2TS63vHVPR9eMud950EBOetw1P5r4NZ36MQKvBkpqsLVm4foAWHG2dhGRthTNEVSp91V3jjpodjvqhP7+ovatT56y1kQsovOuaj1q2U7ORiW5mNBxas8zR/OgQUHYoQdU+bpPVyqtSf5lKxS9fG7CUa5AUy7J+2HV3I+PD9LdFsmvlSj4GXXL3Z8rEEZtGCz+DWrqvHNZAtOmo9ttsGxPv9vUOfF02dLaJqdbfufNp/B60g6FehA9a5z/ysOpTuNnkty0UbCQl+05clwQVSYZrAAAcrO1AhobtfsN6tz26VESuNM8PQmobTpK6VApFAvXgjumcr1DnQd11hTEraPKJVHvj7U8SlStWouuSN5Jh/rT3i4HO29OWbztoKJL7UufTjO7jY14KTGeNz417X3EZWnbNKXd4mV7ol83RNV3Nq9pbZMT13I9rvAQqUe90BPg5P/ZEXmHbtpwZDBDl5XomuJFuO+ZgQMAYJ5sp4D+/U71OneUgRm182jftSOKr9h6UVaJ7lC9l1osnn7U2cKJLLRZLArqfuFO9MRYTXw0T0zCSiHiHWir7a7N+TUW2pqQ3m66bGrAJN4G8ujILLSZfduwILPA+Rf6epMvChpOdD1zIDYrAAthOwX0sU8dZ0Vi9xtboPql5oVP1Xu2SqRDPTjV83vM4wP/1UHBdE5dCtiSmY4n6t07q0xZ2Fts5QxFpVlX8pyIWW1xxLVNNwF9/tpzLLQsGCtuZm5Fa5WxVdlItNsIxrWblK3HAybxNhTeW/GZoG2y8pfzbhZcCU8/WmyBjuAuYNGPxHwUu3slCs7dec9JMG0z6cprAIBiSzeTF5demRq3+l2pVqVCvU+es8hCXLxlZaWaBTKCLCoRd696U6JqrUCNB0+7J8U1J+4zF5lPZGtAFoaI2zCGWDYD57Fw13psBdXo05tH7tzExWfh+4V5ieffIpbI2QvpFN3zBHtuWpp+J4uTxFWpsHlUmHuKJTeRhWPuGbtWftz8+RdNonO2GaXdVNv06dS2ofs+rd0UI8o2sm12zPMxrE13U9omWb9VNVCjKtc/uXkUfGqGz2N6u8WuyZRqVxlXZtvnyL3X5GAzebCtIBoLyIjubNuvs3bOYB1QA4Ebb8JBURwIKNhWtnYREZgQcSmypZJ98RBYacQqPz6eWjwB2GZggYJ0Qvdn3NULgAUWKNhWIKAAgKmAgIJtBS5cAAAAIAcQUAAAACAHcOECABRwxQIwGbBAAQAAgBxAQAEAAIAcQEABAACAHEBAAQAAgBxstIDqkGWy0bZsQzf9hubqeouOtWh2jIkHV5a9Ud2A2OvHrNtGUEHG1cboUj/ZA1IvnKFtmkD9TbRJ/NqUDYAtYqMFdOd5wbzShJE1QALdKUdxKu2RN8rHeObRNhKZxKXwfHM2qNvksgGwrmy+C/dwn3ZphwoH5v268ewtfbq+nvMG7iboNR8qVmYYAzN/hI5MzKNtVNiyXdo/NO9Xkbxtug5lA2CL2N7fgSbCj4UhoNTer8PDYu3++Eh1OiXvpmLCVaWEAkvuHZu4nw1vpT7/6VGTKk6YrsHQV+HfK8RibJN3QVSx13TDhak8R6GxonPFXVoneu9R+9ykm5BrtitX0TkeTp1QX3KvCpF7f1UWUiGwiPPYfiVhxWy4rXhorFidJO6ViqmveLnzIWUa2W5SVw2i09dtqpjwZG44sFH5l89HlVvVoRPqbNT1BsqWaLdkXc4b/A4UgMnY0kVELCQSGDqIovhntQY69Qr131trjajxzTg5ufNr3XMHa653fZ0Uz/j9Yh3nZYU7Y5N24VPwVQc4Ln6Qz66oOtTiCKjydd/cr0n+ZcvMibLgKcE31+M0igVc7lDjK1FNpfG1qUHBnUkaSpF8tkqDn9EVuj8DFgU/7NiD8xbtm7I1TwJqmfk5EZLW3pXJB9cXi1R9SXN3I9tNuG1Qi2o6n0GVqB6o+hqX/1Hl3nnzKTxH6r9grieMbFMlnjwoss8I5yPutAUArBpbKqDiNmQh8XMsxmBLz4rfzkuPSvc9JXb0rEAF7ojLQxb3aMGpjY5kwpaNbwX1xRldZ7LS2Iqq2r8rknfSof4jv7xrs7SyuIbzmGIh9ajn5Ml/b8/bobf/HW/h7bw5ZYFuGxHoUvsyHtbMLVvxlU+dB8nIE/266bBwlcM5VbHKdFoGpB5YSKa1PkNGtZvCKY9yr4rVNz7/w8vNyIDJnDOs/ofx9LtNnZPT0c8IAGDl2FIBtZbANdsddd3RTb0K1M4jinmjO8/PqZbdHAnnMO0xbRgyEWhjYYlAn3ih9ZmOuErdfPARuobXgTz579Jn43rW5zRZngEAm8jWCqhFudvEXRazSKzF8ETfG+6cVJzutwbR66OEtaitOlmM0/ujr6isE8eNN3PEfcxWoScW1u4+lS4rMxfv4rsq0U1An8X1/W6UiIhrnMXjlaQbK7+h3dETY6y4eQxChrdbkkny75T7Lz87LLz7ZlHx048WW6DjUauSHSv/c2wudBwyty2DtvmtmgYADLKlAioLY6yLjQ+Ze7Lu0Gdv6fREu3ePj8vUf5+wIFic7HkVakZzpzG3nY70X7NpL85YUHuOWzWLMNhOsawWvgTnyfNsHvlQc2dmsYm4IGUe1fy9OtTvB6fk2RF5yjns0VHCmo3cnGVqv74KXaXFD3qOtWzzwcfSrPJR7ZbCuPwPLXfs+eHn4MFz5jtT2pSfEZlH1c+IzK1OYrnalczjXcUAgNmBaCwgI9L5a6FwxUdWlcpCm6yLsJbB4Mri6Vm5cquFanpldN5SYhUuAJOx9S5ckJG7gK2m+OIhsAoYb8qU4gkAmBwIKEhHfl6hOmj5GQ466NXDLl5D2wCwaODCBQAo4MIFYDJggQIAAAA5gIACAAAAOfjnX8a8BgAAAEBGMAcKAFg4mG8FmwBcuAAAAEAOIKAAAABADiCgAAAAQA4goAAAAEAONlpAZQ9UHaHCbOI9ELLMbu6tj1hs0DlGA1llZI/XmUX1MLsYSR1GbTEdKn9qc3y9hd1APNcVaDddh/pI5iMtbWWYQ7sBsIlstICqEFEOpT0TY8rw9KNOjYModuYqb4g+gN1izxzZA4OL8AwG/Z4LEmTcvFQc7lO8BSZnd69kXmkKz+fbZkpAJowVq2PNXjlRWCLS0uaCDCgmjcYzh3YDYBPZfBeu+vLbcE9xHh86A6Ia8uJMiaoNzbVa6HiRBSdoc6FenolFozv4We6rqmNjJgczU3FQ4Bbdpf1hIrTS7bZOzKHdANgwtvJ3oOJGq1yaNyG+iWahw3ZJvEbpRKrBJ3pr4l+KNVInj8WqYYIk23MEsewqTvDkKE3u196rUo/PU0GSD6t09V8Tf1RQoaicM1kYtQDEr1mq6fBZko9keK7ws3c9+tggOn3dpkpdh2S256WWWyxaG8Q5mT8mfu4EZUvDlDsq7zTkbbdk2cy55NSHg61L5QFw0wfKrfPTfz+sbINpsXo8aVKTKipPYd0k7mc/H1225PNo4Gvr58atLyFeJ/MGvwMFm8BWLiLSVtY1NU90h6itONt57NDb/2qrblhA4w53VGQsPwmA3ApdpzYqhj4kgHaURhTUJei1pOkgzYG1FpWISKST6FzdqUoHJ4GV7edX5N3Ulet1mOWsLIX7Hp/F3DaoImIq5wVVonrA3aktt5RLRMJe15RbAnHL+4vBUiuB4S7d5k8FB3fcgiPLtlBythsLU+uexc+U7fraCK+pj6taSYuOSQ/d/La+zNE8mL7cQb1Pp9xepcuKijUqz2fvj+RTPA6cFt6vSXQezUsOL5t5HqU9RdztuXbQJeHpnOkLRHMBYHKwCndSuDO1VoPMx3UeHvUbJXjRnGSZrb8oTYS6Ziwi7U7WHSN3jT8DJ83h7y9q33ao4dtrirXQoX50yRTYmrAd5bMj8g571Ms95/lEvXsW3HdR97rz0qPSbZ9sVkaVbSyLdLeOajeZ7+MBR3nieWGx8KL2Fmsxc7lHUKr5RsQScVfv2mxJBlQJ7yeWpdOmI5/JFHb3lVBjgRAA+YGAzgi1IIntLzvSV5bLtLiWgzmkoxzWST796Zm5QTAZ1nNQI2pogcoyl9z9wiLmWKZiLc4V5176iFzUuQgtaI/aSpQXtLAMgA0CAjojxK0aCViXAjP/OI7iK586xsUaw1hG9SGra5UFeNmKOry/36lep5iVGCKuOvLoKOxsZfFNVktWEKuSLeFvUQ6732Sezpve5bcCPzmJ0C5gGfi4lmTMNR4iVjlbjNaNLm7ggbnlGWKsxVz1JOc63oJB9ACieTLBM2HaLfvKbwA2EwjoANY1J24y60IdPzovvtNzV9rF1qL92rCZuCG8ONNziuo8feiOkjs2NX9ZDj8P3W1iPVwUIveuWpHrWiSOu++cqBlb3MJC8d6n4Nyk22uaTlEtZlIuTX5t5jmLH66oem/LdkwVmTN0FjCtBvnaLSy3Oco3HtVc9+kLX83rqvrgQ4uGrsOObRu/T17ocbCufL1Ax9azbtO0tBRUe7ttxkfWn6bwuacnzvNgfpIji4/Ca/Ehc9yZXekiyvxfJlcxABsMorFsGmq1piw4waIQMC/0Ct72a7MiOQdYhQs2AVigAIDMaMt1OvEEYFOAgAIAMrPz5pNaxATxBAAuXADAEoALF2wCsEABAACAHEBAAQAAgBzAhQtAArgXAQBZgAUKAAAA5AACCgAAAOQAAgoAAADkAAIKAAAA5GCjBVTvmiJ7vZo9SM0+oBHxEGSxzbFXaqPzxSGxP6cJcSXnh/Uo2wqaOozaAgAANoONFlAVScMhGYRahSBzggqvz+4q8ViUA+K/KkhEGfNScbhP8RbIgRFlXW6E4AIALI/Nd+GqTlsHek4iIciSohqyyGDPuShRNTCxIU3UlllYy8UPcs1ZbkRfon2u4uRgJh88cPDb5IXl9qjtw6oFACyHrfwdqLgZKwPxG31qKuHQkSYk3JQWqShMmLgh6+RRod6gQH1izxHEKpRQWpYoTe7X3qtSj89TUUIlULYbYkzcxRJGzOBfWOGOX7NUsxt4y+ct2g/zloiOoSKymHsx0fXk7+pE71l4zhN5cc9J5o+J15lb7mSam88xmHJH+UtH6r/8cErXJpSael/vZD4/K/gdKAAgC1u5iEhbWRJEWHf2ypoJBUEHVr6+brJMDNJhESTusPX5AbVC16kOTKyvJYGZe04aUVC3ltOVii8ZWGtRiUgvsib5iMRORNJ+fkXeTX24y/LvL2rflsh7acRVhTOz5zWJzl0rrUONr0Q1c80wLxJzUj67GCy1EkiKXN0qfqmJR5lMkzqdF67HQO4rYir3cwNgAwDAosAq3Ek5iQIP7+6VnKDC8QVJYhm5AYdLtZqxFrU72Xb63Z+Bk+agRNEGhpZDrOIO9cNLOmnKrWms0bs2W6xOAGVlwfao5wiv/95al3qwkG69PVHvni3xd9be5LNeelS67dMjy3L7Mp42Ebnc5I+qnlt7PPBZuaDeAIBtAgI6I9SCJLbnrkIrTWL2T4m4Us317BGJjTMHeh25mRUs8u45A+lrihqw1CvUf28XfIm4ExWeZ3AXAwDAjIGAzghxL9JBwVh2XQrYAs1C8ZXPohA4LlaDrGC9bVB90tW1u/tUuqzM8Oc3YjGztfstymH3W4M6Jx4VaZf2DzvU/q3zKHOSg3PLKUz4UyFl+ZJPnh1E3AVslTvvGf1zme37+REAYPFAQAeQBTrW9WndpON/LlF8V1XCpd2mLdqvDZtBHcKLMz2nqM7Th+78i3RmVtfazzP9jlLmMi98Cs6j6x2b+cpUjJipxUws3GXnvOKHK6re27IdU+WeLWPlPt2ht9UojzInORPLexSqbBTV1TnFFjMJdrUv5kUBAPMG0VjAhqFXLstCr8nmViOwChcAkAVYoGBjkJW54jmYRjwBACArsEABSAALFACQBVigAAAAQA4goAAAAEAOIKAAAABADv75lzGvAQAAAJARLCICAGw8WBgG5gFcuAAAAEAOIKAAAABADiCgAAAAQA4goAAAAEAONlpAdWQO2YDdxOr8MnYr9tXj73f6eHxMHyeNyjICtd2d2iReb5o/9XVN/mQD/Ki+l4DKx5LuzUi9TleXbjzZ8cELZoc8B8urN2HmzyQAC2KjBdRG5rCU9nbNq9VCCc+CxF1iarpMHUtTwq6Zl4rDfVK1LNFdBqLAiEhkEQctJtsVkkwHN7++blLGOD4RNpJOUgjDz6MjqlM36pAEYM8o2mbAZK/nip3ei9g9bH7iwebV4TwbM38mAVgQm+/CVR26xLQ079cNCeF1bQNIzwgVt1RieZr3U1OifVbN5IAFzB81+Pq6T1cXI2Q3EZRdb7IvglahXu2KruU8FYA9S9B1Fl2/QYULe70mFerl2ECnJNcM7xcPNeeH5/Hx37f8DDrM/JkEYP5stoC+OAu/qMUPjgjJKJpHwF0TfFmOaCRtrKQ7Z6TtjJbjo2w7wtZusO/mep/v7Oh+xAjcXs+M5ssSfDuMJRrlxb3XgDU2yhIwZfs+4tydN5/o2sbyZIsnHrXE5NMp73iKdGY7X6e+VWBv+X8Atlj5b23g62T+9edlatySE9PUtY5G1KWh51zXLXf8fnFLLd6m2d2n7nnxQOK2/fXhWmmjyp0X1Z5JMZqQrJ6Zpx8tClhso2emSH6tRMHPmN07MenPJACry/YuIrptUOXhVI+GVeDqwOlUO9T4SlRTo+UrqlKDAu6MpcOskIzW9ShaBcIOO/CAGiagdHDeov1AXHE96v2VDr9M7dfRyLx50KCyuGyNdamCUCsrQKdboRfRV/dPjspFJP02eYH++wFLgMvWsPmU4NpfJxHEGXLbp0f+T+pNC8Uj9VkYBdVpmvLq/Ov615/rMkcWi7WOdF02DqK6iouHbgP1uVvuu88q2Hd4jgTlti5zrsuWBAi3aZksscFnoXliElQepf3t9a7Iu6mHojyq3HPDBkeXI3xWnUDo50Fml+njQ2dAbJXX4b4XPl8dNwB8YnATC/K+jusRAEiwvQLK8tZUo17m2RF5hyJ2+q3gv7cdsx0VP1HvvkTVd5FTauelRyUjEuLGDNNOTp1OWETDp1PHBVt85cc6nYl57FMndo8iedyB9/7YKzplE0swzOM4zDzclBaNIpwb5Xrb86lw8yte3tj8nMzDxet/KH9/UZvrMizbAMPL3f0ZxCx8EY2w/iWfSmSyW55iYbYv489CiMojD8B8WzaxpjvUtw2Qp9x5EY9AKNZ6IKgGboIZvInwa2GbpPyjiblwE89RzIU7sg0BWB+2WEDBQmBB6bOweQdt+iUdtJqT7tJnFrGoQ82xcGZCYp23HGHnLi5o+axG1NDCNuAun5TEvKMc2i25+HJH7NDR66RT3QwK2Vq+kuJ/S7cKZbFP5yE+FHv60zPzlwBsHxBQ4S7gsblHR6muO1mIxJaF08l0vzXYEvRiCyUGkYURAbXCua4n+v41oNLro7DTSbrBxiLW1WUrshjEDckWkfdy2m7MzC9ONAc6Cil3j9rf+rTP+Sq+KvDrNttbzF+2uszCI0HNremXBr3oK7KoDcpT4NZlNqTjD84TK1QH0Na3uNMH7juAlK1D7d/672ReM5wDNRZtfVgex5Z7nnQpqHfIf+U+reId0XPS4p4dh/K4JJ67ep2GW+IzwzyTiXlrAFaBLRZQWbqvLY7jc6JmBrdl8cMVVe8jV2BF5s7GuqKkY9ZzlPo8PYcXW1X7wtfuNXNdPV9oO474ghplHYn77aIQuQnVyshsc3eLpUPB/b4emLzwqHAZUEesFc7/6Unk5iw/eAPzvMV3Zo5O1Yl1Lybrko8MYi/zjs0Tp735CBfvJH7qUb7xqDZ2xTPnw84hyjlm7lvDFq2aU3fyaDv/1HLbhUfi1rV/k8GtavMvbmn7TNs6SbiLiS3f0BIO76XPUfO5457lpTx3dgX9HF3dAORkO6OxqEU4fTpNLLMHYKuQ78G3An1a9flIGQjIIHeK7yuisYB5ABcuANuKLEYzL1cTYylPKZ4AzAtYoOYjAMDmAgsUzAME1AYAbDwQUDAP4MIFAAAAcgABBQAAAHIAFy4AGwbclQAsBligAAAAQA4goAAAAEAOIKAAAABADiCgAAAAQA42WkB18GLZh9TsKxvGILT7zMoxYr9Rs4/o1JE5BNm4wVwrytN0jC7b/FH3Xko8xwW3m8LccyYb7C+33QAAs2WjBVRFOXGIggGbuJezDiclnfewjjaMjWlQIb2mY3TZ1gUtIJMJ3YLbbQ6sf7sBACyb78JVYmUjOkyACUaso1fMAh3GKtmBTkXesm0yM283I9qzCDJuQbsBsBFs+e9AZbPqFu0HbkgmsYx0CDERvWosjc/4chzFfgzT5ToSGirBSYYQUQpzfua/T0HcxQ2i09dtqtT1VuGl2pUJnyZlqxO996h93tAbiUvwZyMO8bL5sQ28xfVYNtdTmLzKOa09e319Dfe9jqQR1YwEk/b/JK6lGKzr0Syo3dy8J9pGrtfeq1KvPliPeq9l87llFm2bEfwOFIDFgEVEA6S4CbljbEkMULZwxMq5vraddJHO5P0FnyEdqU1fUIc5wG2DKg+nOg8qNmXAkmPpUOMrUU3l8UrFIQ3ujMBITEiT96tajyrGranE88YLyxXFvhyDEqAei5U+Tw6xDCU+p7r3oRZUnZZVPEcxh3Yz1uyo8gb1NnmqbFE9KnFXcTLNtey1l/UsAADmBgR0EmQuk8WpnCXQ8USYjnxmnSxbj/Zaz47IO4wHI/bfW3ekFp2zF0/Uu2er7F10/52XHpVu+/TIEvrrpuOck53uz4Ct39qUwjgD5tRuUdm0O7b3Z8QsqqpHAMCmAQGdCCN01zWihl4NOrvVnmB+LLLdiuSdsHV6ru+jLXCEzQNgE4GA5kJbbuLai1kdu/vGapsUmYub008a7gJqkEdHqVagWFAdanyL7t/91qDOiccdv7augp8m7e7zwPxl58GUmNOieUaWklc+dWLuY5cxVttcmHW7DWGkuzgb+mcuGJgBsA5s6SKiYYtH0haWmLTH+IKY2MIRQ2yxSuaFI+aes1hoMrCAxV0MpBfa9N8PW6XqLsJhYmVz6kQ+f9+n8k9P59W9H6c1X7epRbVwEVFy8ZHMeYb3juV1cOHPIIttt4GFU4JJk78ftXgqdi1FlrIZzMKlaOHX5GAREQCLAdFYNg0lSn06dVbQggUypP6VoMoCrQkGU+QONCYEAgrAYoALF4BZ8tiP/3yFLfvePdugGTZMEKE9nlI8AQCLAxbopgELdOkMuHAX+BtQARYoAIsBAgrAhgEBBWAxwIULAAAA5AACCgAAAOTgn38Z8xoAAAAAGcEcKFgZMHcHAFgn4MIFAAAAcgABBQAAAHIAAQUAAAByAAEFAAAAcrDRAqojW3ymrtoofU7RThLo7djknpNg8mcCWE+LyoO6luyrekwffywy4gkAAGwHGy2gO88L5pUmy36k80KJ+QIEXNjdK5lXmsLzfFE9IozAS8g1dcw6oDgAAKwfm+/CPdynXRN7chEUP0gMyEn3odVxKq8TIbam4qDA19ql/UPzfgqeftSp/frKxLfk46IQix0KAADbyHb+DlQ2XG8Qnb5uU8XEe4zFXzQxGS1uDMv4RuFOnEc3tqUbb9L93CG8n3uv5KbjiXOjPIprtk37tR41huV/DDrOJU0Yo7Jn/l7HDRVBzRuvchT4HSgAYJ3Y3kVEtw2qPJxqiyqoEtUDPW+pxIKoaa0tTuudG5clC1rrnsXRpl07AvTsLX2Szy5884HBfH5VK2mBNOeG4vPiTL1X6S5KPNvkBfZeTSrUy/T5zqRTQI0bT+fFzf88kDwGHrV9cd/qgNyzFk8AAFg3tngVrk9Na+09OyLvsEc9FsmnPz225vzIBavSOtR/lNcFKrDwlhcxByhxJU9OHQuxSN4JUe+PXRDE1m/VWLmSL9L5z8LOm08syBmtT0EGFVbM1YACC5MAAGCLBTQPRTpT1mCNqKEX1EQW4ebS/RnwoKKmBVcsarayOze/ZrJiGAAA1hUIqHAXUIM8OmKBkJW7HdcdKmm3PnlmDlSjF/2I2zWyCNNRK4Lve9lFZ3efSpetyNIV9/FlibyX07tO9c97JrOiOw9igmvESo+jfy4zq5/hAADAOrC9i4hiC3t8ajorZ/Uim3DpTrTYJrG4KLZYKJkmuOnqpyBlFmP1Jlz0E7+XwS4mSlwzWswkgtWi/XARUPJ9OhMvIkrkPVlfUXry88nAIiIAwDqxxQLap9MpOnsQR4myLGqa4qc4EFAAwDoBFy6YDhmMHB9PLZ4AALBuQEDBdNif70A8AQBbBgJqg5UBLlwAwDoBCxQAAADIAQQUAAAAyAFcuACsIXB3A7B8YIECAAAAOYCAAgAAADmAgAIAAAA5gIACAAAAOdhoAdWbpn+mrtqr9ZiOv4yImKl205G/c5B9aFch2orZ6We54cP0ZvEqD6pepg/nlrlt1pBNLhsAIGKjBVRFQHEo7e2aV9uK6dAlcoo6HCE0Qh2mxSKr7NL+oXmpKFAh0yb0o0ltm9S8rD547gDYDjbfhXu4z93/DhUOzPusvDij62sb/WSJmK3yJHLL9OgwbFIuOa4krOk3Yx3ZLfnUcUVValCQsL4LzzkPEmbNvJ+aoW3D1q4N3m3zs47bBOZ97gAAa8P2/g5UrJyhIc1saC75zAllptyYbdqv9ahR75B/0SQ6r1DghPbSYcLsFaPPu1+Oqb1XpV7d3C8lzFnyvMql+TQMZWZI5N+GR1OfN4i8gwY1Rp1rkOu39sx5MSYLj6b/nuvChmGbBlUuEdDh93brRLBli9Ux56NJFfV3bnp0XtSuqs0eTsN8u+9j15TE1HYTpgvnNgn4HSgAy2c7FxGFnbSxcIKqY1VZK63J3WGSgBrcuUog7eBcBEb+pkc9cYPefdYdr7WaLogqztxXULf3S1h3ErD7gIXHnud0wMUP5u9j7lMmmX/Oa6FejuZrb1k8WUJ0PnwKvjouUDnXuEYr91WqOeKp5+4krUK9Wi2jeM4YtoT51tTwJR+JeWlG14k5uN16TtmCep9OpS0vK2pg0DwhHfCcy9zisl7Z866zDgxGt1v3C4tn2G7yHIgoL0Y8AQCrwVYK6NPvNlsppzkEgjvJd6aLTJzf/RkQcccdzttJIOz7Xti5l0JB0m491bEL4hJV5w2KxUge+4n8F8mzYqFgS8hagnL92z496ncxV+3V6zaVnfnFnTefjCBckXdTnmDhUpHO5LxprU9DmA8ZhEhdOnmMRJ4PscCdspVqvhEwn05dq/pZgQo8qCjnWPw0st0G6FA/rGQAwDawnRbonBB3oRYgc2SZuwsFzaO2EobpV7hmZefNKfmuuIawFf7ep87DkhVBzUM7lh9bkvU6saVn6jfmOUjDCPy1mLZafKddXV185TsDJrHYr5Y/Xw4AWChbKaBqleRl21h8smglmkvMy+6euHUnsCIH0J188ySDJaOs1lZsBW3rskTey7FyHePpR4sCtdglyRN9/xpMsHpU5kBZSObyc41H6tt5RrG8nRXA3W+Ttpt2z4sLPmZJWk+BEugsV5T66UVCzsdEi7zMT6SW+9MkAMC0bKcFypZN8yTQ7kG1WMad7zRiIItiuHvWc3HjrUJxO0bX1EeWDjLmkuSjQk1jycgiFflML1QJznW6spzEar0omLzxwQOAwkWGeT1n/lMONWdrrOR4PsrUfz+rlb8TYsQlOipEdhHUC5+qh1Edt/aqTrulkLhm+cYL5361FS7uXU7z+3R6keWKYqE79W+OzIJoVjIv3cIHAEwForEAMDF6Ba4MMkK3rYj0OWVchavPb78etgI6G1iFC8DywRwoABPjuJUNT3965ref6WhLfzrxBACsBrBAAciDsjgD80ZY3G9ABVigACwfCCgAawgEFIDlAxcuAAAAkAMIKAAAAJCDf/5lzGsAAAAAZARzoACsIZgDBWD5wIULAAAA5AACCgAAAOQAAgoAAADkAAIKAAAA5GCjBVRvmyYRUszG7KOihahN1hORVMwG5NOGvZoaswH8ciN36A32VR5UvUwfci1z2ywdkz8nJukwul+iNlqfsgEApmGjBVSFLXPIHp5rUzEduokeEhfCtLRd2j80LxVRSLG8bHLb4LkDYDvYfBeu2uB7hwoH5n1WVDBnJ9rGsjABt2ez8biOh2ljWF5JfOlv2jp6+lFXG5zbtGsJl2bSLIXnnAcTimsm5G2bhWLqLEtwdJe1KBsAYBq293eg4hqNBdK2m4GLJaZjcLLtQNXAxtkUN2ab9ms9atQ75F80ic4lZmi0ibi47sphQOboc3Hvtfeq1Kub+x1W6SrskN37CfHzKpfmUxsT05LIf6lmonvI5w0i76BBjVHnGuT6rT1zntocXYJES3l1nrJHDJG64bo4adL1h2m3U9f17F0QVexm7eF1JV91ovcetc+H1GWiTmy5pV3qdEreTWVEu0o7WpxN4d0N44eUzW0fIWyDBYDfgQKwfLZzEZHqaLmTDoy1FVQdq8paaW6QbUtAjYdTttxKFJzbQNw96omrkztbFaA6tOBYAJy5r6Bu73dFVWpQYOdW7/iaB9w52/Ns580UP5i/j7lPmWT+Oa+Fejmar71l8SRzzQufgq/O/J2ca9y0lftqGFhaWdwBC5MKEr3EgNqKgCpf9+nKlM2/bDnu5A41vhLVVJpblyyEEhBbfa7Po/NoXrtTr6gySZpreXMt01l4jqT1qGXnm40XQto7iRJPW8d8NE9MAgBga9hKAX363abOyamxQCaBLZd3Rt4S53d/sqVyWYnmEMVyue+FwlWq1czfa7de749JEZeoOi+xiCmNx34i/0XyuAMPrylWlLWW5Pq3fXrU70KXsBKG120q28UxYm1ZUeYBRe98koVLRoSmtj4tXM9Va6FL2TrUDwvApXtv0/RgR1nXd22WXRZeW//KqjSDG4EtSGuF77z0qBS2TXzuVzwInQfnZkPpUvvSeRYAAFvJdlqgc0JchtYiUUeWebNQ0Nj6U5349Ctcs7Lz5pR8I64yAAhFXvLElmvn5ldkua4D4mZ16//aumlHI3O/DbZjtbU73NoEAIBhbKWAqlWSl21j8Ynrz50Lzcfunrh1J7AiB9BWXDNhbQ1FWa2OW/Pvd2qxReS9nMzl+vSjRYFa7KJxLa+nPz3zKgsyj8jiP4+fa6iy+eQNmcONYSz5LD876n5rEL0+UoObxwdu+YOCGeh0KQjnsNOQVckdav82NuyPj7G50LGonwIt+6dJAIBp2U4L9MUZC5V199m5TIsRA+UC7FBDzQmOtwp33nxyrqmPLB2k/s1gdI7Mq2lXo3Ut6gVGwblOVwKhLMSCyRsfPAAoXIy3ttz5TznUnK2xkosfrqh6H7mgy/UCNSddeTozbL1L2cStHM0Lj8RYzbae1OH+dtNxr0sd2/nd4ruqcaFLGj8LtehJsG2jFobZv1GDhB16W60S1cs63cyLZ8asZB7vKgYArDKIxgJWDBnAyKAmw4AgI2p1tAwWZjZHOy2TrnIeBKtwAVg+mAMFYIFoq3Y68QQArAYQUAAWiLj6ZbESxBOA9QcuXADWELhwAVg+sEABAACAHEBAAQAAgBzAhQsAACsOXParCSxQAAAAIAcQUAAAACAHEFAAAAAgBxBQAAAAIAcbLaB61xfZ4N3sKztqs3O1R2xiI3iz4XeWzcnnitm/drkbj+v9gVUeVL1MHzEmc9tkxg1Llsifuwewuz/uOMwzoI55bJQPFo7EcR31XZI0296TfO/Veeq5cr4nYCvYaAFVUVccSns27gjQnUVcaNwOJC4YEn3EvFQUqDDlPrXj2iaWFz7Gd2gpgdBtyLiLwRDpqaQE1J4LrmDLsRGirQc2A+0nZV2x8o0MYD8GicTkUniOXaa2hc134apwXTqI9USYztMGYV4apvOf5dZvYv1VWGZicsIdmkQp0XE0WYSGhAZTHYOJJDIThraN7nAr91GMzpVoh3kjVvI5UdMp8+psfg/GokLiJQeaYNPZbAEVEQzDdSVEyHXrxeKBjnIFinvmM31XrkcZUduwZ5HrV7sl7bnR52JNff4xyo3o3m/wPPv5wAjezT8fodtIPufrfx91LqfXJVTZB898YJC6CjvsInknRL0/NpfaulMipgQ9GV7M1MUkFsWotvn7i9q3/uhQaolyj7dM01Ft5uQ7+X4kiXy4baraO3w+5EhMDwzjsZ8ak3a4RT7+mYyfFz3P8rnranTfq/yPel6T5ZYjtb5GD15Dr8PINnXrUA6nHuUczlfX+c7FvgPuebHvmwwEHydrG0U8L27dqf2N1XfH+Z6ArWA7FxHJF0zFmTQj/aDqWFUprkAKqGFiPwbnNo5oj3rSKbEFp0JmWevhgqjidCxB3d7viqrUoMB2End8zQNr+ckRidNIl1Iy/5zXQr0cdTy3Db6DuabEyPxqOxAW64bEDh0XX7NL7RwBumeCCIkT5DsOd2J+n07DumoSTRXEfAqsW9gczQOnTZngnNvHpp0E1HI63KHwgCKMJ5vo8AX9LJiDn9de2KYpzyQ/J62YJZ89RNzw51XqX54fcz1xiR/y9TNYymowpoRNt1cUsD2tTXWQeVvuq1ovXo/8nLeoptO5Tqge6PPGto3Uk0nL0jbyvflPdI7UiXdTn3odAFh/tlJAn363qXNymiPeZImq70xnkTi/+zOIBW0+Puf3972wIyzVaubv9Yg8tO7EJarOm0AIRGRi909ajGzB2U5Nrn/bJwnd/PSjrsJopY+QpbOoUC/MbxZMRzcDl2PUsQ7hrs1y4QYtl6DnRiwWTtwiqVy69S/t7ccGQllc8FYkr163qSzXTVrG9n7iMTFtmvZM0rMCFVhkyjkWfY18XpOE+RhNOEfIf1g46VHbEbP0No17ZySweTwIuU+ntl5jnpFxbRM928VX/vjA5sor4gR5V0HuO9QfV3Cw8WynBTonfDsyt8coN6RLOFr2qK2+nJN3dtnoslXBHRBbqroTkI7KdAphRy0d1nJjVarFRWmd8olrrcsxu8Dbk9D9wvXn5KXJA5hZoUOeyTx0Sz8LbLnV60RVawHFPCZpWAuuRtTQnf90Lm89UAvO9bWOz3ucp3HejIjuzz557zzq/dTPW7jYZkSbyoCvwfavtaCzLuaaS9uIpW2uZw+4asFWCqjqpC/bxuLTbqm0+acsyCg7mMqdqDu75kmGka2yWk3nKoirbqzLNe4OUx20WC/SKSvLUUbtecXTjPizzB2O44VP1UO2SIZdy1jr0857DmA9BUqosjwJT9S7Z0vGmcNrsZUzU/6yFWZe6vnRaOVz99ukz6uelhABci2x0PKSBWRZ8i/lzOESlu9b5yGgNnlUfHZE3j1bnQ+mBClt+ih/oxbnCHoAOJ5J2oYHjF8D8l+NGQIYS74+1tU7HOs9mPlzC5bOdlqg7nzTsZ03slj3j2OhZbAKxWqIrqkPd6HBKOILj47VSlg9srXuK3EXRaN+9SUUq/WiELmU1LzUdJbY048Wl5c71dBClWMZ84vS2V9R9d5xh/MRlduPLCA5wvnClHazPw8Rt7pyaUbn7bw5Jd9+JnNxzk9dbNuI6zB0zyth5zy+96O64vO8KX/qknwOjtUct2lTO6gwaa29qvO8pmDLbY7yjUc1MzgqvmMr1pbp6z41s+Sf6//0wNRVeGT0mFxy3Suh2qGj1z0KeMC3LxqX0qaxPMr3tJal1OPbJnrG9YBx7PdNBp9qjjXfd8P+ZGukGxysLYjGAgDIBltzH9WCn8htKyt21c+fZjD/vbnI4K5CdJHf7YtoLKsJ5kABANkY+KlNwl0KBtA/I5pOPMHqAgsUAJAZZXG6c4qyWAfW59yBBbqaQEABAGDFgYCuJnDhAgAAADmAgAIAAAA5+OdfxrwGAAAAQEYwBwoAUGCeDYDJgAsXAAAAyAEEFAAAAMgBBBQAAADIAQQUAAAAyMFGC6jeoFs2fTYbRY+KFiJ7fCY3hzYbcS89goLKW7aN6eeH3qhd5UHVy/Qh1zK3zdIx+UsGuXY3as+cd6nHUXVnNzOXY5L6nX3bAACysdECaqMgWLBnpxUu21EPHzQMRprYpf1D81IRhdbKy9q3zYszFdIra4zK8eiQYzrM3CTMvm0AANnYfBfu4T53MTqq/kSYDnLpG0CbgNszCXDNAlmuF6hp4zleEFWMZaWE9es+XTnhvJKoAMgSv9G8n5q8bbNQjLBlCY6+RGbeNgCAsWy2gIoImo6v+CEhQsY1qiyuWEDtUa40cZV9pu/Ggvt8p11nrrU2yrqTDbg//3DuF3MHuvcbPM9+PuBKdvPPR+jilc/5+t+HnPv0p0elmh+GoqIXHvm3fZKwyhLPdLRIaBFRgwkl6FE4K42pi0ncsCPbJunmdN6nlE1w6ytK03mL1Z+qO1vPth3t4Vjfudy0yecg6X5nC/Exx3UT7R2VZ1zbAADmxXYuIpLOSAUsNpZYUHVG7mmutIAaD6fKbRec20DcPepJ5y7WHafpSP18iHXndI5B3d7viqrUoMB2gHd8zYNmdJ7TAYqwqL+PueiYZP45r4V6OepUbxt8B3NNCVb81QSPfl6gzs2vULx1EG2T/3VhRNkEXV/m4DbtqbQi+dJeP6O2ePrdps6JZ+q5SGf2HD6uaj1qWcHL6aZVg5HwmtI2QSTKXOMVsfRNmn/ZyjBnySKv4nBG16RzR+gBAEthKwVUd6CnOtr/RJSo+s7IW+L87s+AKIyez8c5v7/vhZ17qVYzf69dlmF0enG7qfMm6BAlLmPs/kXyTtyI9z41bYgpub6xMkUQmgcNKps81okt0JnMmRkRWkhYqxFlY2KWn3gVQuv6lIWqber3iX7dUNSO/N71AJTrHeo82CvmxLVcjyuJQQo/Q1Vr6Uu7dag/7nZ3bb4GC+/IawIAlsF2WqBzwr+wFoI5ssybmTnO62uP2qpznO8qStdK+/SSRVfNQ24AbJXX6yyMQ70KIlQBtcVC//uL2HanIzNoePpRZ4u2aizCWSwKYmuRB0/RszDpoqARSNxNk0d9fMoxAAQAzJKtFFC1AjS0SMQ95s6B5mN3T9y607jVtBXXzGKRKKvVcf2xeLQuS+S9HCvXDrrchfcZRH4sZh5xkjnQVKI66H4RaysDYpU71nT3W7xNi++q1PvZVd4Ht8yPD/xXBwXzvksBW6BT8ZctQ5bufTMq0W7yEah288kbt1DNeCli87gAgKWznRaouDLZItEuMTuXaTFioNxkHWr42axCmfeKrqmPLL/dTC44qVDTrPy1rsUyNW6JxVmnq05UrNaLgskbHyKEF1ksEls2OaTczipj63YU17N1FyZ/+7gQzJylKW9rrzk4BzyMFz7/XVT/rb1q3PJ7dkTefYXKNx75jmCJsGoXuqmTWnSWbRtx64bueTNIGJnGbXPKgyDbNuUHL5H/KO1YzWPbOe+U5061tx/WiTqW0jYAABdEYwEAKBCNBYDJwBwoAAAAkAMIKAAAAJADCCgAAACQAwgoAAAAkAMIKAAAAJCDjVyFi9WEAAAA5g0sUAAAACAHEFAAAAAgBxBQAAAAIAcQUAAAACAHCxZQu9/nfCOOAAAAAPNmOatwZeNyCSqcJdxXDrAKFwAAwLxZjgtXwjOZlwAAAMA6gjlQAAAAIAfLEdBnBSrc9mlc3GgAAABgVVmSBVqks2uP2rKgyAQoBgAAANaJJW3lJ6tx2+Rd22j8swWLiAAAAMyb5Vigf3vUO9ynXfM2wvzM5T/f6cl8AgAAAKwiK7aIaJf2D/k/zI8CAABYcVZMQHfo6HWJaKh1CgAAAKwOyxHQxz51zMuQv9/p4/ExlW+8uW2wAAAAAMyKBS8ikjnOCgVUomrwid4+Mx/PGCwiAgAAMG8QUBsAAADIwYrNgQIAAADrAQQUAAAAyME//zLmNQAAAAAysrZzoJjnBAAAsEzgwgUAAAAmhuj/B+7xCYHcuURJAAAAAElFTkSuQmCC;" vertex="1" parent="WIyWlLk6GJQsqaUBKTNV-1">
          <mxGeometry x="837" y="760" width="464" height="434" as="geometry" />
        </mxCell>
      </root>
    </mxGraphModel>
  </diagram>
</mxfile>
